NotoSerifBengali-Condensed.ufo
<glyph name="quotedbl" format="2">
  <advance width="344"/>
  <unicode hex="0022"/>
  <outline>
    <contour>
      <point x="229" y="483" type="line"/>
      <point x="269" y="483" type="line"/>
      <point x="296" y="714" type="line"/>
      <point x="202" y="714" type="line"/>
    </contour>
    <contour>
      <point x="75" y="483" type="line"/>
      <point x="115" y="483" type="line"/>
      <point x="142" y="714" type="line"/>
      <point x="48" y="714" type="line"/>
    </contour>
  </outline>
</glyph>
<glyph name="numbersign" format="2">
  <advance width="443"/>
  <unicode hex="0023"/>
  <outline>
    <contour>
      <point x="44" y="0" type="line"/>
      <point x="99" y="0" type="line"/>
      <point x="138" y="208" type="line"/>
      <point x="242" y="208" type="line"/>
      <point x="203" y="0" type="line"/>
      <point x="258" y="0" type="line"/>
      <point x="297" y="208" type="line"/>
      <point x="403" y="208" type="line"/>
      <point x="403" y="259" type="line"/>
      <point x="307" y="259" type="line"/>
      <point x="345" y="460" type="line"/>
      <point x="435" y="460" type="line"/>
      <point x="435" y="513" type="line"/>
      <point x="355" y="513" type="line"/>
      <point x="393" y="714" type="line"/>
      <point x="337" y="714" type="line"/>
      <point x="300" y="513" type="line"/>
      <point x="196" y="513" type="line"/>
      <point x="234" y="714" type="line"/>
      <point x="178" y="714" type="line"/>
      <point x="141" y="513" type="line"/>
      <point x="39" y="513" type="line"/>
      <point x="39" y="460" type="line"/>
      <point x="130" y="460" type="line"/>
      <point x="93" y="259" type="line"/>
      <point x="7" y="259" type="line"/>
      <point x="7" y="208" type="line"/>
      <point x="83" y="208" type="line"/>
    </contour>
    <contour>
      <point x="148" y="259" type="line"/>
      <point x="186" y="460" type="line"/>
      <point x="290" y="460" type="line"/>
      <point x="252" y="259" type="line"/>
    </contour>
  </outline>
</glyph>
<glyph name="parenright" format="2">
  <advance width="284"/>
  <unicode hex="0029"/>
  <outline>
    <contour>
      <point x="25" y="-127" type="line"/>
      <point x="179" y="-55"/>
      <point x="240" y="73"/>
      <point x="240" y="317" type="curve" smooth="yes"/>
      <point x="240" y="560"/>
      <point x="179" y="688"/>
      <point x="25" y="758" type="curve"/>
      <point x="25" y="716" type="line"/>
      <point x="131" y="632"/>
      <point x="146" y="476"/>
      <point x="146" y="317" type="curve" smooth="yes"/>
      <point x="146" y="158"/>
      <point x="131" y="0"/>
      <point x="25" y="-83" type="curve"/>
    </contour>
  </outline>
</glyph>
<glyph name="asterisk" format="2">
  <advance width="376"/>
  <unicode hex="002A"/>
  <outline>
    <contour>
      <point x="153" y="374" type="line"/>
      <point x="224" y="374" type="line"/>
      <point x="201" y="541" type="line"/>
      <point x="316" y="445" type="line"/>
      <point x="345" y="516" type="line"/>
      <point x="222" y="567" type="line"/>
      <point x="345" y="618" type="line"/>
      <point x="316" y="689" type="line"/>
      <point x="201" y="594" type="line"/>
      <point x="224" y="760" type="line"/>
      <point x="153" y="760" type="line"/>
      <point x="174" y="593" type="line"/>
      <point x="60" y="691" type="line"/>
      <point x="31" y="619" type="line"/>
      <point x="154" y="567" type="line"/>
      <point x="31" y="515" type="line"/>
      <point x="60" y="443" type="line"/>
      <point x="174" y="541" type="line"/>
    </contour>
  </outline>
</glyph>
<glyph name="plus" format="2">
  <advance width="425"/>
  <unicode hex="002B"/>
  <outline>
    <contour>
      <point x="182" y="143" type="line"/>
      <point x="241" y="143" type="line"/>
      <point x="241" y="329" type="line"/>
      <point x="382" y="329" type="line"/>
      <point x="382" y="386" type="line"/>
      <point x="241" y="386" type="line"/>
      <point x="241" y="572" type="line"/>
      <point x="182" y="572" type="line"/>
      <point x="182" y="386" type="line"/>
      <point x="43" y="386" type="line"/>
      <point x="43" y="329" type="line"/>
      <point x="182" y="329" type="line"/>
    </contour>
  </outline>
</glyph>
<glyph name="period" format="2">
  <advance width="207"/>
  <unicode hex="002E"/>
  <outline>
    <contour>
      <point x="104" y="-7" type="curve" smooth="yes"/>
      <point x="131" y="-7"/>
      <point x="155" y="8"/>
      <point x="155" y="55" type="curve" smooth="yes"/>
      <point x="155" y="102"/>
      <point x="131" y="117"/>
      <point x="104" y="117" type="curve" smooth="yes"/>
      <point x="75" y="117"/>
      <point x="52" y="102"/>
      <point x="52" y="55" type="curve" smooth="yes"/>
      <point x="52" y="8"/>
      <point x="75" y="-7"/>
    </contour>
  </outline>
</glyph>
<glyph name="slash" format="2">
  <advance width="228"/>
  <unicode hex="002F"/>
  <outline>
    <contour>
      <point x="0" y="-121" type="line"/>
      <point x="50" y="-120" type="line"/>
      <point x="228" y="760" type="line"/>
      <point x="180" y="760" type="line"/>
    </contour>
  </outline>
</glyph>
<glyph name="two" format="2">
  <advance width="442"/>
  <unicode hex="0032"/>
  <outline>
    <contour>
      <point x="37" y="0" type="line"/>
      <point x="395" y="0" type="line"/>
      <point x="398" y="170" type="line"/>
      <point x="359" y="170" type="line"/>
      <point x="355" y="151" type="line" smooth="yes"/>
      <point x="346" y="104"/>
      <point x="332" y="77"/>
      <point x="288" y="77" type="curve" smooth="yes"/>
      <point x="105" y="77" type="line"/>
      <point x="241" y="259" type="line" smooth="yes"/>
      <point x="324" y="364"/>
      <point x="380" y="448"/>
      <point x="380" y="554" type="curve" smooth="yes"/>
      <point x="380" y="655"/>
      <point x="316" y="724"/>
      <point x="209" y="724" type="curve" smooth="yes"/>
      <point x="100" y="724"/>
      <point x="45" y="666"/>
      <point x="45" y="595" type="curve" smooth="yes"/>
      <point x="45" y="545"/>
      <point x="82" y="530"/>
      <point x="120" y="530" type="curve"/>
      <point x="120" y="606"/>
      <point x="137" y="675"/>
      <point x="209" y="675" type="curve" smooth="yes"/>
      <point x="263" y="675"/>
      <point x="289" y="624"/>
      <point x="289" y="545" type="curve" smooth="yes"/>
      <point x="289" y="455"/>
      <point x="262" y="380"/>
      <point x="175" y="260" type="curve" smooth="yes"/>
      <point x="37" y="67" type="line"/>
    </contour>
  </outline>
</glyph>
<glyph name="seven" format="2">
  <advance width="442"/>
  <unicode hex="0037"/>
  <outline>
    <contour>
      <point x="135" y="0" type="line"/>
      <point x="197" y="0" type="line"/>
      <point x="403" y="687" type="line"/>
      <point x="403" y="714" type="line"/>
      <point x="46" y="714" type="line"/>
      <point x="41" y="536" type="line"/>
      <point x="83" y="536" type="line"/>
      <point x="87" y="583" type="line" smooth="yes"/>
      <point x="90" y="621"/>
      <point x="102" y="637"/>
      <point x="131" y="637" type="curve"/>
      <point x="340" y="637" type="line"/>
    </contour>
  </outline>
</glyph>
<glyph name="colon" format="2">
  <advance width="206"/>
  <unicode hex="003A"/>
  <outline>
    <contour>
      <point x="103" y="409" type="curve" smooth="yes"/>
      <point x="130" y="409"/>
      <point x="154" y="423"/>
      <point x="154" y="470" type="curve" smooth="yes"/>
      <point x="154" y="517"/>
      <point x="130" y="531"/>
      <point x="103" y="531" type="curve" smooth="yes"/>
      <point x="74" y="531"/>
      <point x="52" y="517"/>
      <point x="52" y="470" type="curve" smooth="yes"/>
      <point x="52" y="423"/>
      <point x="74" y="409"/>
    </contour>
    <contour>
      <point x="103" y="-7" type="curve" smooth="yes"/>
      <point x="130" y="-7"/>
      <point x="154" y="8"/>
      <point x="154" y="55" type="curve" smooth="yes"/>
      <point x="154" y="102"/>
      <point x="130" y="117"/>
      <point x="103" y="117" type="curve" smooth="yes"/>
      <point x="74" y="117"/>
      <point x="52" y="102"/>
      <point x="52" y="55" type="curve" smooth="yes"/>
      <point x="52" y="8"/>
      <point x="74" y="-7"/>
    </contour>
  </outline>
</glyph>
<glyph name="semicolon" format="2">
  <advance width="213"/>
  <unicode hex="003B"/>
  <outline>
    <contour>
      <point x="32" y="-154" type="line"/>
      <point x="123" y="-122"/>
      <point x="157" y="-52"/>
      <point x="157" y="26" type="curve" smooth="yes"/>
      <point x="157" y="84"/>
      <point x="133" y="117"/>
      <point x="96" y="117" type="curve" smooth="yes"/>
      <point x="70" y="117"/>
      <point x="49" y="97"/>
      <point x="49" y="64" type="curve" smooth="yes"/>
      <point x="49" y="10"/>
      <point x="101" y="11"/>
      <point x="101" y="-26" type="curve" smooth="yes"/>
      <point x="101" y="-62"/>
      <point x="79" y="-97"/>
      <point x="32" y="-116" type="curve"/>
    </contour>
    <contour>
      <point x="103" y="409" type="curve" smooth="yes"/>
      <point x="131" y="409"/>
      <point x="154" y="423"/>
      <point x="154" y="470" type="curve" smooth="yes"/>
      <point x="154" y="517"/>
      <point x="131" y="531"/>
      <point x="103" y="531" type="curve" smooth="yes"/>
      <point x="74" y="531"/>
      <point x="52" y="517"/>
      <point x="52" y="470" type="curve" smooth="yes"/>
      <point x="52" y="423"/>
      <point x="74" y="409"/>
    </contour>
  </outline>
</glyph>
<glyph name="less" format="2">
  <advance width="425"/>
  <unicode hex="003C"/>
  <outline>
    <contour>
      <point x="382" y="111" type="line"/>
      <point x="382" y="177" type="line"/>
      <point x="119" y="357" type="line"/>
      <point x="382" y="540" type="line"/>
      <point x="382" y="605" type="line"/>
      <point x="43" y="375" type="line"/>
      <point x="43" y="340" type="line"/>
    </contour>
  </outline>
</glyph>
<glyph name="greater" format="2">
  <advance width="425"/>
  <unicode hex="003E"/>
  <outline>
    <contour>
      <point x="43" y="111" type="line"/>
      <point x="382" y="340" type="line"/>
      <point x="382" y="375" type="line"/>
      <point x="43" y="605" type="line"/>
      <point x="43" y="540" type="line"/>
      <point x="305" y="357" type="line"/>
      <point x="43" y="177" type="line"/>
    </contour>
  </outline>
</glyph>
<glyph name="bracketright" format="2">
  <advance width="296"/>
  <unicode hex="005D"/>
  <outline>
    <contour>
      <point x="30" y="-128" type="line"/>
      <point x="217" y="-128" type="line"/>
      <point x="217" y="760" type="line"/>
      <point x="30" y="760" type="line"/>
      <point x="30" y="719" type="line"/>
      <point x="63" y="719" type="line" smooth="yes"/>
      <point x="99" y="719"/>
      <point x="128" y="710"/>
      <point x="128" y="647" type="curve" smooth="yes"/>
      <point x="128" y="-15" type="line" smooth="yes"/>
      <point x="128" y="-78"/>
      <point x="99" y="-87"/>
      <point x="63" y="-87" type="curve" smooth="yes"/>
      <point x="30" y="-87" type="line"/>
    </contour>
  </outline>
</glyph>
<glyph name="uni00AD" format="2">
  <advance width="246"/>
  <unicode hex="00AD"/>
  <outline>
    <contour>
      <point x="20" y="236" type="line"/>
      <point x="226" y="236" type="line"/>
      <point x="226" y="309" type="line"/>
      <point x="20" y="309" type="line"/>
    </contour>
  </outline>
</glyph>
<glyph name="multiply" format="2">
  <advance width="425"/>
  <unicode hex="00D7"/>
  <outline>
    <contour>
      <point x="87" y="151" type="line"/>
      <point x="215" y="314" type="line"/>
      <point x="343" y="151" type="line"/>
      <point x="386" y="186" type="line"/>
      <point x="251" y="358" type="line"/>
      <point x="386" y="529" type="line"/>
      <point x="343" y="564" type="line"/>
      <point x="215" y="403" type="line"/>
      <point x="88" y="565" type="line"/>
      <point x="44" y="530" type="line"/>
      <point x="180" y="358" type="line"/>
      <point x="44" y="185" type="line"/>
    </contour>
  </outline>
</glyph>
<glyph name="anudatta-deva" format="2">
  <unicode hex="0952"/>
  <anchor x="-299" y="380" name="_vedic"/>
  <outline>
    <contour>
      <point x="-464" y="-144" type="line"/>
      <point x="-133" y="-144" type="line"/>
      <point x="-133" y="-92" type="line"/>
      <point x="-464" y="-92" type="line"/>
    </contour>
  </outline>
</glyph>
<glyph name="anji-beng" format="2">
  <advance width="406"/>
  <unicode hex="0980"/>
  <outline>
    <contour>
      <point x="337" y="0" type="curve" smooth="yes"/>
      <point x="374" y="0"/>
      <point x="393" y="27"/>
      <point x="393" y="63" type="curve" smooth="yes"/>
      <point x="393" y="98"/>
      <point x="370" y="124"/>
      <point x="339" y="124" type="curve" smooth="yes"/>
      <point x="310" y="124"/>
      <point x="298" y="104"/>
      <point x="296" y="76" type="curve"/>
      <point x="315" y="76" type="line"/>
      <point x="315" y="486" type="line" smooth="yes"/>
      <point x="315" y="560"/>
      <point x="276" y="622"/>
      <point x="199" y="622" type="curve" smooth="yes"/>
      <point x="111" y="622"/>
      <point x="41" y="537"/>
      <point x="41" y="425" type="curve" smooth="yes"/>
      <point x="41" y="309"/>
      <point x="104" y="255"/>
      <point x="167" y="255" type="curve" smooth="yes"/>
      <point x="212" y="255"/>
      <point x="239" y="285"/>
      <point x="239" y="330" type="curve" smooth="yes"/>
      <point x="239" y="377"/>
      <point x="212" y="402"/>
      <point x="181" y="402" type="curve" smooth="yes"/>
      <point x="148" y="402"/>
      <point x="125" y="377"/>
      <point x="125" y="337" type="curve" smooth="yes"/>
      <point x="125" y="326"/>
      <point x="128" y="311"/>
      <point x="131" y="305" type="curve"/>
      <point x="162" y="324" type="line"/>
      <point x="154" y="320"/>
      <point x="146" y="319"/>
      <point x="138" y="319" type="curve" smooth="yes"/>
      <point x="112" y="319"/>
      <point x="95" y="352"/>
      <point x="95" y="399" type="curve" smooth="yes"/>
      <point x="95" y="479"/>
      <point x="164" y="561"/>
      <point x="218" y="561" type="curve" smooth="yes"/>
      <point x="250" y="561"/>
      <point x="264" y="537"/>
      <point x="264" y="498" type="curve" smooth="yes"/>
      <point x="264" y="97" type="line" smooth="yes"/>
      <point x="264" y="40"/>
      <point x="292" y="0"/>
    </contour>
  </outline>
</glyph>
<glyph name="anusvara-beng" format="2">
  <advance width="276"/>
  <unicode hex="0982"/>
  <outline>
    <contour>
      <point x="133" y="365" type="curve" smooth="yes"/>
      <point x="193" y="365"/>
      <point x="236" y="420"/>
      <point x="236" y="497" type="curve" smooth="yes"/>
      <point x="236" y="567"/>
      <point x="202" y="623"/>
      <point x="140" y="623" type="curve" smooth="yes"/>
      <point x="82" y="623"/>
      <point x="40" y="568"/>
      <point x="40" y="492" type="curve" smooth="yes"/>
      <point x="40" y="421"/>
      <point x="76" y="365"/>
    </contour>
    <contour>
      <point x="121" y="414" type="curve" smooth="yes"/>
      <point x="104" y="414"/>
      <point x="91" y="430"/>
      <point x="91" y="461" type="curve" smooth="yes"/>
      <point x="91" y="510"/>
      <point x="124" y="569"/>
      <point x="160" y="569" type="curve" smooth="yes"/>
      <point x="177" y="569"/>
      <point x="186" y="550"/>
      <point x="186" y="531" type="curve" smooth="yes"/>
      <point x="186" y="481"/>
      <point x="154" y="414"/>
    </contour>
    <contour>
      <point x="235" y="-38" type="curve"/>
      <point x="264" y="-23" type="line"/>
      <point x="221" y="106"/>
      <point x="157" y="237"/>
      <point x="86" y="317" type="curve"/>
      <point x="40" y="233" type="line"/>
      <point x="111" y="169"/>
      <point x="164" y="103"/>
    </contour>
  </outline>
</glyph>
<glyph name="visarga-beng" format="2">
  <advance width="276"/>
  <unicode hex="0983"/>
  <outline>
    <contour>
      <point x="133" y="365" type="curve" smooth="yes"/>
      <point x="193" y="365"/>
      <point x="236" y="420"/>
      <point x="236" y="497" type="curve" smooth="yes"/>
      <point x="236" y="567"/>
      <point x="202" y="623"/>
      <point x="140" y="623" type="curve" smooth="yes"/>
      <point x="82" y="623"/>
      <point x="40" y="568"/>
      <point x="40" y="492" type="curve" smooth="yes"/>
      <point x="40" y="421"/>
      <point x="76" y="365"/>
    </contour>
    <contour>
      <point x="121" y="414" type="curve" smooth="yes"/>
      <point x="104" y="414"/>
      <point x="91" y="430"/>
      <point x="91" y="461" type="curve" smooth="yes"/>
      <point x="91" y="510"/>
      <point x="124" y="569"/>
      <point x="160" y="569" type="curve" smooth="yes"/>
      <point x="177" y="569"/>
      <point x="186" y="550"/>
      <point x="186" y="531" type="curve" smooth="yes"/>
      <point x="186" y="481"/>
      <point x="154" y="414"/>
    </contour>
    <contour>
      <point x="133" y="9" type="curve" smooth="yes"/>
      <point x="193" y="9"/>
      <point x="236" y="64"/>
      <point x="236" y="141" type="curve" smooth="yes"/>
      <point x="236" y="211"/>
      <point x="202" y="267"/>
      <point x="140" y="267" type="curve" smooth="yes"/>
      <point x="82" y="267"/>
      <point x="40" y="212"/>
      <point x="40" y="136" type="curve" smooth="yes"/>
      <point x="40" y="65"/>
      <point x="76" y="9"/>
    </contour>
    <contour>
      <point x="121" y="58" type="curve" smooth="yes"/>
      <point x="104" y="58"/>
      <point x="91" y="74"/>
      <point x="91" y="105" type="curve" smooth="yes"/>
      <point x="91" y="154"/>
      <point x="124" y="213"/>
      <point x="160" y="213" type="curve" smooth="yes"/>
      <point x="177" y="213"/>
      <point x="186" y="194"/>
      <point x="186" y="175" type="curve" smooth="yes"/>
      <point x="186" y="125"/>
      <point x="154" y="58"/>
    </contour>
  </outline>
</glyph>
<glyph name="a-beng" format="2">
  <advance width="573"/>
  <unicode hex="0985"/>
  <anchor x="508" y="0" name="bottom"/>
  <anchor x="508" y="70" name="bottom.rakaar"/>
  <anchor x="508" y="12" name="bottom.rvocalic"/>
  <anchor x="494" y="6" name="bottom.virama"/>
  <anchor x="508" y="570" name="top"/>
  <anchor x="508" y="570" name="topright"/>
  <outline>
    <contour>
      <point x="500" y="-13" type="line"/>
      <point x="506" y="-12" type="line"/>
      <point x="506" y="570" type="line"/>
      <point x="598" y="570" type="line"/>
      <point x="570" y="622" type="line"/>
      <point x="-25" y="622" type="line"/>
      <point x="2" y="570" type="line"/>
      <point x="455" y="570" type="line"/>
      <point x="455" y="78" type="line"/>
      <point x="468" y="74" type="line"/>
      <point x="448" y="150"/>
      <point x="408" y="209"/>
      <point x="361" y="249" type="curve"/>
      <point x="336" y="191" type="line"/>
      <point x="391" y="153"/>
      <point x="432" y="96"/>
      <point x="463" y="17" type="curve"/>
    </contour>
    <contour>
      <point x="243" y="98" type="curve" smooth="yes"/>
      <point x="341" y="98"/>
      <point x="393" y="195"/>
      <point x="393" y="303" type="curve" smooth="yes"/>
      <point x="393" y="415"/>
      <point x="340" y="510"/>
      <point x="240" y="510" type="curve" smooth="yes"/>
      <point x="182" y="510"/>
      <point x="138" y="475"/>
      <point x="138" y="407" type="curve" smooth="yes"/>
      <point x="138" y="347"/>
      <point x="172" y="312"/>
      <point x="218" y="312" type="curve" smooth="yes"/>
      <point x="268" y="312"/>
      <point x="291" y="356"/>
      <point x="291" y="413" type="curve" smooth="yes"/>
      <point x="291" y="482"/>
      <point x="254" y="544"/>
      <point x="224" y="577" type="curve"/>
      <point x="122" y="575" type="line"/>
      <point x="209" y="544"/>
      <point x="239" y="496"/>
      <point x="246" y="415" type="curve"/>
      <point x="258" y="424"/>
      <point x="269" y="427"/>
      <point x="284" y="427" type="curve" smooth="yes"/>
      <point x="313" y="427"/>
      <point x="347" y="397"/>
      <point x="347" y="315" type="curve" smooth="yes"/>
      <point x="347" y="231"/>
      <point x="307" y="190"/>
      <point x="244" y="190" type="curve" smooth="yes"/>
      <point x="144" y="190"/>
      <point x="78" y="267"/>
      <point x="47" y="500" type="curve"/>
      <point x="9" y="492" type="line"/>
      <point x="39" y="212"/>
      <point x="125" y="98"/>
    </contour>
  </outline>
</glyph>
<glyph name="aa-beng" format="2">
  <advance width="734"/>
  <unicode hex="0986"/>
  <anchor x="508" y="0" name="bottom"/>
  <anchor x="508" y="70" name="bottom.rakaar"/>
  <anchor x="508" y="12" name="bottom.rvocalic"/>
  <anchor x="494" y="6" name="bottom.virama"/>
  <anchor x="670" y="570" name="top"/>
  <anchor x="670" y="542" name="topright"/>
  <outline>
    <contour>
      <point x="500" y="-13" type="line"/>
      <point x="506" y="-12" type="line"/>
      <point x="506" y="570" type="line"/>
      <point x="568" y="570" type="line"/>
      <point x="540" y="622" type="line"/>
      <point x="-25" y="622" type="line"/>
      <point x="2" y="570" type="line"/>
      <point x="455" y="570" type="line"/>
      <point x="455" y="78" type="line"/>
      <point x="468" y="74" type="line"/>
      <point x="448" y="150"/>
      <point x="408" y="209"/>
      <point x="361" y="249" type="curve"/>
      <point x="336" y="191" type="line"/>
      <point x="391" y="153"/>
      <point x="432" y="96"/>
      <point x="463" y="17" type="curve"/>
    </contour>
    <contour>
      <point x="243" y="98" type="curve" smooth="yes"/>
      <point x="341" y="98"/>
      <point x="393" y="195"/>
      <point x="393" y="303" type="curve" smooth="yes"/>
      <point x="393" y="415"/>
      <point x="340" y="510"/>
      <point x="240" y="510" type="curve" smooth="yes"/>
      <point x="182" y="510"/>
      <point x="138" y="475"/>
      <point x="138" y="407" type="curve" smooth="yes"/>
      <point x="138" y="347"/>
      <point x="172" y="312"/>
      <point x="218" y="312" type="curve" smooth="yes"/>
      <point x="268" y="312"/>
      <point x="291" y="356"/>
      <point x="291" y="413" type="curve" smooth="yes"/>
      <point x="291" y="482"/>
      <point x="254" y="544"/>
      <point x="224" y="577" type="curve"/>
      <point x="122" y="575" type="line"/>
      <point x="209" y="544"/>
      <point x="239" y="496"/>
      <point x="246" y="415" type="curve"/>
      <point x="258" y="424"/>
      <point x="269" y="427"/>
      <point x="284" y="427" type="curve" smooth="yes"/>
      <point x="313" y="427"/>
      <point x="347" y="397"/>
      <point x="347" y="315" type="curve" smooth="yes"/>
      <point x="347" y="231"/>
      <point x="307" y="190"/>
      <point x="244" y="190" type="curve" smooth="yes"/>
      <point x="144" y="190"/>
      <point x="78" y="267"/>
      <point x="47" y="500" type="curve"/>
      <point x="9" y="492" type="line"/>
      <point x="39" y="212"/>
      <point x="125" y="98"/>
    </contour>
    <contour>
      <point x="663" y="-25" type="line"/>
      <point x="667" y="-24" type="line"/>
      <point x="667" y="570" type="line"/>
      <point x="759" y="570" type="line"/>
      <point x="731" y="622" type="line"/>
      <point x="664" y="622" type="line"/>
      <point x="659" y="665" type="line"/>
      <point x="620" y="698" type="line"/>
      <point x="616" y="697" type="line"/>
      <point x="616" y="638" type="line" smooth="yes"/>
      <point x="616" y="616"/>
      <point x="619" y="571"/>
      <point x="624" y="532" type="curve"/>
      <point x="628" y="533" type="line"/>
      <point x="617" y="596"/>
      <point x="580" y="622"/>
      <point x="552" y="622" type="curve" smooth="yes"/>
      <point x="524" y="622" type="line"/>
      <point x="552" y="570" type="line"/>
      <point x="558" y="570" type="line" smooth="yes"/>
      <point x="583" y="570"/>
      <point x="610" y="526"/>
      <point x="616" y="472" type="curve"/>
      <point x="616" y="3" type="line"/>
    </contour>
  </outline>
</glyph>
<glyph name="i-beng" format="2">
  <advance width="357"/>
  <unicode hex="0987"/>
  <anchor x="206" y="89" name="bottom"/>
  <anchor x="294" y="-61" name="bottom.rakaar"/>
  <anchor x="255" y="90" name="bottom.rvocalic"/>
  <anchor x="194" y="90" name="bottom.virama"/>
  <anchor x="219" y="617" name="top"/>
  <anchor x="178" y="623" name="topright"/>
  <outline>
    <contour>
      <point x="262" y="612" type="curve"/>
      <point x="302" y="612" type="line"/>
      <point x="299" y="738"/>
      <point x="263" y="799"/>
      <point x="190" y="799" type="curve" smooth="yes"/>
      <point x="153" y="799"/>
      <point x="130" y="790"/>
      <point x="94" y="790" type="curve" smooth="yes"/>
      <point x="49" y="790"/>
      <point x="24" y="806"/>
      <point x="24" y="871" type="curve" smooth="yes"/>
      <point x="24" y="885"/>
      <point x="25" y="901"/>
      <point x="27" y="912" type="curve"/>
      <point x="-9" y="916" type="line"/>
      <point x="-12" y="896"/>
      <point x="-13" y="874"/>
      <point x="-13" y="859" type="curve" smooth="yes"/>
      <point x="-13" y="760"/>
      <point x="23" y="712"/>
      <point x="97" y="712" type="curve" smooth="yes"/>
      <point x="144" y="712"/>
      <point x="163" y="722"/>
      <point x="199" y="722" type="curve" smooth="yes"/>
      <point x="238" y="722"/>
      <point x="261" y="688"/>
    </contour>
    <contour>
      <point x="343" y="-45" type="curve"/>
      <point x="368" y="-12" type="line"/>
      <point x="302" y="70"/>
      <point x="218" y="163"/>
      <point x="133" y="189" type="curve"/>
      <point x="96" y="167" type="line"/>
      <point x="114" y="159"/>
      <point x="136" y="158"/>
      <point x="158" y="158" type="curve" smooth="yes"/>
      <point x="245" y="158"/>
      <point x="320" y="220"/>
      <point x="320" y="333" type="curve" smooth="yes"/>
      <point x="320" y="434"/>
      <point x="266" y="508"/>
      <point x="144" y="508" type="curve" smooth="yes"/>
      <point x="76" y="508"/>
      <point x="36" y="474"/>
      <point x="36" y="414" type="curve" smooth="yes"/>
      <point x="36" y="363"/>
      <point x="64" y="331"/>
      <point x="108" y="331" type="curve" smooth="yes"/>
      <point x="160" y="331"/>
      <point x="183" y="376"/>
      <point x="183" y="432" type="curve" smooth="yes"/>
      <point x="183" y="483"/>
      <point x="151" y="544"/>
      <point x="125" y="578" type="curve"/>
      <point x="37" y="578" type="line"/>
      <point x="79" y="558"/>
      <point x="113" y="520"/>
      <point x="132" y="468" type="curve"/>
      <point x="128" y="408" type="line"/>
      <point x="142" y="429"/>
      <point x="169" y="444"/>
      <point x="190" y="444" type="curve" smooth="yes"/>
      <point x="239" y="444"/>
      <point x="267" y="404"/>
      <point x="267" y="350" type="curve" smooth="yes"/>
      <point x="267" y="269"/>
      <point x="212" y="229"/>
      <point x="130" y="229" type="curve" smooth="yes"/>
      <point x="86" y="229"/>
      <point x="50" y="238"/>
      <point x="25" y="254" type="curve"/>
      <point x="45" y="159" type="line"/>
      <point x="154" y="134"/>
      <point x="233" y="77"/>
    </contour>
    <contour>
      <point x="3" y="570" type="line"/>
      <point x="382" y="570" type="line"/>
      <point x="354" y="622" type="line"/>
      <point x="-25" y="622" type="line"/>
    </contour>
  </outline>
</glyph>
<glyph name="ii-beng" format="2">
  <advance width="494"/>
  <unicode hex="0988"/>
  <anchor x="425" y="-12" name="bottom"/>
  <anchor x="426" y="70" name="bottom.rakaar"/>
  <anchor x="412" y="17" name="bottom.rvocalic"/>
  <anchor x="413" y="0" name="bottom.virama"/>
  <anchor x="296" y="617" name="top"/>
  <anchor x="260" y="622" name="topright"/>
  <outline>
    <contour>
      <point x="395" y="-8" type="curve"/>
      <point x="433" y="4" type="line"/>
      <point x="416" y="64"/>
      <point x="407" y="124"/>
      <point x="407" y="184" type="curve" smooth="yes"/>
      <point x="407" y="265"/>
      <point x="423" y="344"/>
      <point x="459" y="418" type="curve"/>
      <point x="377" y="482" type="line"/>
      <point x="325" y="427"/>
      <point x="295" y="372"/>
      <point x="268" y="304" type="curve"/>
      <point x="276" y="308" type="line"/>
      <point x="279" y="321"/>
      <point x="280" y="339"/>
      <point x="280" y="349" type="curve" smooth="yes"/>
      <point x="280" y="435"/>
      <point x="244" y="508"/>
      <point x="142" y="508" type="curve" smooth="yes"/>
      <point x="78" y="508"/>
      <point x="45" y="475"/>
      <point x="45" y="421" type="curve" smooth="yes"/>
      <point x="45" y="374"/>
      <point x="71" y="342"/>
      <point x="112" y="342" type="curve" smooth="yes"/>
      <point x="156" y="342"/>
      <point x="182" y="376"/>
      <point x="182" y="433" type="curve" smooth="yes"/>
      <point x="182" y="476"/>
      <point x="153" y="544"/>
      <point x="128" y="577" type="curve"/>
      <point x="38" y="577" type="line"/>
      <point x="75" y="559"/>
      <point x="115" y="521"/>
      <point x="133" y="468" type="curve"/>
      <point x="105" y="409" type="line"/>
      <point x="126" y="428"/>
      <point x="148" y="438"/>
      <point x="172" y="438" type="curve" smooth="yes"/>
      <point x="218" y="438"/>
      <point x="239" y="399"/>
      <point x="239" y="344" type="curve" smooth="yes"/>
      <point x="239" y="311"/>
      <point x="233" y="267"/>
      <point x="219" y="237" type="curve" smooth="yes"/>
      <point x="203" y="202"/>
      <point x="181" y="186"/>
      <point x="154" y="186" type="curve" smooth="yes"/>
      <point x="126" y="186"/>
      <point x="100" y="210"/>
      <point x="80" y="260" type="curve"/>
      <point x="48" y="245" type="line"/>
      <point x="82" y="141"/>
      <point x="125" y="107"/>
      <point x="170" y="107" type="curve" smooth="yes"/>
      <point x="222" y="107"/>
      <point x="254" y="143"/>
      <point x="294" y="219" type="curve" smooth="yes"/>
      <point x="327" y="282"/>
      <point x="344" y="323"/>
      <point x="393" y="398" type="curve"/>
      <point x="387" y="417" type="line"/>
      <point x="365" y="355"/>
      <point x="354" y="289"/>
      <point x="354" y="219" type="curve" smooth="yes"/>
      <point x="354" y="141"/>
      <point x="370" y="65"/>
    </contour>
    <contour>
      <point x="2" y="570" type="line"/>
      <point x="519" y="570" type="line"/>
      <point x="492" y="622" type="line"/>
      <point x="-25" y="622" type="line"/>
    </contour>
    <contour>
      <point x="376" y="612" type="curve"/>
      <point x="415" y="612" type="line"/>
      <point x="406" y="739"/>
      <point x="371" y="805"/>
      <point x="285" y="805" type="curve" smooth="yes"/>
      <point x="243" y="805"/>
      <point x="211" y="796"/>
      <point x="164" y="796" type="curve" smooth="yes"/>
      <point x="104" y="796"/>
      <point x="77" y="809"/>
      <point x="77" y="888" type="curve" smooth="yes"/>
      <point x="77" y="893"/>
      <point x="77" y="902"/>
      <point x="79" y="913" type="curve"/>
      <point x="45" y="917" type="line"/>
      <point x="42" y="899"/>
      <point x="40" y="884"/>
      <point x="40" y="867" type="curve" smooth="yes"/>
      <point x="40" y="766"/>
      <point x="83" y="710"/>
      <point x="169" y="710" type="curve" smooth="yes"/>
      <point x="222" y="710"/>
      <point x="267" y="720"/>
      <point x="304" y="720" type="curve" smooth="yes"/>
      <point x="350" y="720"/>
      <point x="370" y="687"/>
    </contour>
  </outline>
</glyph>
<glyph name="u-beng" format="2">
  <advance width="439"/>
  <unicode hex="0989"/>
  <anchor x="337" y="34" name="bottom"/>
  <anchor x="376" y="-7" name="bottom.rakaar"/>
  <anchor x="323" y="59" name="bottom.rvocalic"/>
  <anchor x="281" y="15" name="bottom.virama"/>
  <anchor x="234" y="-62" name="nukta"/>
  <anchor x="266" y="617" name="top"/>
  <anchor x="222" y="623" name="topright"/>
  <outline>
    <contour>
      <point x="349" y="612" type="curve"/>
      <point x="388" y="612" type="line"/>
      <point x="382" y="737"/>
      <point x="341" y="801"/>
      <point x="262" y="801" type="curve" smooth="yes"/>
      <point x="222" y="801"/>
      <point x="193" y="792"/>
      <point x="151" y="792" type="curve" smooth="yes"/>
      <point x="94" y="792"/>
      <point x="70" y="814"/>
      <point x="70" y="870" type="curve" smooth="yes"/>
      <point x="70" y="880"/>
      <point x="71" y="896"/>
      <point x="73" y="912" type="curve"/>
      <point x="35" y="916" type="line"/>
      <point x="32" y="895"/>
      <point x="31" y="880"/>
      <point x="31" y="857" type="curve" smooth="yes"/>
      <point x="31" y="765"/>
      <point x="73" y="712"/>
      <point x="158" y="712" type="curve" smooth="yes"/>
      <point x="207" y="712"/>
      <point x="239" y="722"/>
      <point x="274" y="722" type="curve" smooth="yes"/>
      <point x="320" y="722"/>
      <point x="342" y="687"/>
    </contour>
    <contour>
      <point x="257" y="50" type="curve" smooth="yes"/>
      <point x="366" y="50"/>
      <point x="419" y="142"/>
      <point x="419" y="262" type="curve" smooth="yes"/>
      <point x="419" y="358"/>
      <point x="385" y="424"/>
      <point x="340" y="469" type="curve"/>
      <point x="316" y="403"/>
      <point x="271" y="353"/>
      <point x="237" y="353" type="curve" smooth="yes"/>
      <point x="224" y="353"/>
      <point x="215" y="363"/>
      <point x="215" y="381" type="curve" smooth="yes"/>
      <point x="215" y="570" type="line"/>
      <point x="464" y="570" type="line"/>
      <point x="435" y="622" type="line"/>
      <point x="-25" y="622" type="line"/>
      <point x="3" y="570" type="line"/>
      <point x="164" y="570" type="line"/>
      <point x="164" y="379" type="line" smooth="yes"/>
      <point x="164" y="348"/>
      <point x="171" y="324"/>
      <point x="190" y="305" type="curve" smooth="yes"/>
      <point x="207" y="288"/>
      <point x="227" y="280"/>
      <point x="250" y="280" type="curve" smooth="yes"/>
      <point x="299" y="280"/>
      <point x="350" y="326"/>
      <point x="382" y="393" type="curve"/>
      <point x="342" y="368" type="line"/>
      <point x="360" y="350"/>
      <point x="373" y="323"/>
      <point x="373" y="280" type="curve" smooth="yes"/>
      <point x="373" y="194"/>
      <point x="328" y="135"/>
      <point x="257" y="135" type="curve" smooth="yes"/>
      <point x="137" y="135"/>
      <point x="82" y="245"/>
      <point x="47" y="486" type="curve"/>
      <point x="9" y="480" type="line"/>
      <point x="43" y="176"/>
      <point x="124" y="50"/>
    </contour>
  </outline>
</glyph>
<glyph name="uu-beng" format="2">
  <advance width="500"/>
  <unicode hex="098A"/>
  <anchor x="393" y="34" name="bottom"/>
  <anchor x="432" y="-6" name="bottom.rakaar"/>
  <anchor x="379" y="58" name="bottom.rvocalic"/>
  <anchor x="335" y="14" name="bottom.virama"/>
  <anchor x="305" y="617" name="top"/>
  <anchor x="286" y="622" name="topright"/>
  <outline>
    <contour>
      <point x="314" y="50" type="curve" smooth="yes"/>
      <point x="427" y="50"/>
      <point x="480" y="142"/>
      <point x="480" y="262" type="curve" smooth="yes"/>
      <point x="480" y="358"/>
      <point x="446" y="424"/>
      <point x="401" y="469" type="curve"/>
      <point x="377" y="403"/>
      <point x="332" y="353"/>
      <point x="298" y="353" type="curve" smooth="yes"/>
      <point x="285" y="353"/>
      <point x="276" y="363"/>
      <point x="276" y="381" type="curve" smooth="yes"/>
      <point x="276" y="570" type="line"/>
      <point x="525" y="570" type="line"/>
      <point x="496" y="622" type="line"/>
      <point x="-25" y="622" type="line"/>
      <point x="3" y="570" type="line"/>
      <point x="225" y="570" type="line"/>
      <point x="225" y="379" type="line" smooth="yes"/>
      <point x="225" y="348"/>
      <point x="232" y="324"/>
      <point x="251" y="305" type="curve" smooth="yes"/>
      <point x="268" y="288"/>
      <point x="288" y="280"/>
      <point x="311" y="280" type="curve" smooth="yes"/>
      <point x="360" y="280"/>
      <point x="411" y="326"/>
      <point x="443" y="393" type="curve"/>
      <point x="403" y="368" type="line"/>
      <point x="421" y="350"/>
      <point x="434" y="323"/>
      <point x="434" y="280" type="curve" smooth="yes"/>
      <point x="434" y="194"/>
      <point x="390" y="135"/>
      <point x="318" y="135" type="curve" smooth="yes"/>
      <point x="207" y="135"/>
      <point x="171" y="292"/>
      <point x="129" y="502" type="curve"/>
      <point x="93" y="490" type="line"/>
      <point x="121" y="307"/>
      <point x="149" y="195"/>
      <point x="201" y="129" type="curve"/>
      <point x="226" y="127" type="line"/>
      <point x="149" y="158"/>
      <point x="95" y="279"/>
      <point x="47" y="502" type="curve"/>
      <point x="11" y="490" type="line"/>
      <point x="62" y="187"/>
      <point x="161" y="50"/>
    </contour>
    <contour>
      <point x="408" y="612" type="curve"/>
      <point x="446" y="612" type="line"/>
      <point x="437" y="739"/>
      <point x="395" y="809"/>
      <point x="307" y="809" type="curve" smooth="yes"/>
      <point x="253" y="809"/>
      <point x="219" y="792"/>
      <point x="152" y="792" type="curve" smooth="yes"/>
      <point x="95" y="792"/>
      <point x="71" y="814"/>
      <point x="71" y="870" type="curve" smooth="yes"/>
      <point x="71" y="880"/>
      <point x="72" y="896"/>
      <point x="74" y="912" type="curve"/>
      <point x="36" y="916" type="line"/>
      <point x="33" y="895"/>
      <point x="32" y="880"/>
      <point x="32" y="857" type="curve" smooth="yes"/>
      <point x="32" y="765"/>
      <point x="74" y="712"/>
      <point x="159" y="712" type="curve" smooth="yes"/>
      <point x="229" y="712"/>
      <point x="267" y="730"/>
      <point x="321" y="730" type="curve" smooth="yes"/>
      <point x="375" y="730"/>
      <point x="400" y="687"/>
    </contour>
  </outline>
</glyph>
<glyph name="rVocalic-beng" format="2">
  <advance width="552"/>
  <unicode hex="098B"/>
  <anchor x="371" y="0" name="bottom"/>
  <anchor x="371" y="70" name="bottom.rakaar"/>
  <anchor x="307" y="134" name="bottom.rvocalic"/>
  <anchor x="356" y="6" name="bottom.virama"/>
  <anchor x="371" y="570" name="top"/>
  <anchor x="373" y="570" name="topright"/>
  <outline>
    <contour>
      <point x="365" y="-13" type="line"/>
      <point x="371" y="-12" type="line"/>
      <point x="371" y="644" type="line"/>
      <point x="324" y="678" type="line"/>
      <point x="320" y="677" type="line"/>
      <point x="320" y="476" type="line"/>
      <point x="326" y="501" type="line"/>
      <point x="230" y="454"/>
      <point x="140" y="399"/>
      <point x="57" y="342" type="curve"/>
      <point x="111" y="235" type="line"/>
      <point x="213" y="203"/>
      <point x="282" y="134"/>
      <point x="328" y="17" type="curve"/>
    </contour>
    <contour>
      <point x="320" y="78" type="line"/>
      <point x="333" y="74" type="line"/>
      <point x="300" y="201"/>
      <point x="211" y="278"/>
      <point x="126" y="308" type="curve"/>
      <point x="132" y="293" type="line"/>
      <point x="185" y="335"/>
      <point x="267" y="382"/>
      <point x="328" y="411" type="curve"/>
      <point x="320" y="432" type="line"/>
    </contour>
    <contour>
      <point x="107" y="429" type="curve" smooth="yes"/>
      <point x="165" y="429"/>
      <point x="216" y="466"/>
      <point x="251" y="546" type="curve"/>
      <point x="227" y="546" type="line"/>
      <point x="248" y="520"/>
      <point x="267" y="490"/>
      <point x="283" y="444" type="curve"/>
      <point x="315" y="453" type="line"/>
      <point x="291" y="535"/>
      <point x="262" y="585"/>
      <point x="219" y="623" type="curve"/>
      <point x="185" y="539"/>
      <point x="148" y="498"/>
      <point x="112" y="498" type="curve" smooth="yes"/>
      <point x="103" y="498"/>
      <point x="89" y="501"/>
      <point x="84" y="505" type="curve"/>
      <point x="116" y="476" type="line"/>
      <point x="130" y="492"/>
      <point x="135" y="507"/>
      <point x="135" y="532" type="curve" smooth="yes"/>
      <point x="135" y="567"/>
      <point x="115" y="592"/>
      <point x="78" y="592" type="curve" smooth="yes"/>
      <point x="41" y="592"/>
      <point x="17" y="566"/>
      <point x="17" y="521" type="curve" smooth="yes"/>
      <point x="17" y="460"/>
      <point x="63" y="429"/>
    </contour>
    <contour>
      <point x="479" y="87" type="line"/>
      <point x="485" y="88" type="line"/>
      <point x="485" y="570" type="line"/>
      <point x="577" y="570" type="line"/>
      <point x="549" y="622" type="line"/>
      <point x="482" y="622" type="line"/>
      <point x="477" y="665" type="line"/>
      <point x="438" y="698" type="line"/>
      <point x="434" y="697" type="line"/>
      <point x="434" y="178" type="line"/>
      <point x="447" y="174" type="line"/>
      <point x="428" y="248"/>
      <point x="390" y="305"/>
      <point x="345" y="345" type="curve"/>
      <point x="342" y="269" type="line"/>
      <point x="384" y="232"/>
      <point x="416" y="182"/>
      <point x="442" y="117" type="curve"/>
    </contour>
  </outline>
</glyph>
<glyph name="lVocalic-beng" format="2">
  <advance width="385"/>
  <unicode hex="098C"/>
  <anchor x="286" y="570" name="top"/>
  <outline>
    <contour>
      <point x="220" y="18" type="line"/>
      <point x="292" y="40"/>
      <point x="369" y="146"/>
      <point x="369" y="284" type="curve" smooth="yes"/>
      <point x="369" y="420"/>
      <point x="315" y="472"/>
      <point x="205" y="507" type="curve" smooth="yes"/>
      <point x="141" y="527"/>
      <point x="96" y="543"/>
      <point x="96" y="616" type="curve" smooth="yes"/>
      <point x="96" y="645"/>
      <point x="105" y="672"/>
      <point x="115" y="698" type="curve"/>
      <point x="77" y="712" type="line"/>
      <point x="61" y="675"/>
      <point x="49" y="633"/>
      <point x="49" y="588" type="curve" smooth="yes"/>
      <point x="49" y="482"/>
      <point x="104" y="446"/>
      <point x="196" y="420" type="curve" smooth="yes"/>
      <point x="279" y="396"/>
      <point x="324" y="372"/>
      <point x="324" y="265" type="curve" smooth="yes"/>
      <point x="324" y="195"/>
      <point x="295" y="120"/>
      <point x="254" y="105" type="curve"/>
      <point x="282" y="86" type="line"/>
      <point x="283" y="199"/>
      <point x="242" y="315"/>
      <point x="149" y="315" type="curve" smooth="yes"/>
      <point x="76" y="315"/>
      <point x="35" y="251"/>
      <point x="35" y="172" type="curve" smooth="yes"/>
      <point x="35" y="84"/>
      <point x="74" y="36"/>
      <point x="122" y="36" type="curve" smooth="yes"/>
      <point x="162" y="36"/>
      <point x="180" y="70"/>
      <point x="180" y="105" type="curve" smooth="yes"/>
      <point x="180" y="143"/>
      <point x="157" y="168"/>
      <point x="125" y="168" type="curve" smooth="yes"/>
      <point x="99" y="168"/>
      <point x="75" y="145"/>
      <point x="75" y="117" type="curve"/>
      <point x="110" y="118" type="line"/>
      <point x="95" y="127"/>
      <point x="82" y="147"/>
      <point x="82" y="182" type="curve" smooth="yes"/>
      <point x="82" y="219"/>
      <point x="103" y="251"/>
      <point x="138" y="251" type="curve" smooth="yes"/>
      <point x="197" y="251"/>
      <point x="217" y="160"/>
      <point x="217" y="73" type="curve" smooth="yes"/>
      <point x="217" y="55"/>
      <point x="217" y="38"/>
      <point x="215" y="22" type="curve"/>
    </contour>
  </outline>
</glyph>
<glyph name="e-beng" format="2">
  <advance width="494"/>
  <unicode hex="098F"/>
  <anchor x="433" y="0" name="bottom"/>
  <anchor x="433" y="3" name="bottom.rvocalic"/>
  <anchor x="419" y="6" name="bottom.virama"/>
  <anchor x="357" y="570" name="top"/>
  <anchor x="360" y="570" name="topright"/>
  <outline>
    <contour>
      <point x="423" y="-13" type="line"/>
      <point x="429" y="-12" type="line"/>
      <point x="429" y="513" type="line" smooth="yes"/>
      <point x="429" y="588"/>
      <point x="394" y="632"/>
      <point x="340" y="632" type="curve" smooth="yes"/>
      <point x="243" y="632"/>
      <point x="156" y="497"/>
      <point x="156" y="388" type="curve" smooth="yes"/>
      <point x="156" y="312"/>
      <point x="196" y="272"/>
      <point x="242" y="270" type="curve" smooth="yes"/>
      <point x="297" y="268"/>
      <point x="320" y="306"/>
      <point x="320" y="351" type="curve" smooth="yes"/>
      <point x="320" y="391"/>
      <point x="299" y="428"/>
      <point x="259" y="428" type="curve" smooth="yes"/>
      <point x="244" y="428"/>
      <point x="226" y="420"/>
      <point x="217" y="398" type="curve"/>
      <point x="239" y="397" type="line"/>
      <point x="239" y="473"/>
      <point x="295" y="576"/>
      <point x="341" y="576" type="curve" smooth="yes"/>
      <point x="372" y="576"/>
      <point x="378" y="543"/>
      <point x="378" y="506" type="curve" smooth="yes"/>
      <point x="378" y="185" type="line" smooth="yes"/>
      <point x="378" y="156"/>
      <point x="380" y="120"/>
      <point x="384" y="85" type="curve"/>
      <point x="361" y="142"/>
      <point x="320" y="158"/>
      <point x="281" y="158" type="curve" smooth="yes"/>
      <point x="240" y="158"/>
      <point x="217" y="153"/>
      <point x="169" y="153" type="curve" smooth="yes"/>
      <point x="118" y="153"/>
      <point x="79" y="181"/>
      <point x="79" y="264" type="curve" smooth="yes"/>
      <point x="79" y="308"/>
      <point x="84" y="338"/>
      <point x="89" y="360" type="curve"/>
      <point x="48" y="366" type="line"/>
      <point x="41" y="334"/>
      <point x="35" y="292"/>
      <point x="35" y="251" type="curve" smooth="yes"/>
      <point x="35" y="106"/>
      <point x="109" y="70"/>
      <point x="180" y="70" type="curve" smooth="yes"/>
      <point x="231" y="70"/>
      <point x="256" y="79"/>
      <point x="300" y="79" type="curve" smooth="yes"/>
      <point x="346" y="79"/>
      <point x="367" y="64"/>
      <point x="390" y="14" type="curve"/>
    </contour>
  </outline>
</glyph>
<glyph name="ai-beng" format="2">
  <advance width="568"/>
  <unicode hex="0990"/>
  <anchor x="433" y="0" name="bottom"/>
  <anchor x="433" y="3" name="bottom.rvocalic"/>
  <anchor x="419" y="6" name="bottom.virama"/>
  <anchor x="377" y="600" name="top"/>
  <anchor x="347" y="602" name="topright"/>
  <outline>
    <contour>
      <point x="422" y="334" type="line"/>
      <point x="469" y="384"/>
      <point x="514" y="456"/>
      <point x="513" y="571" type="curve" smooth="yes"/>
      <point x="511" y="727"/>
      <point x="420" y="755"/>
      <point x="317" y="772" type="curve" smooth="yes"/>
      <point x="234" y="786"/>
      <point x="172" y="798"/>
      <point x="172" y="884" type="curve" smooth="yes"/>
      <point x="172" y="914"/>
      <point x="179" y="944"/>
      <point x="188" y="968" type="curve"/>
      <point x="152" y="982" type="line"/>
      <point x="138" y="948"/>
      <point x="127" y="907"/>
      <point x="127" y="865" type="curve" smooth="yes"/>
      <point x="127" y="741"/>
      <point x="207" y="716"/>
      <point x="304" y="701" type="curve" smooth="yes"/>
      <point x="397" y="687"/>
      <point x="472" y="674"/>
      <point x="472" y="557" type="curve" smooth="yes"/>
      <point x="472" y="482"/>
      <point x="445" y="435"/>
      <point x="405" y="394" type="curve"/>
    </contour>
    <contour>
      <point x="423" y="-13" type="line"/>
      <point x="429" y="-12" type="line"/>
      <point x="429" y="513" type="line" smooth="yes"/>
      <point x="429" y="588"/>
      <point x="394" y="632"/>
      <point x="340" y="632" type="curve" smooth="yes"/>
      <point x="243" y="632"/>
      <point x="156" y="497"/>
      <point x="156" y="388" type="curve" smooth="yes"/>
      <point x="156" y="312"/>
      <point x="196" y="272"/>
      <point x="242" y="270" type="curve" smooth="yes"/>
      <point x="297" y="268"/>
      <point x="320" y="306"/>
      <point x="320" y="351" type="curve" smooth="yes"/>
      <point x="320" y="391"/>
      <point x="299" y="428"/>
      <point x="259" y="428" type="curve" smooth="yes"/>
      <point x="244" y="428"/>
      <point x="226" y="420"/>
      <point x="217" y="398" type="curve"/>
      <point x="239" y="397" type="line"/>
      <point x="239" y="473"/>
      <point x="295" y="576"/>
      <point x="341" y="576" type="curve" smooth="yes"/>
      <point x="372" y="576"/>
      <point x="378" y="543"/>
      <point x="378" y="506" type="curve" smooth="yes"/>
      <point x="378" y="185" type="line" smooth="yes"/>
      <point x="378" y="156"/>
      <point x="380" y="120"/>
      <point x="384" y="85" type="curve"/>
      <point x="361" y="142"/>
      <point x="320" y="158"/>
      <point x="281" y="158" type="curve" smooth="yes"/>
      <point x="240" y="158"/>
      <point x="217" y="153"/>
      <point x="169" y="153" type="curve" smooth="yes"/>
      <point x="118" y="153"/>
      <point x="79" y="181"/>
      <point x="79" y="264" type="curve" smooth="yes"/>
      <point x="79" y="308"/>
      <point x="84" y="338"/>
      <point x="89" y="360" type="curve"/>
      <point x="48" y="366" type="line"/>
      <point x="41" y="334"/>
      <point x="35" y="292"/>
      <point x="35" y="251" type="curve" smooth="yes"/>
      <point x="35" y="106"/>
      <point x="109" y="70"/>
      <point x="180" y="70" type="curve" smooth="yes"/>
      <point x="231" y="70"/>
      <point x="256" y="79"/>
      <point x="300" y="79" type="curve" smooth="yes"/>
      <point x="346" y="79"/>
      <point x="367" y="64"/>
      <point x="390" y="14" type="curve"/>
    </contour>
  </outline>
</glyph>
<glyph name="o-beng" format="2">
  <advance width="532"/>
  <unicode hex="0993"/>
  <anchor x="396" y="39" name="bottom"/>
  <anchor x="435" y="-1" name="bottom.rakaar"/>
  <anchor x="383" y="63" name="bottom.rvocalic"/>
  <anchor x="340" y="19" name="bottom.virama"/>
  <anchor x="341" y="570" name="top"/>
  <anchor x="343" y="570" name="topright"/>
  <outline>
    <contour>
      <point x="326" y="55" type="curve" smooth="yes"/>
      <point x="433" y="55"/>
      <point x="486" y="131"/>
      <point x="486" y="231" type="curve" smooth="yes"/>
      <point x="486" y="339"/>
      <point x="412" y="416"/>
      <point x="359" y="416" type="curve" smooth="yes"/>
      <point x="325" y="416"/>
      <point x="302" y="390"/>
      <point x="302" y="348" type="curve" smooth="yes"/>
      <point x="302" y="306"/>
      <point x="324" y="278"/>
      <point x="361" y="278" type="curve" smooth="yes"/>
      <point x="420" y="278"/>
      <point x="469" y="393"/>
      <point x="469" y="486" type="curve" smooth="yes"/>
      <point x="469" y="574"/>
      <point x="422" y="631"/>
      <point x="340" y="631" type="curve" smooth="yes"/>
      <point x="243" y="631"/>
      <point x="148" y="529"/>
      <point x="148" y="420" type="curve" smooth="yes"/>
      <point x="148" y="355"/>
      <point x="181" y="323"/>
      <point x="220" y="323" type="curve" smooth="yes"/>
      <point x="256" y="323"/>
      <point x="282" y="348"/>
      <point x="282" y="398" type="curve" smooth="yes"/>
      <point x="282" y="433"/>
      <point x="262" y="460"/>
      <point x="235" y="460" type="curve" smooth="yes"/>
      <point x="219" y="460"/>
      <point x="202" y="455"/>
      <point x="194" y="442" type="curve"/>
      <point x="231" y="430" type="line"/>
      <point x="235" y="512"/>
      <point x="290" y="581"/>
      <point x="359" y="581" type="curve" smooth="yes"/>
      <point x="396" y="581"/>
      <point x="413" y="549"/>
      <point x="413" y="503" type="curve" smooth="yes"/>
      <point x="413" y="455"/>
      <point x="394" y="421"/>
      <point x="359" y="390" type="curve"/>
      <point x="373" y="337" type="line"/>
      <point x="401" y="337"/>
      <point x="439" y="308"/>
      <point x="439" y="247" type="curve" smooth="yes"/>
      <point x="439" y="183"/>
      <point x="402" y="140"/>
      <point x="329" y="140" type="curve" smooth="yes"/>
      <point x="208" y="140"/>
      <point x="125" y="239"/>
      <point x="65" y="547" type="curve"/>
      <point x="25" y="538" type="line"/>
      <point x="82" y="189"/>
      <point x="191" y="55"/>
    </contour>
  </outline>
</glyph>
<glyph name="au-beng" format="2">
  <advance width="588"/>
  <unicode hex="0994"/>
  <anchor x="510" y="39" name="bottom"/>
  <anchor x="558" y="-1" name="bottom.rakaar"/>
  <anchor x="486" y="63" name="bottom.rvocalic"/>
  <anchor x="426" y="19" name="bottom.virama"/>
  <anchor x="530" y="600" name="top"/>
  <anchor x="474" y="602" name="topright"/>
  <outline>
    <contour>
      <point x="442" y="334" type="line"/>
      <point x="489" y="384"/>
      <point x="534" y="456"/>
      <point x="533" y="571" type="curve" smooth="yes"/>
      <point x="532" y="727"/>
      <point x="440" y="755"/>
      <point x="337" y="772" type="curve" smooth="yes"/>
      <point x="254" y="786"/>
      <point x="192" y="798"/>
      <point x="192" y="884" type="curve" smooth="yes"/>
      <point x="192" y="914"/>
      <point x="199" y="944"/>
      <point x="208" y="968" type="curve"/>
      <point x="172" y="982" type="line"/>
      <point x="158" y="948"/>
      <point x="147" y="907"/>
      <point x="147" y="865" type="curve" smooth="yes"/>
      <point x="147" y="741"/>
      <point x="227" y="716"/>
      <point x="324" y="701" type="curve" smooth="yes"/>
      <point x="417" y="687"/>
      <point x="492" y="674"/>
      <point x="492" y="557" type="curve" smooth="yes"/>
      <point x="492" y="482"/>
      <point x="465" y="435"/>
      <point x="425" y="394" type="curve"/>
    </contour>
    <contour>
      <point x="326" y="55" type="curve" smooth="yes"/>
      <point x="433" y="55"/>
      <point x="486" y="131"/>
      <point x="486" y="231" type="curve" smooth="yes"/>
      <point x="486" y="339"/>
      <point x="412" y="416"/>
      <point x="359" y="416" type="curve" smooth="yes"/>
      <point x="325" y="416"/>
      <point x="302" y="390"/>
      <point x="302" y="348" type="curve" smooth="yes"/>
      <point x="302" y="306"/>
      <point x="324" y="278"/>
      <point x="361" y="278" type="curve" smooth="yes"/>
      <point x="420" y="278"/>
      <point x="469" y="393"/>
      <point x="469" y="486" type="curve" smooth="yes"/>
      <point x="469" y="574"/>
      <point x="422" y="631"/>
      <point x="340" y="631" type="curve" smooth="yes"/>
      <point x="243" y="631"/>
      <point x="148" y="529"/>
      <point x="148" y="420" type="curve" smooth="yes"/>
      <point x="148" y="355"/>
      <point x="181" y="323"/>
      <point x="220" y="323" type="curve" smooth="yes"/>
      <point x="256" y="323"/>
      <point x="282" y="348"/>
      <point x="282" y="398" type="curve" smooth="yes"/>
      <point x="282" y="433"/>
      <point x="262" y="460"/>
      <point x="235" y="460" type="curve" smooth="yes"/>
      <point x="219" y="460"/>
      <point x="202" y="455"/>
      <point x="194" y="442" type="curve"/>
      <point x="231" y="430" type="line"/>
      <point x="235" y="512"/>
      <point x="290" y="581"/>
      <point x="359" y="581" type="curve" smooth="yes"/>
      <point x="396" y="581"/>
      <point x="413" y="549"/>
      <point x="413" y="503" type="curve" smooth="yes"/>
      <point x="413" y="455"/>
      <point x="394" y="421"/>
      <point x="359" y="390" type="curve"/>
      <point x="373" y="337" type="line"/>
      <point x="401" y="337"/>
      <point x="439" y="308"/>
      <point x="439" y="247" type="curve" smooth="yes"/>
      <point x="439" y="183"/>
      <point x="402" y="140"/>
      <point x="329" y="140" type="curve" smooth="yes"/>
      <point x="208" y="140"/>
      <point x="125" y="239"/>
      <point x="65" y="547" type="curve"/>
      <point x="25" y="538" type="line"/>
      <point x="82" y="189"/>
      <point x="191" y="55"/>
    </contour>
  </outline>
</glyph>
<glyph name="kha-beng" format="2">
  <advance width="461"/>
  <unicode hex="0996"/>
  <anchor x="389" y="30" name="bottom"/>
  <anchor x="394" y="70" name="bottom.rakaar"/>
  <anchor x="394" y="12" name="bottom.rvocalic"/>
  <anchor x="380" y="6" name="bottom.virama"/>
  <anchor x="383" y="560" name="top"/>
  <anchor x="368" y="552" name="topright"/>
  <outline>
    <contour>
      <point x="389" y="-13" type="line"/>
      <point x="394" y="-12" type="line"/>
      <point x="394" y="570" type="line"/>
      <point x="486" y="570" type="line"/>
      <point x="458" y="622" type="line"/>
      <point x="391" y="622" type="line"/>
      <point x="386" y="665" type="line"/>
      <point x="347" y="698" type="line"/>
      <point x="343" y="697" type="line"/>
      <point x="343" y="81" type="line"/>
      <point x="353" y="87" type="line"/>
      <point x="319" y="195"/>
      <point x="250" y="264"/>
      <point x="178" y="295" type="curve"/>
      <point x="181" y="280" type="line"/>
      <point x="256" y="300"/>
      <point x="299" y="349"/>
      <point x="299" y="443" type="curve" smooth="yes"/>
      <point x="299" y="531"/>
      <point x="254" y="587"/>
      <point x="213" y="623" type="curve"/>
      <point x="185" y="539"/>
      <point x="148" y="498"/>
      <point x="112" y="498" type="curve" smooth="yes"/>
      <point x="103" y="498"/>
      <point x="89" y="501"/>
      <point x="84" y="505" type="curve"/>
      <point x="116" y="476" type="line"/>
      <point x="130" y="492"/>
      <point x="135" y="507"/>
      <point x="135" y="532" type="curve" smooth="yes"/>
      <point x="135" y="567"/>
      <point x="115" y="592"/>
      <point x="78" y="592" type="curve" smooth="yes"/>
      <point x="41" y="592"/>
      <point x="17" y="566"/>
      <point x="17" y="521" type="curve" smooth="yes"/>
      <point x="17" y="458"/>
      <point x="63" y="427"/>
      <point x="107" y="427" type="curve" smooth="yes"/>
      <point x="165" y="427"/>
      <point x="214" y="466"/>
      <point x="249" y="546" type="curve"/>
      <point x="220" y="542" type="line"/>
      <point x="236" y="521"/>
      <point x="249" y="498"/>
      <point x="249" y="461" type="curve" smooth="yes"/>
      <point x="249" y="373"/>
      <point x="174" y="346"/>
      <point x="89" y="341" type="curve"/>
      <point x="122" y="234" type="line"/>
      <point x="223" y="217"/>
      <point x="299" y="143"/>
      <point x="349" y="24" type="curve"/>
    </contour>
  </outline>
</glyph>
<glyph name="ga-beng" format="2">
  <advance width="453"/>
  <unicode hex="0997"/>
  <anchor x="376" y="59" name="bottom"/>
  <anchor x="386" y="-3" name="bottom.rakaar"/>
  <anchor x="386" y="-2" name="bottom.rvocalic"/>
  <anchor x="367" y="6" name="bottom.virama"/>
  <anchor x="375" y="560" name="top"/>
  <anchor x="360" y="552" name="topright"/>
  <outline>
    <contour>
      <point x="382" y="-25" type="line"/>
      <point x="386" y="-24" type="line"/>
      <point x="386" y="570" type="line"/>
      <point x="478" y="570" type="line"/>
      <point x="450" y="622" type="line"/>
      <point x="383" y="622" type="line"/>
      <point x="378" y="665" type="line"/>
      <point x="339" y="698" type="line"/>
      <point x="335" y="697" type="line"/>
      <point x="335" y="585" type="line" smooth="yes"/>
      <point x="335" y="529"/>
      <point x="337" y="489"/>
      <point x="342" y="435" type="curve"/>
      <point x="349" y="435" type="line"/>
      <point x="302" y="573"/>
      <point x="240" y="629"/>
      <point x="169" y="629" type="curve" smooth="yes"/>
      <point x="104" y="629"/>
      <point x="37" y="576"/>
      <point x="1" y="436" type="curve"/>
      <point x="86" y="384" type="line"/>
      <point x="101" y="412"/>
      <point x="127" y="430"/>
      <point x="155" y="430" type="curve" smooth="yes"/>
      <point x="184" y="430"/>
      <point x="200" y="409"/>
      <point x="200" y="380" type="curve" smooth="yes"/>
      <point x="200" y="331"/>
      <point x="155" y="296"/>
      <point x="89" y="263" type="curve"/>
      <point x="138" y="178" type="line"/>
      <point x="224" y="236"/>
      <point x="259" y="293"/>
      <point x="259" y="362" type="curve" smooth="yes"/>
      <point x="259" y="429"/>
      <point x="222" y="481"/>
      <point x="161" y="481" type="curve" smooth="yes"/>
      <point x="129" y="481"/>
      <point x="100" y="468"/>
      <point x="85" y="449" type="curve"/>
      <point x="97" y="444" type="line"/>
      <point x="110" y="527"/>
      <point x="152" y="558"/>
      <point x="190" y="558" type="curve" smooth="yes"/>
      <point x="240" y="558"/>
      <point x="292" y="510"/>
      <point x="341" y="358" type="curve"/>
      <point x="335" y="420" type="line"/>
      <point x="335" y="3" type="line"/>
    </contour>
  </outline>
</glyph>
<glyph name="nga-beng" format="2">
  <advance width="443"/>
  <unicode hex="0999"/>
  <anchor x="306" y="24" name="bottom"/>
  <anchor x="387" y="-20" name="bottom.rakaar"/>
  <anchor x="321" y="20" name="bottom.rvocalic"/>
  <anchor x="290" y="0" name="bottom.virama"/>
  <anchor x="265" y="570" name="top"/>
  <anchor x="254" y="570" name="topright"/>
  <outline>
    <contour>
      <point x="269" y="36" type="curve" smooth="yes"/>
      <point x="368" y="36"/>
      <point x="429" y="108"/>
      <point x="429" y="241" type="curve" smooth="yes"/>
      <point x="429" y="320"/>
      <point x="401" y="385"/>
      <point x="361" y="436" type="curve"/>
      <point x="338" y="361"/>
      <point x="287" y="306"/>
      <point x="243" y="306" type="curve" smooth="yes"/>
      <point x="227" y="306"/>
      <point x="217" y="315"/>
      <point x="217" y="333" type="curve" smooth="yes"/>
      <point x="217" y="462" type="line" smooth="yes"/>
      <point x="217" y="535"/>
      <point x="232" y="580"/>
      <point x="265" y="580" type="curve" smooth="yes"/>
      <point x="287" y="580"/>
      <point x="301" y="562"/>
      <point x="301" y="533" type="curve" smooth="yes"/>
      <point x="301" y="505"/>
      <point x="290" y="476"/>
      <point x="249" y="476" type="curve" smooth="yes"/>
      <point x="176" y="476"/>
      <point x="151" y="524"/>
      <point x="117" y="619" type="curve"/>
      <point x="81" y="602" type="line"/>
      <point x="118" y="494"/>
      <point x="155" y="417"/>
      <point x="249" y="417" type="curve" smooth="yes"/>
      <point x="323" y="417"/>
      <point x="349" y="476"/>
      <point x="349" y="522" type="curve" smooth="yes"/>
      <point x="349" y="584"/>
      <point x="319" y="632"/>
      <point x="262" y="632" type="curve" smooth="yes"/>
      <point x="201" y="632"/>
      <point x="166" y="577"/>
      <point x="166" y="485" type="curve" smooth="yes"/>
      <point x="166" y="333" type="line" smooth="yes"/>
      <point x="166" y="297"/>
      <point x="181" y="273"/>
      <point x="195" y="259" type="curve" smooth="yes"/>
      <point x="213" y="241"/>
      <point x="235" y="232"/>
      <point x="258" y="232" type="curve" smooth="yes"/>
      <point x="308" y="232"/>
      <point x="363" y="278"/>
      <point x="389" y="342" type="curve"/>
      <point x="361" y="336" type="line"/>
      <point x="375" y="313"/>
      <point x="384" y="284"/>
      <point x="384" y="249" type="curve" smooth="yes"/>
      <point x="384" y="163"/>
      <point x="336" y="121"/>
      <point x="265" y="121" type="curve" smooth="yes"/>
      <point x="150" y="121"/>
      <point x="92" y="225"/>
      <point x="48" y="492" type="curve"/>
      <point x="11" y="485" type="line"/>
      <point x="52" y="172"/>
      <point x="126" y="36"/>
    </contour>
  </outline>
</glyph>
<glyph name="cha-beng" format="2">
  <advance width="410"/>
  <unicode hex="099B"/>
  <anchor x="243" y="51" name="bottom"/>
  <anchor x="332" y="-98" name="bottom.rakaar"/>
  <anchor x="293" y="51" name="bottom.rvocalic"/>
  <anchor x="232" y="51" name="bottom.virama"/>
  <anchor x="83" y="570" name="top"/>
  <anchor x="84" y="570" name="topright"/>
  <outline>
    <contour>
      <point x="384" y="-84" type="curve"/>
      <point x="409" y="-51" type="line"/>
      <point x="343" y="31"/>
      <point x="259" y="124"/>
      <point x="174" y="150" type="curve"/>
      <point x="137" y="128" type="line"/>
      <point x="155" y="120"/>
      <point x="177" y="119"/>
      <point x="199" y="119" type="curve" smooth="yes"/>
      <point x="286" y="119"/>
      <point x="364" y="177"/>
      <point x="364" y="313" type="curve" smooth="yes"/>
      <point x="364" y="417"/>
      <point x="300" y="492"/>
      <point x="218" y="492" type="curve" smooth="yes"/>
      <point x="160" y="492"/>
      <point x="118" y="511"/>
      <point x="92" y="570" type="curve"/>
      <point x="89" y="526" type="line"/>
      <point x="112" y="468"/>
      <point x="158" y="429"/>
      <point x="203" y="428" type="curve"/>
      <point x="184" y="460" type="line"/>
      <point x="182" y="366"/>
      <point x="155" y="306"/>
      <point x="125" y="306" type="curve" smooth="yes"/>
      <point x="107" y="306"/>
      <point x="97" y="320"/>
      <point x="97" y="342" type="curve" smooth="yes"/>
      <point x="97" y="570" type="line"/>
      <point x="435" y="570" type="line"/>
      <point x="406" y="622" type="line"/>
      <point x="-25" y="622" type="line"/>
      <point x="3" y="570" type="line"/>
      <point x="46" y="570" type="line"/>
      <point x="46" y="343" type="line" smooth="yes"/>
      <point x="46" y="291"/>
      <point x="82" y="244"/>
      <point x="138" y="244" type="curve" smooth="yes"/>
      <point x="195" y="244"/>
      <point x="246" y="298"/>
      <point x="260" y="467" type="curve"/>
      <point x="231" y="440" type="line"/>
      <point x="267" y="439"/>
      <point x="308" y="412"/>
      <point x="308" y="325" type="curve" smooth="yes"/>
      <point x="308" y="231"/>
      <point x="253" y="190"/>
      <point x="171" y="190" type="curve" smooth="yes"/>
      <point x="127" y="190"/>
      <point x="91" y="199"/>
      <point x="66" y="215" type="curve"/>
      <point x="86" y="120" type="line"/>
      <point x="195" y="95"/>
      <point x="274" y="38"/>
    </contour>
  </outline>
</glyph>
<glyph name="jha-beng" format="2">
  <advance width="510"/>
  <unicode hex="099D"/>
  <anchor x="325" y="30" name="bottom"/>
  <anchor x="323" y="70" name="bottom.rakaar"/>
  <anchor x="329" y="8" name="bottom.rvocalic"/>
  <anchor x="320" y="6" name="bottom.virama"/>
  <anchor x="319" y="570" name="top"/>
  <anchor x="365" y="570" name="topleft"/>
  <anchor x="321" y="570" name="topright"/>
  <outline>
    <contour>
      <point x="323" y="-13" type="line"/>
      <point x="329" y="-12" type="line"/>
      <point x="329" y="622" type="line"/>
      <point x="-25" y="622" type="line"/>
      <point x="3" y="570" type="line"/>
      <point x="278" y="570" type="line"/>
      <point x="278" y="500" type="line"/>
      <point x="284" y="520" type="line"/>
      <point x="188" y="473"/>
      <point x="104" y="417"/>
      <point x="15" y="342" type="curve"/>
      <point x="69" y="235" type="line"/>
      <point x="171" y="203"/>
      <point x="240" y="134"/>
      <point x="286" y="17" type="curve"/>
    </contour>
    <contour>
      <point x="278" y="78" type="line"/>
      <point x="291" y="74" type="line"/>
      <point x="258" y="201"/>
      <point x="169" y="278"/>
      <point x="84" y="308" type="curve"/>
      <point x="90" y="293" type="line"/>
      <point x="149" y="353"/>
      <point x="224" y="395"/>
      <point x="286" y="428" type="curve"/>
      <point x="278" y="452" type="line"/>
    </contour>
    <contour>
      <point x="437" y="87" type="line"/>
      <point x="443" y="88" type="line"/>
      <point x="443" y="570" type="line"/>
      <point x="535" y="570" type="line"/>
      <point x="507" y="622" type="line"/>
      <point x="440" y="622" type="line"/>
      <point x="435" y="665" type="line"/>
      <point x="396" y="698" type="line"/>
      <point x="392" y="697" type="line"/>
      <point x="392" y="178" type="line"/>
      <point x="405" y="174" type="line"/>
      <point x="386" y="248"/>
      <point x="348" y="305"/>
      <point x="303" y="345" type="curve"/>
      <point x="300" y="269" type="line"/>
      <point x="342" y="232"/>
      <point x="374" y="182"/>
      <point x="400" y="117" type="curve"/>
    </contour>
  </outline>
</glyph>
<glyph name="tta-beng" format="2">
  <advance width="386"/>
  <unicode hex="099F"/>
  <anchor x="264" y="30" name="bottom"/>
  <anchor x="310" y="0" name="bottom.rakaar"/>
  <anchor x="269" y="26" name="bottom.rvocalic"/>
  <anchor x="216" y="36" name="bottom.virama"/>
  <anchor x="200" y="642" name="top"/>
  <anchor x="156" y="646" name="topright"/>
  <anchor x="193" y="0" name="vedic"/>
  <anchor x="176" y="-72" name="nukta"/>
  <outline>
    <contour>
      <point x="282" y="612" type="curve"/>
      <point x="322" y="612" type="line"/>
      <point x="319" y="738"/>
      <point x="283" y="799"/>
      <point x="210" y="799" type="curve" smooth="yes"/>
      <point x="173" y="799"/>
      <point x="150" y="790"/>
      <point x="114" y="790" type="curve" smooth="yes"/>
      <point x="69" y="790"/>
      <point x="44" y="806"/>
      <point x="44" y="871" type="curve" smooth="yes"/>
      <point x="44" y="885"/>
      <point x="45" y="901"/>
      <point x="47" y="912" type="curve"/>
      <point x="11" y="916" type="line"/>
      <point x="8" y="896"/>
      <point x="7" y="874"/>
      <point x="7" y="859" type="curve" smooth="yes"/>
      <point x="7" y="760"/>
      <point x="43" y="712"/>
      <point x="117" y="712" type="curve" smooth="yes"/>
      <point x="164" y="712"/>
      <point x="183" y="722"/>
      <point x="219" y="722" type="curve" smooth="yes"/>
      <point x="258" y="722"/>
      <point x="281" y="688"/>
    </contour>
    <component base="ddha-beng"/>
  </outline>
</glyph>
<glyph name="ddha-beng" format="2">
  <advance width="386"/>
  <unicode hex="09A2"/>
  <anchor x="264" y="30" name="bottom"/>
  <anchor x="310" y="0" name="bottom.rakaar"/>
  <anchor x="269" y="26" name="bottom.rvocalic"/>
  <anchor x="216" y="36" name="bottom.virama"/>
  <anchor x="176" y="-72" name="nukta"/>
  <anchor x="118" y="570" name="top"/>
  <anchor x="119" y="570" name="topright"/>
  <outline>
    <contour>
      <point x="171" y="31" type="curve" smooth="yes"/>
      <point x="276" y="31"/>
      <point x="353" y="209"/>
      <point x="353" y="332" type="curve" smooth="yes"/>
      <point x="353" y="421"/>
      <point x="314" y="457"/>
      <point x="270" y="457" type="curve" smooth="yes"/>
      <point x="220" y="457"/>
      <point x="193" y="417"/>
      <point x="193" y="373" type="curve" smooth="yes"/>
      <point x="193" y="329"/>
      <point x="221" y="294"/>
      <point x="266" y="294" type="curve" smooth="yes"/>
      <point x="284" y="294"/>
      <point x="300" y="306"/>
      <point x="310" y="322" type="curve"/>
      <point x="284" y="346" type="line"/>
      <point x="280" y="222"/>
      <point x="214" y="93"/>
      <point x="156" y="93" type="curve" smooth="yes"/>
      <point x="130" y="93"/>
      <point x="118" y="109"/>
      <point x="118" y="146" type="curve" smooth="yes"/>
      <point x="118" y="570" type="line"/>
      <point x="411" y="570" type="line"/>
      <point x="383" y="622" type="line"/>
      <point x="-25" y="622" type="line"/>
      <point x="4" y="570" type="line"/>
      <point x="67" y="570" type="line"/>
      <point x="67" y="144" type="line" smooth="yes"/>
      <point x="67" y="70"/>
      <point x="114" y="31"/>
    </contour>
  </outline>
</glyph>
<glyph name="nna-beng" format="2">
  <advance width="435"/>
  <unicode hex="09A3"/>
  <anchor x="358" y="59" name="bottom"/>
  <anchor x="368" y="-3" name="bottom.rakaar"/>
  <anchor x="368" y="-2" name="bottom.rvocalic"/>
  <anchor x="349" y="6" name="bottom.virama"/>
  <anchor x="357" y="560" name="top"/>
  <anchor x="342" y="552" name="topright"/>
  <outline>
    <contour>
      <point x="364" y="-25" type="line"/>
      <point x="368" y="-24" type="line"/>
      <point x="368" y="570" type="line"/>
      <point x="460" y="570" type="line"/>
      <point x="432" y="622" type="line"/>
      <point x="365" y="622" type="line"/>
      <point x="360" y="665" type="line"/>
      <point x="321" y="698" type="line"/>
      <point x="317" y="697" type="line"/>
      <point x="317" y="555" type="line" smooth="yes"/>
      <point x="317" y="499"/>
      <point x="319" y="459"/>
      <point x="324" y="405" type="curve"/>
      <point x="331" y="410" type="line"/>
      <point x="280" y="579"/>
      <point x="216" y="627"/>
      <point x="152" y="627" type="curve" smooth="yes"/>
      <point x="77" y="627"/>
      <point x="26" y="561"/>
      <point x="26" y="458" type="curve" smooth="yes"/>
      <point x="26" y="340"/>
      <point x="98" y="276"/>
      <point x="162" y="276" type="curve" smooth="yes"/>
      <point x="214" y="276"/>
      <point x="243" y="310"/>
      <point x="243" y="359" type="curve" smooth="yes"/>
      <point x="243" y="405"/>
      <point x="216" y="438"/>
      <point x="176" y="438" type="curve" smooth="yes"/>
      <point x="139" y="438"/>
      <point x="114" y="409"/>
      <point x="114" y="367" type="curve" smooth="yes"/>
      <point x="114" y="353"/>
      <point x="118" y="336"/>
      <point x="123" y="327" type="curve"/>
      <point x="157" y="354" type="line"/>
      <point x="148" y="352"/>
      <point x="140" y="351"/>
      <point x="132" y="351" type="curve" smooth="yes"/>
      <point x="103" y="351"/>
      <point x="78" y="386"/>
      <point x="78" y="439" type="curve" smooth="yes"/>
      <point x="78" y="502"/>
      <point x="110" y="541"/>
      <point x="164" y="541" type="curve" smooth="yes"/>
      <point x="224" y="541"/>
      <point x="277" y="496"/>
      <point x="323" y="333" type="curve"/>
      <point x="317" y="390" type="line"/>
      <point x="317" y="3" type="line"/>
    </contour>
  </outline>
</glyph>
<glyph name="tha-beng" format="2">
  <advance width="423"/>
  <unicode hex="09A5"/>
  <anchor x="351" y="30" name="bottom"/>
  <anchor x="356" y="70" name="bottom.rakaar"/>
  <anchor x="356" y="12" name="bottom.rvocalic"/>
  <anchor x="342" y="6" name="bottom.virama"/>
  <anchor x="345" y="560" name="top"/>
  <anchor x="330" y="552" name="topright"/>
  <outline>
    <contour>
      <point x="351" y="-13" type="line"/>
      <point x="356" y="-12" type="line"/>
      <point x="356" y="570" type="line"/>
      <point x="448" y="570" type="line"/>
      <point x="420" y="622" type="line"/>
      <point x="353" y="622" type="line"/>
      <point x="348" y="665" type="line"/>
      <point x="309" y="698" type="line"/>
      <point x="305" y="697" type="line"/>
      <point x="305" y="81" type="line"/>
      <point x="315" y="87" type="line"/>
      <point x="281" y="195"/>
      <point x="212" y="264"/>
      <point x="140" y="295" type="curve"/>
      <point x="143" y="280" type="line"/>
      <point x="218" y="300"/>
      <point x="261" y="350"/>
      <point x="261" y="449" type="curve" smooth="yes"/>
      <point x="261" y="568"/>
      <point x="203" y="625"/>
      <point x="126" y="625" type="curve" smooth="yes"/>
      <point x="69" y="625"/>
      <point x="19" y="573"/>
      <point x="19" y="509" type="curve" smooth="yes"/>
      <point x="19" y="458"/>
      <point x="48" y="428"/>
      <point x="86" y="428" type="curve" smooth="yes"/>
      <point x="122" y="428"/>
      <point x="143" y="453"/>
      <point x="143" y="490" type="curve" smooth="yes"/>
      <point x="143" y="518"/>
      <point x="131" y="538"/>
      <point x="110" y="545" type="curve"/>
      <point x="112" y="528" type="line"/>
      <point x="118" y="548"/>
      <point x="132" y="562"/>
      <point x="151" y="562" type="curve" smooth="yes"/>
      <point x="186" y="562"/>
      <point x="211" y="525"/>
      <point x="211" y="464" type="curve" smooth="yes"/>
      <point x="211" y="372"/>
      <point x="136" y="346"/>
      <point x="51" y="341" type="curve"/>
      <point x="84" y="234" type="line"/>
      <point x="185" y="217"/>
      <point x="261" y="143"/>
      <point x="311" y="24" type="curve"/>
    </contour>
  </outline>
</glyph>
<glyph name="da-beng" format="2">
  <advance width="398"/>
  <unicode hex="09A6"/>
  <anchor x="327" y="87" name="bottom"/>
  <anchor x="338" y="70" name="bottom.rakaar"/>
  <anchor x="337" y="14" name="bottom.rvocalic"/>
  <anchor x="325" y="0" name="bottom.virama"/>
  <anchor x="101" y="570" name="top"/>
  <anchor x="103" y="570" name="topright"/>
  <outline>
    <contour>
      <point x="299" y="-8" type="curve"/>
      <point x="337" y="4" type="line"/>
      <point x="320" y="64"/>
      <point x="311" y="124"/>
      <point x="311" y="184" type="curve" smooth="yes"/>
      <point x="311" y="265"/>
      <point x="327" y="344"/>
      <point x="363" y="418" type="curve"/>
      <point x="288" y="489" type="line"/>
      <point x="214" y="428"/>
      <point x="140" y="347"/>
      <point x="92" y="275" type="curve"/>
      <point x="111" y="261" type="line"/>
      <point x="111" y="570" type="line"/>
      <point x="423" y="570" type="line"/>
      <point x="395" y="622" type="line"/>
      <point x="-25" y="622" type="line"/>
      <point x="3" y="570" type="line"/>
      <point x="60" y="570" type="line"/>
      <point x="60" y="210" type="line"/>
      <point x="109" y="180" type="line"/>
      <point x="175" y="272"/>
      <point x="237" y="348"/>
      <point x="305" y="408" type="curve"/>
      <point x="291" y="417" type="line"/>
      <point x="269" y="355"/>
      <point x="258" y="289"/>
      <point x="258" y="219" type="curve" smooth="yes"/>
      <point x="258" y="141"/>
      <point x="274" y="65"/>
    </contour>
  </outline>
</glyph>
<glyph name="na-beng" format="2">
  <advance width="396"/>
  <unicode hex="09A8"/>
  <anchor x="319" y="71" name="bottom"/>
  <anchor x="329" y="70" name="bottom.rakaar"/>
  <anchor x="329" y="11" name="bottom.rvocalic"/>
  <anchor x="315" y="6" name="bottom.virama"/>
  <anchor x="319" y="570" name="top"/>
  <anchor x="321" y="570" name="topright"/>
  <outline>
    <contour>
      <point x="324" y="-13" type="line"/>
      <point x="329" y="-12" type="line"/>
      <point x="329" y="570" type="line"/>
      <point x="421" y="570" type="line"/>
      <point x="393" y="622" type="line"/>
      <point x="-25" y="622" type="line"/>
      <point x="3" y="570" type="line"/>
      <point x="278" y="570" type="line"/>
      <point x="278" y="325" type="line" smooth="yes"/>
      <point x="278" y="267"/>
      <point x="285" y="215"/>
      <point x="288" y="180" type="curve"/>
      <point x="293" y="169" type="line"/>
      <point x="280" y="307"/>
      <point x="218" y="421"/>
      <point x="117" y="421" type="curve" smooth="yes"/>
      <point x="60" y="421"/>
      <point x="17" y="379"/>
      <point x="17" y="312" type="curve" smooth="yes"/>
      <point x="17" y="256"/>
      <point x="47" y="209"/>
      <point x="101" y="209" type="curve" smooth="yes"/>
      <point x="149" y="209"/>
      <point x="174" y="246"/>
      <point x="174" y="293" type="curve" smooth="yes"/>
      <point x="174" y="314"/>
      <point x="168" y="341"/>
      <point x="153" y="353" type="curve"/>
      <point x="133" y="322" type="line"/>
      <point x="140" y="327"/>
      <point x="152" y="329"/>
      <point x="163" y="329" type="curve" smooth="yes"/>
      <point x="235" y="329"/>
      <point x="281" y="154"/>
      <point x="288" y="20" type="curve"/>
    </contour>
  </outline>
</glyph>
<glyph name="ba-beng" format="2">
  <advance width="396"/>
  <unicode hex="09AC"/>
  <anchor x="325" y="30" name="bottom"/>
  <anchor x="323" y="70" name="bottom.rakaar"/>
  <anchor x="329" y="8" name="bottom.rvocalic"/>
  <anchor x="320" y="6" name="bottom.virama"/>
  <anchor x="144" y="78" name="nukta"/>
  <anchor x="319" y="570" name="top"/>
  <anchor x="321" y="570" name="topright"/>
  <outline>
    <contour>
      <point x="323" y="-13" type="line"/>
      <point x="329" y="-12" type="line"/>
      <point x="329" y="570" type="line"/>
      <point x="421" y="570" type="line"/>
      <point x="393" y="622" type="line"/>
      <point x="-25" y="622" type="line"/>
      <point x="3" y="570" type="line"/>
      <point x="278" y="570" type="line"/>
      <point x="278" y="500" type="line"/>
      <point x="284" y="520" type="line"/>
      <point x="188" y="473"/>
      <point x="104" y="417"/>
      <point x="15" y="342" type="curve"/>
      <point x="69" y="235" type="line"/>
      <point x="171" y="203"/>
      <point x="240" y="134"/>
      <point x="286" y="17" type="curve"/>
    </contour>
    <contour>
      <point x="278" y="78" type="line"/>
      <point x="291" y="74" type="line"/>
      <point x="258" y="201"/>
      <point x="169" y="278"/>
      <point x="84" y="308" type="curve"/>
      <point x="90" y="293" type="line"/>
      <point x="149" y="353"/>
      <point x="224" y="395"/>
      <point x="286" y="428" type="curve"/>
      <point x="278" y="452" type="line"/>
    </contour>
  </outline>
</glyph>
<glyph name="ya-beng" format="2">
  <advance width="401"/>
  <unicode hex="09AF"/>
  <anchor x="330" y="30" name="bottom"/>
  <anchor x="328" y="70" name="bottom.rakaar"/>
  <anchor x="334" y="8" name="bottom.rvocalic"/>
  <anchor x="325" y="6" name="bottom.virama"/>
  <anchor x="149" y="72" name="nukta"/>
  <anchor x="324" y="570" name="top"/>
  <anchor x="326" y="570" name="topright"/>
  <outline>
    <contour>
      <point x="328" y="-13" type="line"/>
      <point x="334" y="-12" type="line"/>
      <point x="334" y="570" type="line"/>
      <point x="426" y="570" type="line"/>
      <point x="398" y="622" type="line"/>
      <point x="-25" y="622" type="line"/>
      <point x="35" y="506" type="line"/>
      <point x="90" y="490"/>
      <point x="132" y="464"/>
      <point x="180" y="407" type="curve"/>
      <point x="173" y="438" type="line"/>
      <point x="131" y="409"/>
      <point x="60" y="359"/>
      <point x="20" y="321" type="curve"/>
      <point x="77" y="214" type="line"/>
      <point x="179" y="192"/>
      <point x="245" y="134"/>
      <point x="291" y="17" type="curve"/>
    </contour>
    <contour>
      <point x="283" y="78" type="line"/>
      <point x="296" y="74" type="line"/>
      <point x="263" y="201"/>
      <point x="173" y="268"/>
      <point x="88" y="288" type="curve"/>
      <point x="93" y="271" type="line"/>
      <point x="131" y="306"/>
      <point x="187" y="349"/>
      <point x="236" y="382" type="curve"/>
      <point x="198" y="469"/>
      <point x="150" y="537"/>
      <point x="65" y="582" type="curve"/>
      <point x="65" y="570" type="line"/>
      <point x="283" y="570" type="line"/>
    </contour>
  </outline>
</glyph>
<glyph name="ra-beng" format="2">
  <advance width="396"/>
  <unicode hex="09B0"/>
  <anchor x="431" y="0" name="bottom"/>
  <anchor x="431" y="70" name="bottom.rakaar"/>
  <anchor x="431" y="12" name="bottom.rvocalic"/>
  <anchor x="411" y="6" name="bottom.virama"/>
  <anchor x="144" y="78" name="nukta"/>
  <anchor x="431" y="570" name="top"/>
  <anchor x="434" y="570" name="topright"/>
  <outline>
    <contour>
      <point x="323" y="-13" type="line"/>
      <point x="329" y="-12" type="line"/>
      <point x="329" y="570" type="line"/>
      <point x="421" y="570" type="line"/>
      <point x="393" y="622" type="line"/>
      <point x="-25" y="622" type="line"/>
      <point x="3" y="570" type="line"/>
      <point x="278" y="570" type="line"/>
      <point x="278" y="500" type="line"/>
      <point x="284" y="520" type="line"/>
      <point x="188" y="473"/>
      <point x="104" y="417"/>
      <point x="15" y="342" type="curve"/>
      <point x="69" y="235" type="line"/>
      <point x="171" y="203"/>
      <point x="240" y="134"/>
      <point x="286" y="17" type="curve"/>
    </contour>
    <contour>
      <point x="278" y="78" type="line"/>
      <point x="291" y="74" type="line"/>
      <point x="258" y="201"/>
      <point x="169" y="278"/>
      <point x="84" y="308" type="curve"/>
      <point x="90" y="293" type="line"/>
      <point x="149" y="353"/>
      <point x="224" y="395"/>
      <point x="286" y="428" type="curve"/>
      <point x="278" y="452" type="line"/>
    </contour>
    <contour>
      <point x="144" y="19" type="curve" smooth="yes"/>
      <point x="175" y="19"/>
      <point x="195" y="42"/>
      <point x="195" y="78" type="curve" smooth="yes"/>
      <point x="195" y="115"/>
      <point x="175" y="138"/>
      <point x="144" y="138" type="curve" smooth="yes"/>
      <point x="111" y="138"/>
      <point x="91" y="115"/>
      <point x="91" y="78" type="curve" smooth="yes"/>
      <point x="91" y="42"/>
      <point x="111" y="19"/>
    </contour>
  </outline>
</glyph>
<glyph name="la-beng" format="2">
  <advance width="477"/>
  <unicode hex="09B2"/>
  <anchor x="400" y="59" name="bottom"/>
  <anchor x="410" y="-3" name="bottom.rakaar"/>
  <anchor x="410" y="-2" name="bottom.rvocalic"/>
  <anchor x="391" y="6" name="bottom.virama"/>
  <anchor x="400" y="570" name="top"/>
  <anchor x="402" y="570" name="topright"/>
  <outline>
    <contour>
      <point x="406" y="-25" type="line"/>
      <point x="410" y="-24" type="line"/>
      <point x="410" y="570" type="line"/>
      <point x="502" y="570" type="line"/>
      <point x="474" y="622" type="line"/>
      <point x="-25" y="622" type="line"/>
      <point x="3" y="570" type="line"/>
      <point x="359" y="570" type="line"/>
      <point x="359" y="455" type="line" smooth="yes"/>
      <point x="359" y="412"/>
      <point x="362" y="370"/>
      <point x="366" y="323" type="curve"/>
      <point x="369" y="332" type="line"/>
      <point x="345" y="435"/>
      <point x="309" y="472"/>
      <point x="272" y="472" type="curve" smooth="yes"/>
      <point x="238" y="472"/>
      <point x="211" y="436"/>
      <point x="214" y="356" type="curve"/>
      <point x="225" y="363" type="line"/>
      <point x="211" y="422"/>
      <point x="174" y="474"/>
      <point x="115" y="474" type="curve" smooth="yes"/>
      <point x="51" y="474"/>
      <point x="7" y="415"/>
      <point x="7" y="315" type="curve" smooth="yes"/>
      <point x="7" y="193"/>
      <point x="75" y="124"/>
      <point x="147" y="124" type="curve" smooth="yes"/>
      <point x="193" y="124"/>
      <point x="223" y="154"/>
      <point x="223" y="205" type="curve" smooth="yes"/>
      <point x="223" y="251"/>
      <point x="198" y="282"/>
      <point x="159" y="282" type="curve" smooth="yes"/>
      <point x="125" y="282"/>
      <point x="99" y="256"/>
      <point x="99" y="215" type="curve" smooth="yes"/>
      <point x="99" y="195"/>
      <point x="102" y="175"/>
      <point x="113" y="162" type="curve"/>
      <point x="130" y="200" type="line"/>
      <point x="122" y="197"/>
      <point x="114" y="196"/>
      <point x="107" y="196" type="curve" smooth="yes"/>
      <point x="83" y="196"/>
      <point x="60" y="236"/>
      <point x="60" y="290" type="curve" smooth="yes"/>
      <point x="60" y="349"/>
      <point x="85" y="383"/>
      <point x="132" y="383" type="curve" smooth="yes"/>
      <point x="178" y="383"/>
      <point x="212" y="353"/>
      <point x="229" y="292" type="curve"/>
      <point x="250" y="284" type="line"/>
      <point x="250" y="351"/>
      <point x="268" y="378"/>
      <point x="291" y="378" type="curve" smooth="yes"/>
      <point x="318" y="378"/>
      <point x="347" y="344"/>
      <point x="364" y="237" type="curve"/>
      <point x="359" y="290" type="line"/>
      <point x="359" y="3" type="line"/>
    </contour>
  </outline>
</glyph>
<glyph name="sha-beng" format="2">
  <advance width="467"/>
  <unicode hex="09B6"/>
  <anchor x="390" y="59" name="bottom"/>
  <anchor x="400" y="-3" name="bottom.rakaar"/>
  <anchor x="400" y="-2" name="bottom.rvocalic"/>
  <anchor x="381" y="6" name="bottom.virama"/>
  <anchor x="389" y="560" name="top"/>
  <anchor x="374" y="552" name="topright"/>
  <outline>
    <contour>
      <point x="396" y="-25" type="line"/>
      <point x="400" y="-24" type="line"/>
      <point x="400" y="570" type="line"/>
      <point x="492" y="570" type="line"/>
      <point x="464" y="622" type="line"/>
      <point x="397" y="622" type="line"/>
      <point x="392" y="665" type="line"/>
      <point x="353" y="698" type="line"/>
      <point x="349" y="697" type="line"/>
      <point x="349" y="580" type="line" smooth="yes"/>
      <point x="349" y="524"/>
      <point x="351" y="482"/>
      <point x="355" y="440" type="curve"/>
      <point x="360" y="444" type="line"/>
      <point x="330" y="556"/>
      <point x="284" y="629"/>
      <point x="228" y="629" type="curve" smooth="yes"/>
      <point x="195" y="629"/>
      <point x="166" y="605"/>
      <point x="141" y="543" type="curve"/>
      <point x="110" y="599"/>
      <point x="85" y="622"/>
      <point x="42" y="622" type="curve" smooth="yes"/>
      <point x="-25" y="622" type="line"/>
      <point x="3" y="570" type="line"/>
      <point x="41" y="570" type="line" smooth="yes"/>
      <point x="74" y="570"/>
      <point x="99" y="550"/>
      <point x="120" y="498" type="curve"/>
      <point x="129" y="513" type="line"/>
      <point x="42" y="477"/>
      <point x="18" y="417"/>
      <point x="18" y="366" type="curve" smooth="yes"/>
      <point x="18" y="310"/>
      <point x="51" y="290"/>
      <point x="78" y="290" type="curve" smooth="yes"/>
      <point x="115" y="290"/>
      <point x="141" y="322"/>
      <point x="151" y="374" type="curve"/>
      <point x="161" y="316"/>
      <point x="189" y="290"/>
      <point x="222" y="290" type="curve" smooth="yes"/>
      <point x="256" y="290"/>
      <point x="281" y="313"/>
      <point x="281" y="366" type="curve" smooth="yes"/>
      <point x="281" y="422"/>
      <point x="246" y="467"/>
      <point x="191" y="501" type="curve"/>
      <point x="199" y="483" type="line"/>
      <point x="209" y="531"/>
      <point x="227" y="554"/>
      <point x="250" y="554" type="curve" smooth="yes"/>
      <point x="278" y="554"/>
      <point x="322" y="496"/>
      <point x="353" y="365" type="curve"/>
      <point x="349" y="415" type="line"/>
      <point x="349" y="3" type="line"/>
    </contour>
  </outline>
</glyph>
<glyph name="ssa-beng" format="2">
  <advance width="401"/>
  <unicode hex="09B7"/>
  <anchor x="330" y="30" name="bottom"/>
  <anchor x="328" y="70" name="bottom.rakaar"/>
  <anchor x="334" y="8" name="bottom.rvocalic"/>
  <anchor x="325" y="6" name="bottom.virama"/>
  <anchor x="324" y="570" name="top"/>
  <anchor x="326" y="570" name="topright"/>
  <outline>
    <contour>
      <point x="328" y="-13" type="line"/>
      <point x="334" y="-12" type="line"/>
      <point x="334" y="570" type="line"/>
      <point x="426" y="570" type="line"/>
      <point x="398" y="622" type="line"/>
      <point x="-25" y="622" type="line"/>
      <point x="35" y="506" type="line"/>
      <point x="140" y="487"/>
      <point x="228" y="389"/>
      <point x="308" y="268" type="curve"/>
      <point x="318" y="327" type="line"/>
      <point x="281" y="385"/>
      <point x="169" y="536"/>
      <point x="66" y="582" type="curve"/>
      <point x="65" y="570" type="line"/>
      <point x="283" y="570" type="line"/>
      <point x="283" y="78" type="line"/>
      <point x="296" y="74" type="line"/>
      <point x="263" y="201"/>
      <point x="173" y="268"/>
      <point x="88" y="288" type="curve"/>
      <point x="103" y="269" type="line"/>
      <point x="143" y="305"/>
      <point x="198" y="350"/>
      <point x="244" y="382" type="curve"/>
      <point x="184" y="444" type="line"/>
      <point x="143" y="418"/>
      <point x="74" y="368"/>
      <point x="20" y="321" type="curve"/>
      <point x="77" y="214" type="line"/>
      <point x="179" y="192"/>
      <point x="245" y="134"/>
      <point x="291" y="17" type="curve"/>
    </contour>
  </outline>
</glyph>
<glyph name="nukta-beng" format="2">
  <unicode hex="09BC"/>
  <anchor x="0" y="-125" name="_nukta"/>
  <outline>
    <contour>
      <point x="0" y="-184" type="curve" smooth="yes"/>
      <point x="31" y="-184"/>
      <point x="51" y="-161"/>
      <point x="51" y="-125" type="curve" smooth="yes"/>
      <point x="51" y="-88"/>
      <point x="31" y="-65"/>
      <point x="0" y="-65" type="curve" smooth="yes"/>
      <point x="-33" y="-65"/>
      <point x="-53" y="-88"/>
      <point x="-53" y="-125" type="curve" smooth="yes"/>
      <point x="-53" y="-161"/>
      <point x="-33" y="-184"/>
    </contour>
  </outline>
</glyph>
<glyph name="avagraha-beng" format="2">
  <advance width="341"/>
  <unicode hex="09BD"/>
  <anchor x="159" y="570" name="top"/>
  <anchor x="157" y="570" name="topright"/>
  <outline>
    <contour>
      <point x="343" y="-45" type="curve"/>
      <point x="368" y="-12" type="line"/>
      <point x="302" y="70"/>
      <point x="218" y="163"/>
      <point x="133" y="189" type="curve"/>
      <point x="96" y="167" type="line"/>
      <point x="114" y="159"/>
      <point x="136" y="158"/>
      <point x="158" y="158" type="curve" smooth="yes"/>
      <point x="245" y="158"/>
      <point x="320" y="220"/>
      <point x="320" y="333" type="curve" smooth="yes"/>
      <point x="320" y="434"/>
      <point x="266" y="508"/>
      <point x="144" y="508" type="curve" smooth="yes"/>
      <point x="76" y="508"/>
      <point x="36" y="474"/>
      <point x="36" y="414" type="curve" smooth="yes"/>
      <point x="36" y="363"/>
      <point x="64" y="331"/>
      <point x="108" y="331" type="curve" smooth="yes"/>
      <point x="160" y="331"/>
      <point x="183" y="376"/>
      <point x="183" y="432" type="curve" smooth="yes"/>
      <point x="183" y="497"/>
      <point x="132" y="581"/>
      <point x="96" y="622" type="curve"/>
      <point x="-23" y="622" type="line"/>
      <point x="5" y="570" type="line"/>
      <point x="83" y="570" type="line"/>
      <point x="55" y="578" type="line"/>
      <point x="84" y="556"/>
      <point x="118" y="518"/>
      <point x="132" y="468" type="curve"/>
      <point x="128" y="408" type="line"/>
      <point x="142" y="429"/>
      <point x="169" y="444"/>
      <point x="190" y="444" type="curve" smooth="yes"/>
      <point x="239" y="444"/>
      <point x="267" y="404"/>
      <point x="267" y="350" type="curve" smooth="yes"/>
      <point x="267" y="269"/>
      <point x="212" y="229"/>
      <point x="130" y="229" type="curve" smooth="yes"/>
      <point x="86" y="229"/>
      <point x="50" y="238"/>
      <point x="25" y="254" type="curve"/>
      <point x="45" y="159" type="line"/>
      <point x="154" y="134"/>
      <point x="233" y="77"/>
    </contour>
  </outline>
</glyph>
<glyph name="iMatra-beng" format="2">
  <advance width="185"/>
  <unicode hex="09BF"/>
  <anchor x="526" y="570" name="top"/>
  <anchor x="399" y="592" name="topright"/>
  <outline>
    <contour>
      <point x="114" y="-25" type="line"/>
      <point x="118" y="-24" type="line"/>
      <point x="118" y="570" type="line"/>
      <point x="210" y="570" type="line"/>
      <point x="182" y="622" type="line"/>
      <point x="113" y="622" type="line"/>
      <point x="99" y="647"/>
      <point x="81" y="678"/>
      <point x="71" y="701" type="curve"/>
      <point x="89" y="773"/>
      <point x="160" y="849"/>
      <point x="234" y="849" type="curve" smooth="yes"/>
      <point x="312" y="849"/>
      <point x="385" y="798"/>
      <point x="471" y="674" type="curve"/>
      <point x="500" y="697" type="line"/>
      <point x="430" y="813"/>
      <point x="332" y="919"/>
      <point x="214" y="919" type="curve" smooth="yes"/>
      <point x="127" y="919"/>
      <point x="35" y="846"/>
      <point x="-2" y="719" type="curve"/>
      <point x="19" y="686"/>
      <point x="46" y="653"/>
      <point x="67" y="622" type="curve"/>
      <point x="-25" y="622" type="line"/>
      <point x="3" y="570" type="line"/>
      <point x="67" y="570" type="line"/>
      <point x="67" y="3" type="line"/>
    </contour>
  </outline>
</glyph>
<glyph name="rVocalicMatra-beng" format="2">
  <unicode hex="09C3"/>
  <anchor x="0" y="0" name="_bottom.rvocalic"/>
  <outline>
    <contour>
      <point x="17" y="-255" type="curve"/>
      <point x="41" y="-224" type="line"/>
      <point x="12" y="-185"/>
      <point x="-50" y="-120"/>
      <point x="-118" y="-80" type="curve"/>
      <point x="-111" y="-104" type="line"/>
      <point x="-77" y="-73"/>
      <point x="-41" y="-47"/>
      <point x="0" y="-22" type="curve"/>
      <point x="0" y="-10" type="line"/>
      <point x="-36" y="35" type="line"/>
      <point x="-80" y="10"/>
      <point x="-141" y="-31"/>
      <point x="-194" y="-81" type="curve"/>
      <point x="-155" y="-133" type="line"/>
      <point x="-87" y="-158"/>
      <point x="-31" y="-199"/>
    </contour>
  </outline>
</glyph>
<glyph name="eMatra-beng" format="2">
  <advance width="283"/>
  <unicode hex="09C7"/>
  <outline>
    <contour>
      <point x="202" y="-14" type="curve" smooth="yes"/>
      <point x="248" y="-14"/>
      <point x="279" y="15"/>
      <point x="279" y="67" type="curve" smooth="yes"/>
      <point x="279" y="110"/>
      <point x="255" y="146"/>
      <point x="211" y="146" type="curve" smooth="yes"/>
      <point x="174" y="146"/>
      <point x="148" y="120"/>
      <point x="148" y="80" type="curve" smooth="yes"/>
      <point x="148" y="56"/>
      <point x="158" y="36"/>
      <point x="170" y="22" type="curve"/>
      <point x="187" y="29" type="line"/>
      <point x="127" y="55"/>
      <point x="93" y="134"/>
      <point x="93" y="259" type="curve" smooth="yes"/>
      <point x="93" y="434"/>
      <point x="188" y="570"/>
      <point x="272" y="570" type="curve" smooth="yes"/>
      <point x="308" y="570" type="line"/>
      <point x="281" y="622" type="line"/>
      <point x="-25" y="622" type="line"/>
      <point x="2" y="570" type="line"/>
      <point x="162" y="570" type="line"/>
      <point x="158" y="591" type="line"/>
      <point x="93" y="542"/>
      <point x="34" y="433"/>
      <point x="34" y="288" type="curve" smooth="yes"/>
      <point x="34" y="111"/>
      <point x="109" y="-14"/>
    </contour>
  </outline>
</glyph>
<glyph name="aiMatra-beng" format="2">
  <advance width="283"/>
  <unicode hex="09C8"/>
  <outline>
    <contour>
      <point x="243" y="612" type="curve"/>
      <point x="284" y="612" type="line"/>
      <point x="281" y="749"/>
      <point x="243" y="796"/>
      <point x="171" y="796" type="curve" smooth="yes"/>
      <point x="140" y="796"/>
      <point x="119" y="791"/>
      <point x="82" y="791" type="curve" smooth="yes"/>
      <point x="34" y="791"/>
      <point x="14" y="817"/>
      <point x="14" y="864" type="curve" smooth="yes"/>
      <point x="14" y="885"/>
      <point x="17" y="904"/>
      <point x="19" y="913" type="curve"/>
      <point x="-20" y="917" type="line"/>
      <point x="-25" y="892"/>
      <point x="-28" y="870"/>
      <point x="-28" y="843" type="curve" smooth="yes"/>
      <point x="-28" y="755"/>
      <point x="15" y="712"/>
      <point x="84" y="712" type="curve" smooth="yes"/>
      <point x="126" y="712"/>
      <point x="146" y="718"/>
      <point x="177" y="718" type="curve" smooth="yes"/>
      <point x="221" y="718"/>
      <point x="240" y="687"/>
    </contour>
    <contour>
      <point x="202" y="-14" type="curve" smooth="yes"/>
      <point x="248" y="-14"/>
      <point x="279" y="15"/>
      <point x="279" y="67" type="curve" smooth="yes"/>
      <point x="279" y="110"/>
      <point x="255" y="146"/>
      <point x="211" y="146" type="curve" smooth="yes"/>
      <point x="174" y="146"/>
      <point x="148" y="120"/>
      <point x="148" y="80" type="curve" smooth="yes"/>
      <point x="148" y="56"/>
      <point x="158" y="36"/>
      <point x="170" y="22" type="curve"/>
      <point x="187" y="29" type="line"/>
      <point x="127" y="55"/>
      <point x="93" y="134"/>
      <point x="93" y="259" type="curve" smooth="yes"/>
      <point x="93" y="434"/>
      <point x="188" y="570"/>
      <point x="272" y="570" type="curve" smooth="yes"/>
      <point x="308" y="570" type="line"/>
      <point x="281" y="622" type="line"/>
      <point x="-25" y="622" type="line"/>
      <point x="2" y="570" type="line"/>
      <point x="162" y="570" type="line"/>
      <point x="158" y="591" type="line"/>
      <point x="93" y="542"/>
      <point x="34" y="433"/>
      <point x="34" y="288" type="curve" smooth="yes"/>
      <point x="34" y="111"/>
      <point x="109" y="-14"/>
    </contour>
  </outline>
</glyph>
<glyph name="oMatra-beng" format="2">
  <advance width="747"/>
  <unicode hex="09CB"/>
  <outline>
    <contour>
      <point x="419" y="249" type="curve" smooth="yes"/>
      <point x="452" y="249"/>
      <point x="480" y="272"/>
      <point x="480" y="310" type="curve" smooth="yes"/>
      <point x="480" y="346"/>
      <point x="453" y="372"/>
      <point x="419" y="372" type="curve" smooth="yes"/>
      <point x="384" y="372"/>
      <point x="355" y="346"/>
      <point x="355" y="310" type="curve" smooth="yes"/>
      <point x="355" y="274"/>
      <point x="385" y="249"/>
    </contour>
    <contour>
      <point x="202" y="-14" type="curve" smooth="yes"/>
      <point x="248" y="-14"/>
      <point x="279" y="15"/>
      <point x="279" y="67" type="curve" smooth="yes"/>
      <point x="279" y="110"/>
      <point x="255" y="146"/>
      <point x="211" y="146" type="curve" smooth="yes"/>
      <point x="174" y="146"/>
      <point x="148" y="120"/>
      <point x="148" y="80" type="curve" smooth="yes"/>
      <point x="148" y="56"/>
      <point x="158" y="36"/>
      <point x="170" y="22" type="curve"/>
      <point x="187" y="29" type="line"/>
      <point x="127" y="55"/>
      <point x="93" y="134"/>
      <point x="93" y="259" type="curve" smooth="yes"/>
      <point x="93" y="434"/>
      <point x="188" y="570"/>
      <point x="272" y="570" type="curve" smooth="yes"/>
      <point x="308" y="570" type="line"/>
      <point x="281" y="622" type="line"/>
      <point x="-25" y="622" type="line"/>
      <point x="2" y="570" type="line"/>
      <point x="162" y="570" type="line"/>
      <point x="158" y="591" type="line"/>
      <point x="93" y="542"/>
      <point x="34" y="433"/>
      <point x="34" y="288" type="curve" smooth="yes"/>
      <point x="34" y="111"/>
      <point x="109" y="-14"/>
    </contour>
    <contour>
      <point x="676" y="-25" type="line"/>
      <point x="680" y="-24" type="line"/>
      <point x="680" y="570" type="line"/>
      <point x="772" y="570" type="line"/>
      <point x="744" y="622" type="line"/>
      <point x="677" y="622" type="line"/>
      <point x="672" y="665" type="line"/>
      <point x="633" y="698" type="line"/>
      <point x="629" y="697" type="line"/>
      <point x="629" y="638" type="line" smooth="yes"/>
      <point x="629" y="616"/>
      <point x="632" y="571"/>
      <point x="637" y="532" type="curve"/>
      <point x="641" y="533" type="line"/>
      <point x="630" y="596"/>
      <point x="593" y="622"/>
      <point x="565" y="622" type="curve" smooth="yes"/>
      <point x="537" y="622" type="line"/>
      <point x="565" y="570" type="line"/>
      <point x="571" y="570" type="line" smooth="yes"/>
      <point x="596" y="570"/>
      <point x="623" y="526"/>
      <point x="629" y="472" type="curve"/>
      <point x="629" y="3" type="line"/>
    </contour>
  </outline>
</glyph>
<glyph name="auMatra-beng" format="2">
  <advance width="747"/>
  <unicode hex="09CC"/>
  <anchor x="786" y="596" name="top"/>
  <anchor x="538" y="620" name="topright"/>
  <outline>
    <contour>
      <point x="419" y="249" type="curve" smooth="yes"/>
      <point x="452" y="249"/>
      <point x="480" y="272"/>
      <point x="480" y="310" type="curve" smooth="yes"/>
      <point x="480" y="346"/>
      <point x="453" y="372"/>
      <point x="419" y="372" type="curve" smooth="yes"/>
      <point x="384" y="372"/>
      <point x="355" y="346"/>
      <point x="355" y="310" type="curve" smooth="yes"/>
      <point x="355" y="274"/>
      <point x="385" y="249"/>
    </contour>
    <contour>
      <point x="676" y="-25" type="line"/>
      <point x="680" y="-24" type="line"/>
      <point x="680" y="570" type="line"/>
      <point x="772" y="570" type="line"/>
      <point x="744" y="622" type="line"/>
      <point x="537" y="622" type="line"/>
      <point x="565" y="570" type="line"/>
      <point x="629" y="570" type="line"/>
      <point x="629" y="3" type="line"/>
    </contour>
    <contour>
      <point x="626" y="612" type="curve"/>
      <point x="680" y="612" type="line"/>
      <point x="676" y="739"/>
      <point x="617" y="805"/>
      <point x="534" y="805" type="curve" smooth="yes"/>
      <point x="485" y="805"/>
      <point x="441" y="792"/>
      <point x="378" y="792" type="curve" smooth="yes"/>
      <point x="315" y="792"/>
      <point x="287" y="815"/>
      <point x="287" y="876" type="curve" smooth="yes"/>
      <point x="287" y="885"/>
      <point x="287" y="898"/>
      <point x="289" y="913" type="curve"/>
      <point x="249" y="917" type="line"/>
      <point x="246" y="895"/>
      <point x="245" y="877"/>
      <point x="245" y="859" type="curve" smooth="yes"/>
      <point x="245" y="770"/>
      <point x="292" y="712"/>
      <point x="390" y="712" type="curve" smooth="yes"/>
      <point x="451" y="712"/>
      <point x="493" y="729"/>
      <point x="545" y="729" type="curve" smooth="yes"/>
      <point x="603" y="729"/>
      <point x="628" y="695"/>
      <point x="628" y="632" type="curve" smooth="yes"/>
      <point x="628" y="623"/>
      <point x="627" y="616"/>
    </contour>
    <contour>
      <point x="202" y="-14" type="curve" smooth="yes"/>
      <point x="248" y="-14"/>
      <point x="279" y="15"/>
      <point x="279" y="67" type="curve" smooth="yes"/>
      <point x="279" y="110"/>
      <point x="255" y="146"/>
      <point x="211" y="146" type="curve" smooth="yes"/>
      <point x="174" y="146"/>
      <point x="148" y="120"/>
      <point x="148" y="80" type="curve" smooth="yes"/>
      <point x="148" y="56"/>
      <point x="158" y="36"/>
      <point x="170" y="22" type="curve"/>
      <point x="187" y="29" type="line"/>
      <point x="127" y="55"/>
      <point x="93" y="134"/>
      <point x="93" y="259" type="curve" smooth="yes"/>
      <point x="93" y="434"/>
      <point x="188" y="570"/>
      <point x="272" y="570" type="curve" smooth="yes"/>
      <point x="308" y="570" type="line"/>
      <point x="281" y="622" type="line"/>
      <point x="-25" y="622" type="line"/>
      <point x="2" y="570" type="line"/>
      <point x="162" y="570" type="line"/>
      <point x="158" y="591" type="line"/>
      <point x="93" y="542"/>
      <point x="34" y="433"/>
      <point x="34" y="288" type="curve" smooth="yes"/>
      <point x="34" y="111"/>
      <point x="109" y="-14"/>
    </contour>
  </outline>
</glyph>
<glyph name="taKhanda-beng" format="2">
  <advance width="394"/>
  <unicode hex="09CE"/>
  <anchor x="207" y="570" name="top"/>
  <anchor x="205" y="570" name="topright"/>
  <outline>
    <contour>
      <point x="358" y="-40" type="line"/>
      <point x="377" y="-2"/>
      <point x="386" y="30"/>
      <point x="386" y="63" type="curve" smooth="yes"/>
      <point x="386" y="144"/>
      <point x="338" y="193"/>
      <point x="227" y="238" type="curve" smooth="yes"/>
      <point x="119" y="282"/>
      <point x="89" y="322"/>
      <point x="89" y="395" type="curve" smooth="yes"/>
      <point x="89" y="485"/>
      <point x="136" y="536"/>
      <point x="195" y="536" type="curve" smooth="yes"/>
      <point x="233" y="536"/>
      <point x="263" y="519"/>
      <point x="263" y="475" type="curve" smooth="yes"/>
      <point x="263" y="446"/>
      <point x="251" y="426"/>
      <point x="226" y="426" type="curve" smooth="yes"/>
      <point x="195" y="426"/>
      <point x="157" y="455"/>
      <point x="151" y="552" type="curve"/>
      <point x="120" y="531" type="line"/>
      <point x="124" y="433"/>
      <point x="154" y="337"/>
      <point x="222" y="337" type="curve" smooth="yes"/>
      <point x="279" y="337"/>
      <point x="309" y="407"/>
      <point x="309" y="484" type="curve" smooth="yes"/>
      <point x="309" y="551"/>
      <point x="276" y="618"/>
      <point x="198" y="618" type="curve" smooth="yes"/>
      <point x="95" y="618"/>
      <point x="37" y="507"/>
      <point x="37" y="397" type="curve" smooth="yes"/>
      <point x="37" y="273"/>
      <point x="82" y="195"/>
      <point x="209" y="151" type="curve" smooth="yes"/>
      <point x="309" y="116"/>
      <point x="334" y="88"/>
      <point x="334" y="39" type="curve" smooth="yes"/>
      <point x="334" y="20"/>
      <point x="329" y="-2"/>
      <point x="320" y="-24" type="curve"/>
    </contour>
  </outline>
</glyph>
<glyph name="auLength-beng" format="2">
  <advance width="185"/>
  <unicode hex="09D7"/>
  <anchor x="224" y="596" name="top"/>
  <anchor x="-24" y="620" name="topright"/>
  <outline>
    <contour>
      <point x="114" y="-25" type="line"/>
      <point x="118" y="-24" type="line"/>
      <point x="118" y="570" type="line"/>
      <point x="210" y="570" type="line"/>
      <point x="182" y="622" type="line"/>
      <point x="-25" y="622" type="line"/>
      <point x="3" y="570" type="line"/>
      <point x="67" y="570" type="line"/>
      <point x="67" y="3" type="line"/>
    </contour>
    <contour>
      <point x="64" y="612" type="curve"/>
      <point x="118" y="612" type="line"/>
      <point x="114" y="739"/>
      <point x="55" y="805"/>
      <point x="-28" y="805" type="curve" smooth="yes"/>
      <point x="-77" y="805"/>
      <point x="-121" y="792"/>
      <point x="-184" y="792" type="curve" smooth="yes"/>
      <point x="-247" y="792"/>
      <point x="-275" y="815"/>
      <point x="-275" y="876" type="curve" smooth="yes"/>
      <point x="-275" y="885"/>
      <point x="-275" y="898"/>
      <point x="-273" y="913" type="curve"/>
      <point x="-313" y="917" type="line"/>
      <point x="-316" y="895"/>
      <point x="-317" y="877"/>
      <point x="-317" y="859" type="curve" smooth="yes"/>
      <point x="-317" y="770"/>
      <point x="-270" y="712"/>
      <point x="-172" y="712" type="curve" smooth="yes"/>
      <point x="-111" y="712"/>
      <point x="-69" y="729"/>
      <point x="-17" y="729" type="curve" smooth="yes"/>
      <point x="41" y="729"/>
      <point x="66" y="695"/>
      <point x="66" y="632" type="curve" smooth="yes"/>
      <point x="66" y="623"/>
      <point x="65" y="616"/>
    </contour>
  </outline>
</glyph>
<glyph name="yya-beng" format="2">
  <advance width="401"/>
  <unicode hex="09DF"/>
  <anchor x="453" y="0" name="bottom"/>
  <anchor x="453" y="70" name="bottom.rakaar"/>
  <anchor x="453" y="12" name="bottom.rvocalic"/>
  <anchor x="325" y="6" name="bottom.virama"/>
  <anchor x="149" y="72" name="nukta"/>
  <anchor x="453" y="570" name="top"/>
  <anchor x="456" y="570" name="topright"/>
  <outline>
    <contour>
      <point x="328" y="-13" type="line"/>
      <point x="334" y="-12" type="line"/>
      <point x="334" y="570" type="line"/>
      <point x="426" y="570" type="line"/>
      <point x="398" y="622" type="line"/>
      <point x="-25" y="622" type="line"/>
      <point x="35" y="506" type="line"/>
      <point x="90" y="490"/>
      <point x="132" y="464"/>
      <point x="180" y="407" type="curve"/>
      <point x="173" y="438" type="line"/>
      <point x="131" y="409"/>
      <point x="60" y="359"/>
      <point x="20" y="321" type="curve"/>
      <point x="77" y="214" type="line"/>
      <point x="179" y="192"/>
      <point x="245" y="134"/>
      <point x="291" y="17" type="curve"/>
    </contour>
    <contour>
      <point x="283" y="78" type="line"/>
      <point x="296" y="74" type="line"/>
      <point x="263" y="201"/>
      <point x="173" y="268"/>
      <point x="88" y="288" type="curve"/>
      <point x="93" y="271" type="line"/>
      <point x="131" y="306"/>
      <point x="187" y="349"/>
      <point x="236" y="382" type="curve"/>
      <point x="198" y="469"/>
      <point x="150" y="537"/>
      <point x="65" y="582" type="curve"/>
      <point x="65" y="570" type="line"/>
      <point x="283" y="570" type="line"/>
    </contour>
    <contour>
      <point x="149" y="13" type="curve" smooth="yes"/>
      <point x="180" y="13"/>
      <point x="200" y="36"/>
      <point x="200" y="72" type="curve" smooth="yes"/>
      <point x="200" y="109"/>
      <point x="180" y="132"/>
      <point x="149" y="132" type="curve" smooth="yes"/>
      <point x="116" y="132"/>
      <point x="96" y="109"/>
      <point x="96" y="72" type="curve" smooth="yes"/>
      <point x="96" y="36"/>
      <point x="116" y="13"/>
    </contour>
  </outline>
</glyph>
<glyph name="llVocalic-beng" format="2">
  <advance width="530"/>
  <unicode hex="09E1"/>
  <anchor x="286" y="570" name="top"/>
  <outline>
    <contour>
      <point x="215" y="22" type="curve"/>
      <point x="305" y="46"/>
      <point x="369" y="158"/>
      <point x="369" y="284" type="curve" smooth="yes"/>
      <point x="369" y="420"/>
      <point x="315" y="472"/>
      <point x="205" y="507" type="curve" smooth="yes"/>
      <point x="141" y="527"/>
      <point x="96" y="543"/>
      <point x="96" y="616" type="curve" smooth="yes"/>
      <point x="96" y="645"/>
      <point x="105" y="672"/>
      <point x="115" y="698" type="curve"/>
      <point x="77" y="712" type="line"/>
      <point x="61" y="675"/>
      <point x="49" y="633"/>
      <point x="49" y="588" type="curve" smooth="yes"/>
      <point x="49" y="482"/>
      <point x="104" y="446"/>
      <point x="196" y="420" type="curve" smooth="yes"/>
      <point x="279" y="396"/>
      <point x="324" y="372"/>
      <point x="324" y="265" type="curve" smooth="yes"/>
      <point x="324" y="195"/>
      <point x="295" y="120"/>
      <point x="254" y="105" type="curve"/>
      <point x="282" y="86" type="line"/>
      <point x="283" y="199"/>
      <point x="242" y="315"/>
      <point x="149" y="315" type="curve" smooth="yes"/>
      <point x="76" y="315"/>
      <point x="35" y="251"/>
      <point x="35" y="172" type="curve" smooth="yes"/>
      <point x="35" y="84"/>
      <point x="74" y="36"/>
      <point x="122" y="36" type="curve" smooth="yes"/>
      <point x="162" y="36"/>
      <point x="180" y="70"/>
      <point x="180" y="105" type="curve" smooth="yes"/>
      <point x="180" y="143"/>
      <point x="157" y="168"/>
      <point x="125" y="168" type="curve" smooth="yes"/>
      <point x="99" y="168"/>
      <point x="75" y="145"/>
      <point x="75" y="117" type="curve"/>
      <point x="110" y="118" type="line"/>
      <point x="95" y="127"/>
      <point x="82" y="147"/>
      <point x="82" y="182" type="curve" smooth="yes"/>
      <point x="82" y="219"/>
      <point x="103" y="251"/>
      <point x="138" y="251" type="curve" smooth="yes"/>
      <point x="197" y="251"/>
      <point x="217" y="160"/>
      <point x="217" y="73" type="curve" smooth="yes"/>
      <point x="217" y="55"/>
      <point x="217" y="38"/>
    </contour>
    <contour>
      <point x="365" y="-194" type="line"/>
      <point x="437" y="-172"/>
      <point x="514" y="-66"/>
      <point x="514" y="72" type="curve" smooth="yes"/>
      <point x="514" y="208"/>
      <point x="460" y="261"/>
      <point x="350" y="295" type="curve"/>
      <point x="341" y="208" type="line"/>
      <point x="424" y="185"/>
      <point x="469" y="160"/>
      <point x="469" y="53" type="curve" smooth="yes"/>
      <point x="469" y="-17"/>
      <point x="440" y="-92"/>
      <point x="399" y="-107" type="curve"/>
      <point x="427" y="-126" type="line"/>
      <point x="428" y="-13"/>
      <point x="387" y="103"/>
      <point x="294" y="103" type="curve" smooth="yes"/>
      <point x="221" y="103"/>
      <point x="180" y="39"/>
      <point x="180" y="-40" type="curve" smooth="yes"/>
      <point x="180" y="-128"/>
      <point x="219" y="-176"/>
      <point x="267" y="-176" type="curve" smooth="yes"/>
      <point x="307" y="-176"/>
      <point x="325" y="-142"/>
      <point x="325" y="-107" type="curve" smooth="yes"/>
      <point x="325" y="-69"/>
      <point x="302" y="-44"/>
      <point x="270" y="-44" type="curve" smooth="yes"/>
      <point x="244" y="-44"/>
      <point x="220" y="-67"/>
      <point x="220" y="-95" type="curve"/>
      <point x="255" y="-94" type="line"/>
      <point x="240" y="-85"/>
      <point x="227" y="-65"/>
      <point x="227" y="-30" type="curve" smooth="yes"/>
      <point x="227" y="7"/>
      <point x="248" y="39"/>
      <point x="283" y="39" type="curve" smooth="yes"/>
      <point x="342" y="39"/>
      <point x="362" y="-52"/>
      <point x="362" y="-139" type="curve" smooth="yes"/>
      <point x="362" y="-157"/>
      <point x="362" y="-174"/>
      <point x="360" y="-190" type="curve"/>
    </contour>
  </outline>
</glyph>
<glyph name="one-beng" format="2">
  <advance width="384"/>
  <unicode hex="09E7"/>
  <outline>
    <contour>
      <point x="215" y="13" type="curve" smooth="yes"/>
      <point x="298" y="13"/>
      <point x="351" y="87"/>
      <point x="351" y="192" type="curve" smooth="yes"/>
      <point x="351" y="303"/>
      <point x="304" y="354"/>
      <point x="223" y="407" type="curve" smooth="yes"/>
      <point x="153" y="452"/>
      <point x="134" y="484"/>
      <point x="133" y="515" type="curve"/>
      <point x="109" y="516" type="line"/>
      <point x="116" y="507"/>
      <point x="127" y="500"/>
      <point x="143" y="500" type="curve" smooth="yes"/>
      <point x="176" y="500"/>
      <point x="197" y="526"/>
      <point x="197" y="561" type="curve" smooth="yes"/>
      <point x="197" y="596"/>
      <point x="175" y="624"/>
      <point x="131" y="624" type="curve" smooth="yes"/>
      <point x="86" y="624"/>
      <point x="50" y="583"/>
      <point x="50" y="522" type="curve" smooth="yes"/>
      <point x="50" y="445"/>
      <point x="96" y="394"/>
      <point x="175" y="351" type="curve" smooth="yes"/>
      <point x="266" y="302"/>
      <point x="305" y="264"/>
      <point x="305" y="194" type="curve" smooth="yes"/>
      <point x="305" y="126"/>
      <point x="272" y="80"/>
      <point x="221" y="80" type="curve" smooth="yes"/>
      <point x="195" y="80"/>
      <point x="178" y="90"/>
      <point x="166" y="108" type="curve"/>
      <point x="152" y="95" type="line"/>
      <point x="162" y="90"/>
      <point x="173" y="88"/>
      <point x="179" y="88" type="curve" smooth="yes"/>
      <point x="207" y="88"/>
      <point x="224" y="117"/>
      <point x="224" y="152" type="curve" smooth="yes"/>
      <point x="224" y="192"/>
      <point x="200" y="222"/>
      <point x="162" y="222" type="curve" smooth="yes"/>
      <point x="118" y="222"/>
      <point x="92" y="186"/>
      <point x="92" y="134" type="curve" smooth="yes"/>
      <point x="92" y="53"/>
      <point x="152" y="13"/>
    </contour>
  </outline>
</glyph>
<glyph name="three-beng" format="2">
  <advance width="477"/>
  <unicode hex="09E9"/>
  <outline>
    <contour>
      <point x="277" y="57" type="curve" smooth="yes"/>
      <point x="372" y="57"/>
      <point x="439" y="130"/>
      <point x="439" y="287" type="curve" smooth="yes"/>
      <point x="439" y="443"/>
      <point x="371" y="536"/>
      <point x="270" y="536" type="curve" smooth="yes"/>
      <point x="204" y="536"/>
      <point x="162" y="492"/>
      <point x="162" y="422" type="curve" smooth="yes"/>
      <point x="162" y="368"/>
      <point x="194" y="325"/>
      <point x="248" y="325" type="curve" smooth="yes"/>
      <point x="296" y="325"/>
      <point x="325" y="365"/>
      <point x="325" y="411" type="curve" smooth="yes"/>
      <point x="325" y="446"/>
      <point x="311" y="476"/>
      <point x="299" y="491" type="curve"/>
      <point x="271" y="448" type="line"/>
      <point x="280" y="452"/>
      <point x="293" y="454"/>
      <point x="308" y="454" type="curve" smooth="yes"/>
      <point x="352" y="454"/>
      <point x="390" y="414"/>
      <point x="390" y="302" type="curve" smooth="yes"/>
      <point x="390" y="185"/>
      <point x="337" y="142"/>
      <point x="273" y="142" type="curve" smooth="yes"/>
      <point x="169" y="142"/>
      <point x="105" y="231"/>
      <point x="54" y="500" type="curve"/>
      <point x="16" y="492" type="line"/>
      <point x="66" y="176"/>
      <point x="148" y="57"/>
    </contour>
  </outline>
</glyph>
<glyph name="four-beng" format="2">
  <advance width="399"/>
  <unicode hex="09EA"/>
  <outline>
    <contour>
      <point x="204" y="7" type="curve" smooth="yes"/>
      <point x="298" y="7"/>
      <point x="351" y="80"/>
      <point x="351" y="165" type="curve" smooth="yes"/>
      <point x="351" y="248"/>
      <point x="306" y="288"/>
      <point x="241" y="337" type="curve"/>
      <point x="208" y="314" type="line"/>
      <point x="252" y="278"/>
      <point x="283" y="237"/>
      <point x="283" y="182" type="curve" smooth="yes"/>
      <point x="283" y="114"/>
      <point x="237" y="70"/>
      <point x="187" y="70" type="curve" smooth="yes"/>
      <point x="145" y="70"/>
      <point x="112" y="97"/>
      <point x="112" y="155" type="curve" smooth="yes"/>
      <point x="112" y="216"/>
      <point x="160" y="249"/>
      <point x="226" y="293" type="curve" smooth="yes"/>
      <point x="299" y="342"/>
      <point x="339" y="382"/>
      <point x="339" y="468" type="curve" smooth="yes"/>
      <point x="339" y="562"/>
      <point x="272" y="615"/>
      <point x="196" y="615" type="curve" smooth="yes"/>
      <point x="111" y="615"/>
      <point x="63" y="551"/>
      <point x="63" y="476" type="curve" smooth="yes"/>
      <point x="63" y="385"/>
      <point x="126" y="346"/>
      <point x="161" y="315" type="curve"/>
      <point x="191" y="333" type="line"/>
      <point x="156" y="371"/>
      <point x="135" y="417"/>
      <point x="135" y="465" type="curve" smooth="yes"/>
      <point x="135" y="523"/>
      <point x="167" y="555"/>
      <point x="212" y="555" type="curve" smooth="yes"/>
      <point x="253" y="555"/>
      <point x="279" y="532"/>
      <point x="279" y="484" type="curve" smooth="yes"/>
      <point x="279" y="434"/>
      <point x="246" y="397"/>
      <point x="187" y="364" type="curve" smooth="yes"/>
      <point x="109" y="320"/>
      <point x="48" y="276"/>
      <point x="48" y="176" type="curve" smooth="yes"/>
      <point x="48" y="68"/>
      <point x="125" y="7"/>
    </contour>
  </outline>
</glyph>
<glyph name="seven-beng" format="2">
  <advance width="406"/>
  <unicode hex="09ED"/>
  <outline>
    <contour>
      <point x="337" y="0" type="curve" smooth="yes"/>
      <point x="374" y="0"/>
      <point x="393" y="27"/>
      <point x="393" y="63" type="curve" smooth="yes"/>
      <point x="393" y="98"/>
      <point x="370" y="124"/>
      <point x="339" y="124" type="curve" smooth="yes"/>
      <point x="310" y="124"/>
      <point x="298" y="104"/>
      <point x="296" y="76" type="curve"/>
      <point x="315" y="76" type="line"/>
      <point x="315" y="486" type="line" smooth="yes"/>
      <point x="315" y="560"/>
      <point x="276" y="622"/>
      <point x="199" y="622" type="curve" smooth="yes"/>
      <point x="111" y="622"/>
      <point x="41" y="537"/>
      <point x="41" y="425" type="curve" smooth="yes"/>
      <point x="41" y="282"/>
      <point x="130" y="235"/>
      <point x="197" y="235" type="curve" smooth="yes"/>
      <point x="234" y="235"/>
      <point x="256" y="251"/>
      <point x="278" y="265" type="curve"/>
      <point x="282" y="354" type="line"/>
      <point x="255" y="324"/>
      <point x="215" y="306"/>
      <point x="176" y="306" type="curve" smooth="yes"/>
      <point x="126" y="306"/>
      <point x="99" y="344"/>
      <point x="99" y="397" type="curve" smooth="yes"/>
      <point x="99" y="482"/>
      <point x="164" y="561"/>
      <point x="218" y="561" type="curve" smooth="yes"/>
      <point x="250" y="561"/>
      <point x="264" y="537"/>
      <point x="264" y="498" type="curve" smooth="yes"/>
      <point x="264" y="97" type="line" smooth="yes"/>
      <point x="264" y="40"/>
      <point x="292" y="0"/>
    </contour>
  </outline>
</glyph>
<glyph name="eight-beng" format="2">
  <advance width="462"/>
  <unicode hex="09EE"/>
  <outline>
    <contour>
      <point x="217" y="11" type="curve" smooth="yes"/>
      <point x="290" y="11"/>
      <point x="369" y="112"/>
      <point x="369" y="214" type="curve" smooth="yes"/>
      <point x="369" y="265"/>
      <point x="344" y="297"/>
      <point x="304" y="348" type="curve"/>
      <point x="271" y="348" type="line"/>
      <point x="291" y="304"/>
      <point x="303" y="277"/>
      <point x="303" y="237" type="curve" smooth="yes"/>
      <point x="303" y="150"/>
      <point x="252" y="74"/>
      <point x="200" y="74" type="curve" smooth="yes"/>
      <point x="177" y="74"/>
      <point x="157" y="90"/>
      <point x="158" y="132" type="curve" smooth="yes"/>
      <point x="158" y="532" type="line" smooth="yes"/>
      <point x="158" y="592"/>
      <point x="129" y="624"/>
      <point x="87" y="624" type="curve" smooth="yes"/>
      <point x="48" y="624"/>
      <point x="28" y="595"/>
      <point x="28" y="560" type="curve" smooth="yes"/>
      <point x="28" y="524"/>
      <point x="49" y="497"/>
      <point x="86" y="497" type="curve" smooth="yes"/>
      <point x="116" y="497"/>
      <point x="126" y="517"/>
      <point x="128" y="545" type="curve"/>
      <point x="106" y="545" type="line"/>
      <point x="106" y="142" type="line" smooth="yes"/>
      <point x="106" y="70"/>
      <point x="150" y="11"/>
    </contour>
    <contour>
      <point x="143" y="279" type="line"/>
      <point x="179" y="312"/>
      <point x="237" y="343"/>
      <point x="290" y="343" type="curve" smooth="yes"/>
      <point x="334" y="343"/>
      <point x="356" y="305"/>
      <point x="390" y="305" type="curve" smooth="yes"/>
      <point x="424" y="305"/>
      <point x="445" y="325"/>
      <point x="452" y="422" type="curve"/>
      <point x="421" y="431" type="line"/>
      <point x="406" y="381"/>
      <point x="394" y="371"/>
      <point x="367" y="371" type="curve" smooth="yes"/>
      <point x="316" y="371"/>
      <point x="293" y="398"/>
      <point x="243" y="398" type="curve" smooth="yes"/>
      <point x="213" y="398"/>
      <point x="177" y="386"/>
      <point x="145" y="364" type="curve"/>
    </contour>
  </outline>
</glyph>
<glyph name="nine-beng" format="2">
  <advance width="436"/>
  <unicode hex="09EF"/>
  <outline>
    <contour>
      <point x="219" y="18" type="line"/>
      <point x="305" y="30"/>
      <point x="377" y="123"/>
      <point x="377" y="244" type="curve" smooth="yes"/>
      <point x="377" y="358"/>
      <point x="300" y="402"/>
      <point x="238" y="438" type="curve" smooth="yes"/>
      <point x="196" y="462"/>
      <point x="161" y="482"/>
      <point x="160" y="516" type="curve"/>
      <point x="136" y="516" type="line"/>
      <point x="143" y="507"/>
      <point x="154" y="500"/>
      <point x="170" y="500" type="curve" smooth="yes"/>
      <point x="203" y="500"/>
      <point x="224" y="526"/>
      <point x="224" y="561" type="curve" smooth="yes"/>
      <point x="224" y="596"/>
      <point x="202" y="624"/>
      <point x="158" y="624" type="curve" smooth="yes"/>
      <point x="113" y="624"/>
      <point x="77" y="583"/>
      <point x="77" y="528" type="curve" smooth="yes"/>
      <point x="77" y="445"/>
      <point x="138" y="415"/>
      <point x="201" y="385" type="curve" smooth="yes"/>
      <point x="265" y="354"/>
      <point x="330" y="323"/>
      <point x="330" y="232" type="curve" smooth="yes"/>
      <point x="330" y="165"/>
      <point x="308" y="120"/>
      <point x="254" y="105" type="curve"/>
      <point x="282" y="86" type="line"/>
      <point x="283" y="199"/>
      <point x="242" y="315"/>
      <point x="149" y="315" type="curve" smooth="yes"/>
      <point x="76" y="315"/>
      <point x="35" y="251"/>
      <point x="35" y="172" type="curve" smooth="yes"/>
      <point x="35" y="84"/>
      <point x="74" y="36"/>
      <point x="122" y="36" type="curve" smooth="yes"/>
      <point x="162" y="36"/>
      <point x="180" y="70"/>
      <point x="180" y="105" type="curve" smooth="yes"/>
      <point x="180" y="143"/>
      <point x="157" y="168"/>
      <point x="125" y="168" type="curve" smooth="yes"/>
      <point x="99" y="168"/>
      <point x="75" y="145"/>
      <point x="75" y="117" type="curve"/>
      <point x="110" y="118" type="line"/>
      <point x="95" y="127"/>
      <point x="82" y="147"/>
      <point x="82" y="182" type="curve" smooth="yes"/>
      <point x="82" y="219"/>
      <point x="103" y="251"/>
      <point x="138" y="251" type="curve" smooth="yes"/>
      <point x="197" y="251"/>
      <point x="217" y="160"/>
      <point x="217" y="73" type="curve" smooth="yes"/>
      <point x="217" y="55"/>
      <point x="217" y="38"/>
      <point x="214" y="22" type="curve"/>
    </contour>
  </outline>
</glyph>
<glyph name="rupeemark-beng" format="2">
  <advance width="412"/>
  <unicode hex="09F2"/>
  <outline>
    <contour>
      <point x="343" y="14" type="curve"/>
      <point x="379" y="26" type="line"/>
      <point x="289" y="340"/>
      <point x="166" y="459"/>
      <point x="79" y="545" type="curve"/>
      <point x="58" y="455" type="line"/>
      <point x="131" y="393"/>
      <point x="247" y="286"/>
    </contour>
  </outline>
</glyph>
<glyph name="twoNumr-beng" format="2">
  <advance width="485"/>
  <unicode hex="09F5"/>
  <outline>
    <contour>
      <point x="179" y="11" type="line"/>
      <point x="294" y="101"/>
      <point x="391" y="274"/>
      <point x="436" y="625" type="curve"/>
      <point x="392" y="634" type="line"/>
      <point x="359" y="434"/>
      <point x="309" y="283"/>
      <point x="236" y="194" type="curve"/>
      <point x="258" y="185" type="line"/>
      <point x="263" y="199"/>
      <point x="265" y="217"/>
      <point x="265" y="232" type="curve" smooth="yes"/>
      <point x="265" y="341"/>
      <point x="212" y="392"/>
      <point x="134" y="392" type="curve" smooth="yes"/>
      <point x="68" y="392"/>
      <point x="23" y="337"/>
      <point x="23" y="280" type="curve" smooth="yes"/>
      <point x="23" y="223"/>
      <point x="57" y="196"/>
      <point x="93" y="196" type="curve" smooth="yes"/>
      <point x="135" y="196"/>
      <point x="157" y="224"/>
      <point x="157" y="263" type="curve" smooth="yes"/>
      <point x="157" y="295"/>
      <point x="143" y="316"/>
      <point x="112" y="327" type="curve"/>
      <point x="110" y="302" type="line"/>
      <point x="116" y="313"/>
      <point x="130" y="326"/>
      <point x="151" y="326" type="curve" smooth="yes"/>
      <point x="186" y="326"/>
      <point x="210" y="292"/>
      <point x="210" y="240" type="curve" smooth="yes"/>
      <point x="210" y="154"/>
      <point x="160" y="109"/>
      <point x="107" y="75" type="curve"/>
    </contour>
  </outline>
</glyph>
<glyph name="threeNumr-beng" format="2">
  <advance width="526"/>
  <unicode hex="09F6"/>
  <outline>
    <contour>
      <point x="180" y="15" type="curve" smooth="yes"/>
      <point x="285" y="15"/>
      <point x="387" y="142"/>
      <point x="477" y="625" type="curve"/>
      <point x="435" y="637" type="line"/>
      <point x="348" y="239"/>
      <point x="223" y="78"/>
      <point x="152" y="78" type="curve" smooth="yes"/>
      <point x="129" y="78"/>
      <point x="112" y="93"/>
      <point x="112" y="114" type="curve" smooth="yes"/>
      <point x="112" y="140"/>
      <point x="132" y="156"/>
      <point x="181" y="180" type="curve" smooth="yes"/>
      <point x="243" y="210"/>
      <point x="280" y="253"/>
      <point x="280" y="322" type="curve" smooth="yes"/>
      <point x="280" y="424"/>
      <point x="217" y="469"/>
      <point x="151" y="469" type="curve" smooth="yes"/>
      <point x="83" y="469"/>
      <point x="50" y="418"/>
      <point x="50" y="365" type="curve" smooth="yes"/>
      <point x="50" y="312"/>
      <point x="81" y="284"/>
      <point x="117" y="284" type="curve" smooth="yes"/>
      <point x="156" y="284"/>
      <point x="176" y="316"/>
      <point x="176" y="350" type="curve" smooth="yes"/>
      <point x="176" y="374"/>
      <point x="170" y="401"/>
      <point x="139" y="413" type="curve"/>
      <point x="134" y="378" type="line"/>
      <point x="144" y="393"/>
      <point x="159" y="404"/>
      <point x="177" y="404" type="curve" smooth="yes"/>
      <point x="205" y="404"/>
      <point x="230" y="386"/>
      <point x="230" y="347" type="curve" smooth="yes"/>
      <point x="230" y="304"/>
      <point x="202" y="279"/>
      <point x="140" y="252" type="curve" smooth="yes"/>
      <point x="82" y="227"/>
      <point x="44" y="198"/>
      <point x="44" y="146" type="curve" smooth="yes"/>
      <point x="44" y="83"/>
      <point x="104" y="15"/>
    </contour>
  </outline>
</glyph>
<glyph name="fourNumr-beng" format="2">
  <advance width="256"/>
  <unicode hex="09F7"/>
  <outline>
    <contour>
      <point x="179" y="0" type="curve" smooth="yes"/>
      <point x="220" y="0"/>
      <point x="241" y="28"/>
      <point x="241" y="65" type="curve" smooth="yes"/>
      <point x="241" y="101"/>
      <point x="218" y="127"/>
      <point x="184" y="127" type="curve" smooth="yes"/>
      <point x="155" y="127"/>
      <point x="139" y="107"/>
      <point x="134" y="79" type="curve"/>
      <point x="163" y="79" type="line"/>
      <point x="163" y="532" type="line" smooth="yes"/>
      <point x="163" y="592"/>
      <point x="137" y="624"/>
      <point x="96" y="624" type="curve" smooth="yes"/>
      <point x="55" y="624"/>
      <point x="34" y="596"/>
      <point x="34" y="559" type="curve" smooth="yes"/>
      <point x="34" y="523"/>
      <point x="57" y="497"/>
      <point x="91" y="497" type="curve" smooth="yes"/>
      <point x="120" y="497"/>
      <point x="136" y="517"/>
      <point x="141" y="545" type="curve"/>
      <point x="112" y="545" type="line"/>
      <point x="112" y="92" type="line" smooth="yes"/>
      <point x="112" y="32"/>
      <point x="138" y="0"/>
    </contour>
  </outline>
</glyph>
<glyph name="oneLessNumr-beng" format="2">
  <advance width="469"/>
  <unicode hex="09F8"/>
  <outline>
    <contour>
      <point x="392" y="25" type="curve" smooth="yes"/>
      <point x="433" y="25"/>
      <point x="454" y="53"/>
      <point x="454" y="90" type="curve" smooth="yes"/>
      <point x="454" y="126"/>
      <point x="431" y="152"/>
      <point x="397" y="152" type="curve" smooth="yes"/>
      <point x="368" y="152"/>
      <point x="352" y="132"/>
      <point x="347" y="104" type="curve"/>
      <point x="376" y="104" type="line"/>
      <point x="376" y="443" type="line"/>
      <point x="323" y="486" type="line"/>
      <point x="253" y="418"/>
      <point x="194" y="336"/>
      <point x="146" y="256" type="curve"/>
      <point x="159" y="238" type="line"/>
      <point x="162" y="277"/>
      <point x="163" y="327"/>
      <point x="163" y="366" type="curve" smooth="yes"/>
      <point x="163" y="532" type="line" smooth="yes"/>
      <point x="163" y="592"/>
      <point x="137" y="624"/>
      <point x="96" y="624" type="curve" smooth="yes"/>
      <point x="55" y="624"/>
      <point x="34" y="596"/>
      <point x="34" y="559" type="curve" smooth="yes"/>
      <point x="34" y="523"/>
      <point x="57" y="497"/>
      <point x="91" y="497" type="curve" smooth="yes"/>
      <point x="120" y="497"/>
      <point x="136" y="517"/>
      <point x="141" y="545" type="curve"/>
      <point x="112" y="545" type="line"/>
      <point x="112" y="183" type="line"/>
      <point x="163" y="153" type="line"/>
      <point x="228" y="258"/>
      <point x="272" y="324"/>
      <point x="343" y="397" type="curve"/>
      <point x="325" y="406" type="line"/>
      <point x="325" y="117" type="line" smooth="yes"/>
      <point x="325" y="57"/>
      <point x="351" y="25"/>
    </contour>
  </outline>
</glyph>
<glyph name="sixteenDnom-beng" format="2">
  <advance width="318"/>
  <unicode hex="09F9"/>
  <outline>
    <contour>
      <point x="162" y="152" type="curve" smooth="yes"/>
      <point x="232" y="152"/>
      <point x="283" y="216"/>
      <point x="283" y="308" type="curve" smooth="yes"/>
      <point x="283" y="404"/>
      <point x="233" y="475"/>
      <point x="157" y="475" type="curve" smooth="yes"/>
      <point x="85" y="475"/>
      <point x="35" y="411"/>
      <point x="35" y="317" type="curve" smooth="yes"/>
      <point x="35" y="225"/>
      <point x="87" y="152"/>
    </contour>
    <contour>
      <point x="145" y="213" type="curve" smooth="yes"/>
      <point x="111" y="213"/>
      <point x="91" y="243"/>
      <point x="91" y="293" type="curve" smooth="yes"/>
      <point x="91" y="356"/>
      <point x="132" y="411"/>
      <point x="176" y="411" type="curve" smooth="yes"/>
      <point x="206" y="411"/>
      <point x="229" y="379"/>
      <point x="229" y="332" type="curve" smooth="yes"/>
      <point x="229" y="270"/>
      <point x="187" y="213"/>
    </contour>
  </outline>
</glyph>
<glyph name="isshar-beng" format="2">
  <advance width="425"/>
  <unicode hex="09FA"/>
  <outline>
    <contour>
      <point x="163" y="164" type="curve" smooth="yes"/>
      <point x="254" y="164"/>
      <point x="323" y="253"/>
      <point x="393" y="495" type="curve"/>
      <point x="354" y="507" type="line"/>
      <point x="288" y="301"/>
      <point x="225" y="256"/>
      <point x="167" y="256" type="curve" smooth="yes"/>
      <point x="98" y="256"/>
      <point x="74" y="321"/>
      <point x="74" y="417" type="curve" smooth="yes"/>
      <point x="74" y="425"/>
      <point x="74" y="433"/>
      <point x="74" y="441" type="curve"/>
      <point x="36" y="437" type="line"/>
      <point x="33" y="414"/>
      <point x="31" y="390"/>
      <point x="31" y="365" type="curve" smooth="yes"/>
      <point x="31" y="247"/>
      <point x="75" y="164"/>
    </contour>
    <contour>
      <point x="180" y="341" type="curve" smooth="yes"/>
      <point x="207" y="341"/>
      <point x="228" y="361"/>
      <point x="228" y="397" type="curve" smooth="yes"/>
      <point x="228" y="432"/>
      <point x="207" y="454"/>
      <point x="180" y="454" type="curve" smooth="yes"/>
      <point x="151" y="454"/>
      <point x="130" y="432"/>
      <point x="130" y="397" type="curve" smooth="yes"/>
      <point x="130" y="362"/>
      <point x="152" y="341"/>
    </contour>
  </outline>
</glyph>
<glyph name="ganda-beng" format="2">
  <advance width="264"/>
  <unicode hex="09FB"/>
  <outline>
    <contour>
      <point x="232" y="-73" type="curve"/>
      <point x="266" y="-44" type="line"/>
      <point x="198" y="64"/>
      <point x="123" y="201"/>
      <point x="123" y="294" type="curve" smooth="yes"/>
      <point x="123" y="341"/>
      <point x="137" y="367"/>
      <point x="176" y="393" type="curve"/>
      <point x="139" y="472" type="line"/>
      <point x="77" y="440"/>
      <point x="47" y="395"/>
      <point x="47" y="327" type="curve" smooth="yes"/>
      <point x="47" y="207"/>
      <point x="131" y="82"/>
    </contour>
  </outline>
</glyph>
<glyph name="uni09FC" format="2">
  <advance width="392"/>
  <unicode hex="09FC"/>
  <anchor x="-167" y="0" name="vedic"/>
  <outline>
    <contour>
      <point x="200" y="264" type="curve" smooth="yes"/>
      <point x="286" y="264"/>
      <point x="323" y="340"/>
      <point x="335" y="450" type="curve"/>
      <point x="298" y="461" type="line"/>
      <point x="286" y="403"/>
      <point x="266" y="346"/>
      <point x="197" y="346" type="curve" smooth="yes"/>
      <point x="137" y="346"/>
      <point x="109" y="403"/>
      <point x="94" y="461" type="curve"/>
      <point x="57" y="450" type="line"/>
      <point x="72" y="340"/>
      <point x="115" y="264"/>
    </contour>
    <contour>
      <point x="197" y="404" type="curve" smooth="yes"/>
      <point x="224" y="404"/>
      <point x="245" y="424"/>
      <point x="245" y="460" type="curve" smooth="yes"/>
      <point x="245" y="495"/>
      <point x="224" y="517"/>
      <point x="197" y="517" type="curve" smooth="yes"/>
      <point x="168" y="517"/>
      <point x="147" y="495"/>
      <point x="147" y="460" type="curve" smooth="yes"/>
      <point x="147" y="425"/>
      <point x="169" y="404"/>
    </contour>
    <contour>
      <point x="343" y="-23" type="curve"/>
      <point x="372" y="8" type="line"/>
      <point x="314" y="87"/>
      <point x="238" y="137"/>
      <point x="145" y="167" type="curve"/>
      <point x="125" y="101" type="line"/>
      <point x="210" y="82"/>
      <point x="286" y="37"/>
    </contour>
  </outline>
</glyph>
<glyph name="uni09FD" format="2">
  <advance width="363"/>
  <unicode hex="09FD"/>
  <outline>
    <contour>
      <point x="172" y="280" type="curve" smooth="yes"/>
      <point x="213" y="280"/>
      <point x="247" y="301"/>
      <point x="268" y="335" type="curve" smooth="yes"/>
      <point x="284" y="359"/>
      <point x="293" y="390"/>
      <point x="293" y="425" type="curve" smooth="yes"/>
      <point x="293" y="493"/>
      <point x="254" y="558"/>
      <point x="190" y="558" type="curve" smooth="yes"/>
      <point x="154" y="558"/>
      <point x="123" y="541"/>
      <point x="101" y="512" type="curve" smooth="yes"/>
      <point x="81" y="487"/>
      <point x="70" y="453"/>
      <point x="70" y="415" type="curve" smooth="yes"/>
      <point x="70" y="345"/>
      <point x="109" y="280"/>
    </contour>
    <contour>
      <point x="181" y="318" type="curve" smooth="yes"/>
      <point x="140" y="318"/>
      <point x="117" y="368"/>
      <point x="117" y="420" type="curve" smooth="yes"/>
      <point x="117" y="479"/>
      <point x="144" y="522"/>
      <point x="181" y="522" type="curve" smooth="yes"/>
      <point x="222" y="522"/>
      <point x="245" y="471"/>
      <point x="245" y="420" type="curve" smooth="yes"/>
      <point x="245" y="361"/>
      <point x="219" y="318"/>
    </contour>
  </outline>
</glyph>
<glyph name="uni09FE" format="2">
  <unicode hex="09FE"/>
  <outline>
    <contour>
      <point x="128" y="866" type="curve"/>
      <point x="147" y="890" type="line"/>
      <point x="103" y="933"/>
      <point x="34" y="978"/>
      <point x="-27" y="991" type="curve"/>
      <point x="-55" y="974" type="line"/>
      <point x="-44" y="968"/>
      <point x="-25" y="965"/>
      <point x="-6" y="965" type="curve" smooth="yes"/>
      <point x="52" y="965"/>
      <point x="102" y="1004"/>
      <point x="102" y="1066" type="curve" smooth="yes"/>
      <point x="102" y="1116"/>
      <point x="68" y="1161"/>
      <point x="-18" y="1161" type="curve" smooth="yes"/>
      <point x="-64" y="1161"/>
      <point x="-96" y="1143"/>
      <point x="-96" y="1108" type="curve" smooth="yes"/>
      <point x="-96" y="1079"/>
      <point x="-78" y="1057"/>
      <point x="-44" y="1057" type="curve" smooth="yes"/>
      <point x="-6" y="1057"/>
      <point x="5" y="1081"/>
      <point x="5" y="1118" type="curve" smooth="yes"/>
      <point x="5" y="1152"/>
      <point x="-25" y="1198"/>
      <point x="-50" y="1212" type="curve"/>
      <point x="-162" y="1212" type="line"/>
      <point x="-145" y="1177" type="line"/>
      <point x="-55" y="1177" type="line"/>
      <point x="-63" y="1190" type="line"/>
      <point x="-87" y="1191" type="line"/>
      <point x="-62" y="1181"/>
      <point x="-38" y="1162"/>
      <point x="-32" y="1135" type="curve"/>
      <point x="-33" y="1101" type="line"/>
      <point x="-23" y="1110"/>
      <point x="-5" y="1118"/>
      <point x="16" y="1118" type="curve" smooth="yes"/>
      <point x="51" y="1118"/>
      <point x="68" y="1099"/>
      <point x="68" y="1072" type="curve" smooth="yes"/>
      <point x="68" y="1035"/>
      <point x="36" y="1016"/>
      <point x="-19" y="1016" type="curve" smooth="yes"/>
      <point x="-50" y="1016"/>
      <point x="-77" y="1019"/>
      <point x="-103" y="1028" type="curve"/>
      <point x="-92" y="968" type="line"/>
      <point x="-4" y="955"/>
      <point x="55" y="930"/>
    </contour>
  </outline>
</glyph>
<glyph name="uni1CD6" format="2">
  <unicode hex="1CD6"/>
  <note>
uni1CD6
</note>
  <anchor x="-299" y="370" name="_vedic"/>
  <outline>
    <contour>
      <point x="-408" y="-255" type="line"/>
      <point x="-141" y="-255" type="line"/>
      <point x="-176" y="-203" type="line"/>
      <point x="-394" y="-203" type="line"/>
      <point x="-394" y="-105" type="line"/>
      <point x="-445" y="-67" type="line"/>
      <point x="-445" y="-210" type="line"/>
    </contour>
  </outline>
</glyph>
<glyph name="uni1CD8" format="2">
  <unicode hex="1CD8"/>
  <note>
uni1CD8
</note>
  <anchor x="-299" y="370" name="_vedic"/>
  <outline>
    <contour>
      <point x="-294" y="-250" type="curve" smooth="yes"/>
      <point x="-207" y="-250"/>
      <point x="-170" y="-177"/>
      <point x="-157" y="-82" type="curve"/>
      <point x="-215" y="-72" type="line"/>
      <point x="-224" y="-142"/>
      <point x="-242" y="-196"/>
      <point x="-307" y="-196" type="curve" smooth="yes"/>
      <point x="-365" y="-196"/>
      <point x="-397" y="-146"/>
      <point x="-410" y="-71" type="curve"/>
      <point x="-442" y="-77" type="line"/>
      <point x="-432" y="-174"/>
      <point x="-389" y="-250"/>
    </contour>
  </outline>
</glyph>
<glyph name="uni1CE1" format="2">
  <advance width="465"/>
  <unicode hex="1CE1"/>
  <note>
uni1CE1
</note>
  <outline>
    <contour>
      <point x="139" y="-163" type="curve" smooth="yes"/>
      <point x="220" y="-163"/>
      <point x="273" y="-119"/>
      <point x="273" y="22" type="curve" smooth="yes"/>
      <point x="273" y="176"/>
      <point x="228" y="416"/>
      <point x="228" y="633" type="curve" smooth="yes"/>
      <point x="228" y="740"/>
      <point x="266" y="763"/>
      <point x="300" y="763" type="curve" smooth="yes"/>
      <point x="339" y="763"/>
      <point x="371" y="736"/>
      <point x="398" y="694" type="curve"/>
      <point x="425" y="709" type="line"/>
      <point x="388" y="799"/>
      <point x="347" y="836"/>
      <point x="287" y="836" type="curve" smooth="yes"/>
      <point x="213" y="836"/>
      <point x="167" y="781"/>
      <point x="167" y="661" type="curve" smooth="yes"/>
      <point x="167" y="491"/>
      <point x="212" y="292"/>
      <point x="212" y="66" type="curve" smooth="yes"/>
      <point x="212" y="-59"/>
      <point x="167" y="-90"/>
      <point x="111" y="-90" type="curve" smooth="yes"/>
      <point x="78" y="-90"/>
      <point x="42" y="-84"/>
      <point x="5" y="-52" type="curve"/>
      <point x="0" y="-70" type="line"/>
      <point x="20" y="-122"/>
      <point x="72" y="-163"/>
    </contour>
  </outline>
</glyph>
<glyph name="uni1CEA" format="2">
  <advance width="624"/>
  <unicode hex="1CEA"/>
  <note>
uni1CEA
</note>
  <anchor x="312" y="0" name="vedic"/>
  <outline>
    <contour>
      <point x="324" y="-5" type="curve" smooth="yes"/>
      <point x="462" y="-5"/>
      <point x="543" y="71"/>
      <point x="543" y="163" type="curve" smooth="yes"/>
      <point x="543" y="298"/>
      <point x="424" y="366"/>
      <point x="424" y="484" type="curve" smooth="yes"/>
      <point x="424" y="540"/>
      <point x="462" y="575"/>
      <point x="503" y="575" type="curve" smooth="yes"/>
      <point x="531" y="575"/>
      <point x="543" y="560"/>
      <point x="543" y="540" type="curve" smooth="yes"/>
      <point x="543" y="508"/>
      <point x="509" y="482"/>
      <point x="461" y="464" type="curve"/>
      <point x="496" y="394" type="line"/>
      <point x="558" y="420"/>
      <point x="596" y="454"/>
      <point x="596" y="509" type="curve" smooth="yes"/>
      <point x="596" y="576"/>
      <point x="545" y="633"/>
      <point x="475" y="633" type="curve" smooth="yes"/>
      <point x="407" y="633"/>
      <point x="354" y="580"/>
      <point x="354" y="504" type="curve" smooth="yes"/>
      <point x="354" y="398"/>
      <point x="471" y="328"/>
      <point x="471" y="199" type="curve" smooth="yes"/>
      <point x="471" y="115"/>
      <point x="404" y="58"/>
      <point x="297" y="58" type="curve" smooth="yes"/>
      <point x="205" y="58"/>
      <point x="152" y="91"/>
      <point x="152" y="150" type="curve" smooth="yes"/>
      <point x="152" y="250"/>
      <point x="294" y="344"/>
      <point x="294" y="461" type="curve" smooth="yes"/>
      <point x="294" y="541"/>
      <point x="230" y="629"/>
      <point x="151" y="629" type="curve" smooth="yes"/>
      <point x="94" y="629"/>
      <point x="52" y="589"/>
      <point x="52" y="535" type="curve" smooth="yes"/>
      <point x="52" y="483"/>
      <point x="84" y="434"/>
      <point x="136" y="392" type="curve"/>
      <point x="159" y="412" type="line"/>
      <point x="135" y="439"/>
      <point x="120" y="466"/>
      <point x="120" y="496" type="curve" smooth="yes"/>
      <point x="120" y="532"/>
      <point x="148" y="564"/>
      <point x="185" y="564" type="curve" smooth="yes"/>
      <point x="218" y="564"/>
      <point x="234" y="542"/>
      <point x="234" y="504" type="curve" smooth="yes"/>
      <point x="234" y="375"/>
      <point x="87" y="316"/>
      <point x="87" y="193" type="curve" smooth="yes"/>
      <point x="87" y="81"/>
      <point x="195" y="-5"/>
    </contour>
  </outline>
</glyph>
<glyph name="uni1CED" format="2">
  <unicode hex="1CED"/>
  <note>
uni1CED
</note>
  <anchor x="-299" y="370" name="_vedic"/>
  <outline>
    <contour>
      <point x="-400" y="-102" type="line"/>
      <point x="-227" y="-296" type="line"/>
      <point x="-183" y="-263" type="line"/>
      <point x="-354" y="-67" type="line"/>
    </contour>
  </outline>
</glyph>
<glyph name="uni1CF2" format="2">
  <advance width="370"/>
  <unicode hex="1CF2"/>
  <note>
uni1CF2
</note>
  <anchor x="-167" y="0" name="vedic"/>
  <outline>
    <contour>
      <point x="188" y="307" type="curve" smooth="yes"/>
      <point x="271" y="307"/>
      <point x="321" y="383"/>
      <point x="331" y="485" type="curve"/>
      <point x="261" y="498" type="line"/>
      <point x="256" y="422"/>
      <point x="231" y="372"/>
      <point x="175" y="372" type="curve" smooth="yes"/>
      <point x="119" y="372"/>
      <point x="87" y="422"/>
      <point x="80" y="498" type="curve"/>
      <point x="39" y="490" type="line"/>
      <point x="49" y="391"/>
      <point x="93" y="307"/>
    </contour>
    <contour>
      <point x="108" y="63" type="line"/>
      <point x="114" y="140"/>
      <point x="141" y="190"/>
      <point x="199" y="190" type="curve" smooth="yes"/>
      <point x="253" y="190"/>
      <point x="283" y="140"/>
      <point x="290" y="63" type="curve"/>
      <point x="331" y="72" type="line"/>
      <point x="321" y="171"/>
      <point x="278" y="254"/>
      <point x="187" y="254" type="curve" smooth="yes"/>
      <point x="101" y="254"/>
      <point x="49" y="179"/>
      <point x="39" y="77" type="curve"/>
    </contour>
  </outline>
</glyph>
<glyph name="uni1CF6" format="2">
  <advance width="502"/>
  <unicode hex="1CF6"/>
  <note>
uni1CF6
</note>
  <outline>
    <contour>
      <point x="181" y="134" type="curve" smooth="yes"/>
      <point x="242" y="134"/>
      <point x="290" y="195"/>
      <point x="290" y="292" type="curve" smooth="yes"/>
      <point x="290" y="401" type="line"/>
      <point x="222" y="423" type="line"/>
      <point x="222" y="287" type="line" smooth="yes"/>
      <point x="222" y="207"/>
      <point x="196" y="185"/>
      <point x="162" y="185" type="curve" smooth="yes"/>
      <point x="133" y="185"/>
      <point x="107" y="203"/>
      <point x="107" y="267" type="curve" smooth="yes"/>
      <point x="107" y="329"/>
      <point x="126" y="370"/>
      <point x="153" y="412" type="curve"/>
      <point x="82" y="458" type="line"/>
      <point x="63" y="428"/>
      <point x="42" y="385"/>
      <point x="42" y="323" type="curve" smooth="yes"/>
      <point x="42" y="201"/>
      <point x="107" y="134"/>
    </contour>
    <contour>
      <point x="351" y="134" type="curve" smooth="yes"/>
      <point x="416" y="134"/>
      <point x="460" y="180"/>
      <point x="460" y="271" type="curve" smooth="yes"/>
      <point x="460" y="360"/>
      <point x="416" y="418"/>
      <point x="382" y="455" type="curve"/>
      <point x="349" y="430" type="line"/>
      <point x="372" y="398"/>
      <point x="397" y="354"/>
      <point x="397" y="280" type="curve" smooth="yes"/>
      <point x="397" y="211"/>
      <point x="368" y="191"/>
      <point x="336" y="191" type="curve" smooth="yes"/>
      <point x="300" y="191"/>
      <point x="275" y="214"/>
      <point x="255" y="249" type="curve"/>
      <point x="233" y="231" type="line"/>
      <point x="258" y="168"/>
      <point x="299" y="134"/>
    </contour>
  </outline>
</glyph>
<glyph name="uni1CF7" format="2">
  <advance width="465"/>
  <unicode hex="1CF7"/>
  <note>
uni1CE1
</note>
  <outline>
    <contour>
      <point x="256" y="-163" type="line"/>
      <point x="267" y="-100"/>
      <point x="273" y="-46"/>
      <point x="273" y="35" type="curve" smooth="yes"/>
      <point x="273" y="219"/>
      <point x="212" y="418"/>
      <point x="212" y="619" type="curve" smooth="yes"/>
      <point x="212" y="731"/>
      <point x="250" y="763"/>
      <point x="297" y="763" type="curve" smooth="yes"/>
      <point x="339" y="763"/>
      <point x="371" y="736"/>
      <point x="398" y="694" type="curve"/>
      <point x="425" y="709" type="line"/>
      <point x="388" y="799"/>
      <point x="347" y="836"/>
      <point x="284" y="836" type="curve" smooth="yes"/>
      <point x="198" y="836"/>
      <point x="151" y="761"/>
      <point x="151" y="655" type="curve" smooth="yes"/>
      <point x="151" y="462"/>
      <point x="212" y="324"/>
      <point x="212" y="75" type="curve" smooth="yes"/>
      <point x="212" y="-10"/>
      <point x="202" y="-88"/>
      <point x="185" y="-154" type="curve"/>
    </contour>
  </outline>
</glyph>
<glyph name="endash" format="2">
  <advance width="500"/>
  <unicode hex="2013"/>
  <outline>
    <contour>
      <point x="-4" y="243" type="line"/>
      <point x="504" y="243" type="line"/>
      <point x="504" y="294" type="line"/>
      <point x="-4" y="294" type="line"/>
    </contour>
  </outline>
</glyph>
<glyph name="quoteleft" format="2">
  <advance width="205"/>
  <unicode hex="2018"/>
  <outline>
    <contour>
      <point x="108" y="435" type="curve" smooth="yes"/>
      <point x="138" y="435"/>
      <point x="161" y="455"/>
      <point x="161" y="493" type="curve" smooth="yes"/>
      <point x="161" y="552"/>
      <point x="103" y="543"/>
      <point x="103" y="583" type="curve"/>
      <point x="103" y="622"/>
      <point x="127" y="653"/>
      <point x="177" y="674" type="curve"/>
      <point x="177" y="715" type="line"/>
      <point x="81" y="680"/>
      <point x="44" y="604"/>
      <point x="44" y="519" type="curve" smooth="yes"/>
      <point x="44" y="464"/>
      <point x="72" y="435"/>
    </contour>
  </outline>
</glyph>
<glyph name="quotedblright" format="2">
  <advance width="333"/>
  <unicode hex="201D"/>
  <outline>
    <contour>
      <point x="155" y="434" type="line"/>
      <point x="252" y="469"/>
      <point x="288" y="545"/>
      <point x="288" y="630" type="curve" smooth="yes"/>
      <point x="288" y="684"/>
      <point x="260" y="714"/>
      <point x="224" y="714" type="curve" smooth="yes"/>
      <point x="195" y="714"/>
      <point x="172" y="693"/>
      <point x="172" y="656" type="curve" smooth="yes"/>
      <point x="172" y="596"/>
      <point x="229" y="606"/>
      <point x="229" y="566" type="curve"/>
      <point x="229" y="527"/>
      <point x="206" y="495"/>
      <point x="155" y="474" type="curve"/>
    </contour>
    <contour>
      <point x="27" y="434" type="line"/>
      <point x="124" y="469"/>
      <point x="161" y="545"/>
      <point x="161" y="630" type="curve" smooth="yes"/>
      <point x="161" y="684"/>
      <point x="132" y="714"/>
      <point x="96" y="714" type="curve" smooth="yes"/>
      <point x="66" y="714"/>
      <point x="43" y="693"/>
      <point x="43" y="656" type="curve" smooth="yes"/>
      <point x="43" y="596"/>
      <point x="101" y="606"/>
      <point x="101" y="566" type="curve"/>
      <point x="101" y="527"/>
      <point x="77" y="495"/>
      <point x="27" y="474" type="curve"/>
    </contour>
  </outline>
</glyph>
<glyph name="ellipsis" format="2">
  <advance width="603"/>
  <unicode hex="2026"/>
  <outline>
    <contour>
      <point x="497" y="-7" type="curve" smooth="yes"/>
      <point x="526" y="-7"/>
      <point x="551" y="10"/>
      <point x="551" y="60" type="curve" smooth="yes"/>
      <point x="551" y="110"/>
      <point x="526" y="126"/>
      <point x="497" y="126" type="curve" smooth="yes"/>
      <point x="468" y="126"/>
      <point x="442" y="110"/>
      <point x="442" y="60" type="curve" smooth="yes"/>
      <point x="442" y="10"/>
      <point x="468" y="-7"/>
    </contour>
    <contour>
      <point x="106" y="-7" type="curve" smooth="yes"/>
      <point x="136" y="-7"/>
      <point x="160" y="10"/>
      <point x="160" y="60" type="curve" smooth="yes"/>
      <point x="160" y="110"/>
      <point x="136" y="126"/>
      <point x="106" y="126" type="curve" smooth="yes"/>
      <point x="77" y="126"/>
      <point x="52" y="110"/>
      <point x="52" y="60" type="curve" smooth="yes"/>
      <point x="52" y="10"/>
      <point x="77" y="-7"/>
    </contour>
    <contour>
      <point x="301" y="-7" type="curve" smooth="yes"/>
      <point x="330" y="-7"/>
      <point x="355" y="10"/>
      <point x="355" y="60" type="curve" smooth="yes"/>
      <point x="355" y="110"/>
      <point x="330" y="126"/>
      <point x="301" y="126" type="curve" smooth="yes"/>
      <point x="271" y="126"/>
      <point x="248" y="110"/>
      <point x="248" y="60" type="curve" smooth="yes"/>
      <point x="248" y="10"/>
      <point x="271" y="-7"/>
    </contour>
  </outline>
</glyph>
<glyph name="rupeeIndian" format="2">
  <advance width="589"/>
  <unicode hex="20B9"/>
  <outline>
    <contour>
      <point x="393" y="0" type="curve" smooth="yes"/>
      <point x="417" y="0" type="line"/>
      <point x="417" y="41" type="line"/>
      <point x="402" y="41" type="line" smooth="yes"/>
      <point x="359" y="41"/>
      <point x="328" y="67"/>
      <point x="296" y="121" type="curve" smooth="yes"/>
      <point x="179" y="319" type="line"/>
      <point x="347" y="325"/>
      <point x="407" y="402"/>
      <point x="416" y="499" type="curve"/>
      <point x="526" y="499" type="line"/>
      <point x="526" y="543" type="line"/>
      <point x="417" y="543" type="line"/>
      <point x="413" y="598"/>
      <point x="391" y="642"/>
      <point x="352" y="670" type="curve"/>
      <point x="526" y="670" type="line"/>
      <point x="526" y="714" type="line"/>
      <point x="61" y="714" type="line"/>
      <point x="61" y="670" type="line"/>
      <point x="159" y="670" type="line" smooth="yes"/>
      <point x="269" y="670"/>
      <point x="311" y="629"/>
      <point x="316" y="543" type="curve"/>
      <point x="61" y="543" type="line"/>
      <point x="61" y="499" type="line"/>
      <point x="317" y="499" type="line"/>
      <point x="311" y="400"/>
      <point x="258" y="364"/>
      <point x="142" y="364" type="curve" smooth="yes"/>
      <point x="62" y="364" type="line"/>
      <point x="62" y="338" type="line"/>
      <point x="202" y="91" type="line" smooth="yes"/>
      <point x="244" y="17"/>
      <point x="274" y="0"/>
    </contour>
  </outline>
</glyph>
<glyph name="uniA8F1" format="2">
  <unicode hex="A8F1"/>
  <note>
uniA8F1
</note>
  <outline>
    <contour>
      <point x="-71" y="930" type="curve" smooth="yes"/>
      <point x="-28" y="930"/>
      <point x="-3" y="959"/>
      <point x="-3" y="995" type="curve" smooth="yes"/>
      <point x="-3" y="1063"/>
      <point x="-97" y="1104"/>
      <point x="-97" y="1152" type="curve" smooth="yes"/>
      <point x="-97" y="1167"/>
      <point x="-85" y="1177"/>
      <point x="-66" y="1177" type="curve" smooth="yes"/>
      <point x="-14" y="1177" type="line"/>
      <point x="-14" y="1182" type="line"/>
      <point x="-31" y="1213" type="line"/>
      <point x="-88" y="1213" type="line" smooth="yes"/>
      <point x="-124" y="1213"/>
      <point x="-146" y="1193"/>
      <point x="-146" y="1165" type="curve" smooth="yes"/>
      <point x="-146" y="1105"/>
      <point x="-52" y="1063"/>
      <point x="-52" y="1007" type="curve" smooth="yes"/>
      <point x="-52" y="987"/>
      <point x="-65" y="975"/>
      <point x="-85" y="975" type="curve" smooth="yes"/>
      <point x="-114" y="975"/>
      <point x="-136" y="999"/>
      <point x="-156" y="1044" type="curve"/>
      <point x="-187" y="1032" type="line"/>
      <point x="-158" y="960"/>
      <point x="-118" y="930"/>
    </contour>
  </outline>
</glyph>
<glyph name="aaMatra-beng.fina" format="2">
  <advance width="163"/>
  <outline>
    <contour>
      <point x="114" y="-25" type="line"/>
      <point x="118" y="-24" type="line"/>
      <point x="114" y="665" type="line"/>
      <point x="71" y="698" type="line"/>
      <point x="67" y="697" type="line"/>
      <point x="67" y="638" type="line" smooth="yes"/>
      <point x="67" y="616"/>
      <point x="70" y="571"/>
      <point x="75" y="532" type="curve"/>
      <point x="79" y="533" type="line"/>
      <point x="68" y="596"/>
      <point x="31" y="622"/>
      <point x="3" y="622" type="curve" smooth="yes"/>
      <point x="-25" y="622" type="line"/>
      <point x="3" y="570" type="line"/>
      <point x="9" y="570" type="line" smooth="yes"/>
      <point x="34" y="570"/>
      <point x="61" y="526"/>
      <point x="67" y="472" type="curve"/>
      <point x="67" y="3" type="line"/>
    </contour>
  </outline>
</glyph>
<glyph name="assacross" format="2">
  <advance width="396"/>
  <anchor x="208" y="89" name="_nukta"/>
  <outline>
    <contour>
      <point x="368" y="179" type="curve"/>
      <point x="389" y="206" type="line"/>
      <point x="353" y="284"/>
      <point x="293" y="347"/>
      <point x="232" y="395" type="curve"/>
      <point x="179" y="355" type="line"/>
      <point x="240" y="327"/>
      <point x="301" y="277"/>
    </contour>
  </outline>
</glyph>
<glyph name="b-beng" format="2">
  <advance width="319"/>
  <outline>
    <contour>
      <point x="263" y="162" type="line"/>
      <point x="268" y="163" type="line"/>
      <point x="268" y="570" type="line"/>
      <point x="344" y="570" type="line"/>
      <point x="316" y="622" type="line"/>
      <point x="-25" y="622" type="line"/>
      <point x="3" y="570" type="line"/>
      <point x="217" y="570" type="line"/>
      <point x="217" y="522" type="line"/>
      <point x="223" y="551" type="line"/>
      <point x="146" y="521"/>
      <point x="76" y="482"/>
      <point x="10" y="428" type="curve"/>
      <point x="47" y="331" type="line"/>
      <point x="114" y="317"/>
      <point x="183" y="275"/>
      <point x="224" y="191" type="curve"/>
    </contour>
    <contour>
      <point x="217" y="230" type="line"/>
      <point x="227" y="242" type="line"/>
      <point x="184" y="347"/>
      <point x="115" y="380"/>
      <point x="60" y="398" type="curve"/>
      <point x="71" y="366" type="line"/>
      <point x="110" y="406"/>
      <point x="175" y="444"/>
      <point x="227" y="465" type="curve"/>
      <point x="217" y="486" type="line"/>
    </contour>
  </outline>
</glyph>
<glyph name="b_bha-beng" format="2">
  <advance width="492"/>
  <anchor x="341" y="-117" name="bottom"/>
  <anchor x="429" y="-159" name="bottom.rakaar"/>
  <anchor x="364" y="-107" name="bottom.rvocalic"/>
  <anchor x="331" y="-139" name="bottom.virama"/>
  <anchor x="405" y="570" name="top"/>
  <anchor x="407" y="570" name="topright"/>
  <outline>
    <contour>
      <point x="315" y="-100" type="curve" smooth="yes"/>
      <point x="407" y="-100"/>
      <point x="464" y="-32"/>
      <point x="464" y="80" type="curve" smooth="yes"/>
      <point x="464" y="147"/>
      <point x="436" y="199"/>
      <point x="397" y="247" type="curve"/>
      <point x="357" y="172"/>
      <point x="328" y="148"/>
      <point x="289" y="143" type="curve"/>
      <point x="298" y="129" type="line"/>
      <point x="310" y="143"/>
      <point x="318" y="158"/>
      <point x="318" y="181" type="curve" smooth="yes"/>
      <point x="318" y="222"/>
      <point x="290" y="246"/>
      <point x="259" y="246" type="curve" smooth="yes"/>
      <point x="222" y="246"/>
      <point x="199" y="213"/>
      <point x="199" y="173" type="curve" smooth="yes"/>
      <point x="199" y="113"/>
      <point x="243" y="76"/>
      <point x="295" y="76" type="curve" smooth="yes"/>
      <point x="345" y="76"/>
      <point x="400" y="116"/>
      <point x="425" y="183" type="curve"/>
      <point x="404" y="183" type="line"/>
      <point x="417" y="160"/>
      <point x="424" y="133"/>
      <point x="424" y="96" type="curve" smooth="yes"/>
      <point x="424" y="26"/>
      <point x="375" y="-8"/>
      <point x="311" y="-8" type="curve" smooth="yes"/>
      <point x="147" y="-8"/>
      <point x="90" y="216"/>
      <point x="60" y="483" type="curve"/>
      <point x="20" y="478" type="line"/>
      <point x="53" y="162"/>
      <point x="119" y="-100"/>
    </contour>
    <contour>
      <point x="364" y="226" type="line"/>
      <point x="372" y="238" type="line"/>
      <point x="322" y="350"/>
      <point x="239" y="385"/>
      <point x="183" y="402" type="curve"/>
      <point x="193" y="373" type="line"/>
      <point x="240" y="415"/>
      <point x="316" y="451"/>
      <point x="374" y="475" type="curve"/>
      <point x="364" y="495" type="line"/>
    </contour>
    <contour>
      <point x="376" y="186" type="curve"/>
      <point x="415" y="207" type="line"/>
      <point x="415" y="570" type="line"/>
      <point x="517" y="570" type="line"/>
      <point x="489" y="622" type="line"/>
      <point x="-25" y="622" type="line"/>
      <point x="3" y="570" type="line"/>
      <point x="364" y="570" type="line"/>
      <point x="364" y="534" type="line"/>
      <point x="371" y="557" type="line"/>
      <point x="288" y="526"/>
      <point x="200" y="482"/>
      <point x="127" y="432" type="curve"/>
      <point x="167" y="334" type="line"/>
      <point x="247" y="319"/>
      <point x="328" y="270"/>
    </contour>
  </outline>
</glyph>
<glyph name="b_d_ra-beng" format="2">
  <advance width="597"/>
  <anchor x="532" y="29" name="bottom"/>
  <anchor x="543" y="-35" name="bottom.rvocalic"/>
  <anchor x="529" y="-30" name="bottom.virama"/>
  <anchor x="453" y="570" name="top"/>
  <anchor x="445" y="570" name="topright"/>
  <outline>
    <contour>
      <point x="539" y="-49" type="line"/>
      <point x="543" y="-45" type="line"/>
      <point x="524" y="15"/>
      <point x="510" y="109"/>
      <point x="510" y="184" type="curve" smooth="yes"/>
      <point x="510" y="265"/>
      <point x="526" y="344"/>
      <point x="562" y="418" type="curve"/>
      <point x="487" y="489" type="line"/>
      <point x="412" y="431"/>
      <point x="339" y="362"/>
      <point x="291" y="285" type="curve"/>
      <point x="310" y="271" type="line"/>
      <point x="310" y="570" type="line"/>
      <point x="622" y="570" type="line"/>
      <point x="594" y="622" type="line"/>
      <point x="-25" y="622" type="line"/>
      <point x="3" y="570" type="line"/>
      <point x="259" y="570" type="line"/>
      <point x="259" y="264" type="line"/>
      <point x="267" y="274" type="line"/>
      <point x="233" y="336"/>
      <point x="167" y="377"/>
      <point x="102" y="387" type="curve"/>
      <point x="116" y="370" type="line"/>
      <point x="163" y="408"/>
      <point x="220" y="440"/>
      <point x="272" y="462" type="curve"/>
      <point x="266" y="547" type="line"/>
      <point x="183" y="513"/>
      <point x="112" y="474"/>
      <point x="41" y="422" type="curve"/>
      <point x="94" y="321" type="line"/>
      <point x="173" y="309"/>
      <point x="242" y="273"/>
      <point x="298" y="190" type="curve"/>
      <point x="308" y="190" type="line"/>
      <point x="374" y="287"/>
      <point x="435" y="351"/>
      <point x="504" y="408" type="curve"/>
      <point x="490" y="417" type="line"/>
      <point x="468" y="355"/>
      <point x="457" y="289"/>
      <point x="457" y="219" type="curve" smooth="yes"/>
      <point x="457" y="147"/>
      <point x="472" y="87"/>
      <point x="493" y="21" type="curve"/>
      <point x="495" y="28" type="line"/>
      <point x="456" y="93"/>
      <point x="412" y="119"/>
      <point x="353" y="119" type="curve" smooth="yes"/>
      <point x="302" y="119"/>
      <point x="262" y="105"/>
      <point x="210" y="105" type="curve" smooth="yes"/>
      <point x="136" y="105"/>
      <point x="106" y="139"/>
      <point x="106" y="196" type="curve" smooth="yes"/>
      <point x="106" y="217"/>
      <point x="109" y="243"/>
      <point x="115" y="264" type="curve"/>
      <point x="77" y="272" type="line"/>
      <point x="69" y="241"/>
      <point x="64" y="209"/>
      <point x="64" y="178" type="curve" smooth="yes"/>
      <point x="64" y="88"/>
      <point x="110" y="22"/>
      <point x="207" y="22" type="curve" smooth="yes"/>
      <point x="271" y="22"/>
      <point x="317" y="42"/>
      <point x="376" y="42" type="curve" smooth="yes"/>
      <point x="430" y="42"/>
      <point x="467" y="22"/>
      <point x="496" y="-27" type="curve"/>
    </contour>
  </outline>
</glyph>
<glyph name="b_da-beng" format="2">
  <advance width="587"/>
  <anchor x="516" y="87" name="bottom"/>
  <anchor x="527" y="70" name="bottom.rakaar"/>
  <anchor x="526" y="14" name="bottom.rvocalic"/>
  <anchor x="514" y="0" name="bottom.virama"/>
  <anchor x="290" y="570" name="top"/>
  <anchor x="419" y="570" name="topleft"/>
  <anchor x="292" y="570" name="topright"/>
  <outline>
    <contour>
      <point x="488" y="-8" type="curve"/>
      <point x="526" y="4" type="line"/>
      <point x="509" y="64"/>
      <point x="500" y="124"/>
      <point x="500" y="184" type="curve" smooth="yes"/>
      <point x="500" y="265"/>
      <point x="516" y="344"/>
      <point x="552" y="418" type="curve"/>
      <point x="477" y="489" type="line"/>
      <point x="402" y="431"/>
      <point x="329" y="362"/>
      <point x="281" y="285" type="curve"/>
      <point x="300" y="271" type="line"/>
      <point x="300" y="570" type="line"/>
      <point x="612" y="570" type="line"/>
      <point x="584" y="622" type="line"/>
      <point x="-25" y="622" type="line"/>
      <point x="3" y="570" type="line"/>
      <point x="249" y="570" type="line"/>
      <point x="249" y="264" type="line"/>
      <point x="257" y="274" type="line"/>
      <point x="223" y="336"/>
      <point x="157" y="377"/>
      <point x="92" y="387" type="curve"/>
      <point x="106" y="370" type="line"/>
      <point x="153" y="408"/>
      <point x="210" y="440"/>
      <point x="262" y="462" type="curve"/>
      <point x="256" y="547" type="line"/>
      <point x="173" y="513"/>
      <point x="102" y="474"/>
      <point x="31" y="422" type="curve"/>
      <point x="84" y="321" type="line"/>
      <point x="163" y="309"/>
      <point x="232" y="273"/>
      <point x="288" y="190" type="curve"/>
      <point x="298" y="190" type="line"/>
      <point x="364" y="287"/>
      <point x="425" y="351"/>
      <point x="494" y="408" type="curve"/>
      <point x="480" y="417" type="line"/>
      <point x="458" y="355"/>
      <point x="447" y="289"/>
      <point x="447" y="219" type="curve" smooth="yes"/>
      <point x="447" y="141"/>
      <point x="463" y="65"/>
    </contour>
  </outline>
</glyph>
<glyph name="b_dha-beng" format="2">
  <advance width="478"/>
  <anchor x="320" y="-42" name="bottom"/>
  <anchor x="318" y="-2" name="bottom.rakaar"/>
  <anchor x="324" y="-64" name="bottom.rvocalic"/>
  <anchor x="315" y="-66" name="bottom.virama"/>
  <anchor x="314" y="570" name="top"/>
  <anchor x="316" y="570" name="topright"/>
  <outline>
    <contour>
      <point x="318" y="-80" type="line"/>
      <point x="324" y="-79" type="line"/>
      <point x="324" y="570" type="line"/>
      <point x="503" y="570" type="line"/>
      <point x="476" y="622" type="line"/>
      <point x="-25" y="622" type="line"/>
      <point x="3" y="570" type="line"/>
      <point x="273" y="570" type="line"/>
      <point x="273" y="511" type="line"/>
      <point x="279" y="535" type="line"/>
      <point x="189" y="504"/>
      <point x="103" y="451"/>
      <point x="22" y="388" type="curve"/>
      <point x="59" y="282" type="line"/>
      <point x="101" y="278"/>
      <point x="143" y="270"/>
      <point x="176" y="245" type="curve"/>
      <point x="205" y="262" type="line"/>
      <point x="169" y="310"/>
      <point x="119" y="341"/>
      <point x="79" y="354" type="curve"/>
      <point x="91" y="336" type="line"/>
      <point x="142" y="382"/>
      <point x="219" y="424"/>
      <point x="284" y="451" type="curve"/>
      <point x="273" y="463" type="line"/>
      <point x="273" y="-1" type="line"/>
      <point x="281" y="15" type="line"/>
      <point x="244" y="109"/>
      <point x="172" y="153"/>
      <point x="117" y="175" type="curve"/>
      <point x="124" y="147" type="line"/>
      <point x="202" y="207"/>
      <point x="298" y="258"/>
      <point x="385" y="295" type="curve"/>
      <point x="372" y="332" type="line"/>
      <point x="372" y="17" type="line"/>
      <point x="431" y="-28" type="line"/>
      <point x="431" y="315" type="line"/>
      <point x="373" y="373" type="line"/>
      <point x="273" y="333"/>
      <point x="172" y="278"/>
      <point x="58" y="198" type="curve"/>
      <point x="103" y="103" type="line"/>
      <point x="171" y="81"/>
      <point x="237" y="43"/>
      <point x="281" y="-50" type="curve"/>
    </contour>
  </outline>
</glyph>
<glyph name="b_ja-beng" format="2">
  <advance width="667"/>
  <anchor x="596" y="87" name="bottom"/>
  <anchor x="607" y="70" name="bottom.rakaar"/>
  <anchor x="606" y="14" name="bottom.rvocalic"/>
  <anchor x="594" y="0" name="bottom.virama"/>
  <anchor x="312" y="570" name="top"/>
  <anchor x="493" y="570" name="topleft"/>
  <anchor x="314" y="570" name="topright"/>
  <outline>
    <contour>
      <point x="335" y="27" type="curve" smooth="yes"/>
      <point x="436" y="27"/>
      <point x="494" y="94"/>
      <point x="494" y="209" type="curve" smooth="yes"/>
      <point x="494" y="295"/>
      <point x="457" y="355"/>
      <point x="422" y="389" type="curve"/>
      <point x="397" y="326"/>
      <point x="375" y="297"/>
      <point x="346" y="297" type="curve" smooth="yes"/>
      <point x="327" y="297"/>
      <point x="316" y="309"/>
      <point x="316" y="327" type="curve" smooth="yes"/>
      <point x="316" y="570" type="line"/>
      <point x="692" y="570" type="line"/>
      <point x="663" y="622" type="line"/>
      <point x="-25" y="622" type="line"/>
      <point x="3" y="570" type="line"/>
      <point x="265" y="570" type="line"/>
      <point x="265" y="322" type="line"/>
      <point x="276" y="315" type="line"/>
      <point x="246" y="383"/>
      <point x="200" y="418"/>
      <point x="148" y="430" type="curve"/>
      <point x="159" y="402" type="line"/>
      <point x="197" y="429"/>
      <point x="241" y="456"/>
      <point x="282" y="474" type="curve"/>
      <point x="278" y="555" type="line"/>
      <point x="216" y="530"/>
      <point x="161" y="504"/>
      <point x="92" y="458" type="curve"/>
      <point x="136" y="358" type="line"/>
      <point x="196" y="352"/>
      <point x="237" y="322"/>
      <point x="277" y="268" type="curve" smooth="yes"/>
      <point x="302" y="234"/>
      <point x="322" y="223"/>
      <point x="352" y="223" type="curve" smooth="yes"/>
      <point x="392" y="223"/>
      <point x="426" y="247"/>
      <point x="458" y="315" type="curve"/>
      <point x="422" y="304" type="line"/>
      <point x="441" y="282"/>
      <point x="448" y="259"/>
      <point x="448" y="226" type="curve" smooth="yes"/>
      <point x="448" y="153"/>
      <point x="406" y="115"/>
      <point x="331" y="115" type="curve" smooth="yes"/>
      <point x="211" y="115"/>
      <point x="122" y="207"/>
      <point x="51" y="492" type="curve"/>
      <point x="13" y="483" type="line"/>
      <point x="75" y="187"/>
      <point x="182" y="27"/>
    </contour>
    <contour>
      <point x="568" y="-8" type="curve"/>
      <point x="606" y="4" type="line"/>
      <point x="589" y="64"/>
      <point x="578" y="130"/>
      <point x="578" y="192" type="curve" smooth="yes"/>
      <point x="578" y="292"/>
      <point x="601" y="362"/>
      <point x="641" y="436" type="curve"/>
      <point x="589" y="504" type="line"/>
      <point x="557" y="490"/>
      <point x="521" y="478"/>
      <point x="477" y="478" type="curve" smooth="yes"/>
      <point x="417" y="478"/>
      <point x="352" y="501"/>
      <point x="313" y="555" type="curve"/>
      <point x="295" y="524" type="line"/>
      <point x="350" y="445"/>
      <point x="432" y="410"/>
      <point x="506" y="410" type="curve" smooth="yes"/>
      <point x="531" y="410"/>
      <point x="558" y="414"/>
      <point x="573" y="419" type="curve"/>
      <point x="566" y="442" type="line"/>
      <point x="539" y="381"/>
      <point x="525" y="319"/>
      <point x="525" y="236" type="curve" smooth="yes"/>
      <point x="525" y="148"/>
      <point x="543" y="65"/>
    </contour>
  </outline>
</glyph>
<glyph name="b_la-beng" format="2">
  <advance width="413"/>
  <anchor x="347" y="-46" name="bottom"/>
  <anchor x="346" y="1" name="bottom.rakaar"/>
  <anchor x="346" y="-63" name="bottom.rvocalic"/>
  <anchor x="332" y="-63" name="bottom.virama"/>
  <anchor x="336" y="570" name="top"/>
  <anchor x="338" y="570" name="topright"/>
  <outline>
    <contour>
      <point x="341" y="-82" type="line"/>
      <point x="346" y="-81" type="line"/>
      <point x="346" y="570" type="line"/>
      <point x="438" y="570" type="line"/>
      <point x="409" y="622" type="line"/>
      <point x="-25" y="622" type="line"/>
      <point x="3" y="570" type="line"/>
      <point x="295" y="570" type="line"/>
      <point x="295" y="500" type="line"/>
      <point x="301" y="520" type="line"/>
      <point x="215" y="486"/>
      <point x="119" y="433"/>
      <point x="31" y="362" type="curve"/>
      <point x="81" y="258" type="line"/>
      <point x="175" y="242"/>
      <point x="252" y="201"/>
      <point x="296" y="137" type="curve"/>
      <point x="301" y="17" type="line"/>
      <point x="309" y="18" type="line"/>
      <point x="293" y="94"/>
      <point x="258" y="155"/>
      <point x="224" y="155" type="curve" smooth="yes"/>
      <point x="198" y="155"/>
      <point x="180" y="130"/>
      <point x="182" y="72" type="curve"/>
      <point x="189" y="69" type="line"/>
      <point x="181" y="124"/>
      <point x="150" y="169"/>
      <point x="105" y="169" type="curve" smooth="yes"/>
      <point x="62" y="169"/>
      <point x="33" y="133"/>
      <point x="33" y="62" type="curve" smooth="yes"/>
      <point x="33" y="-21"/>
      <point x="77" y="-71"/>
      <point x="123" y="-71" type="curve" smooth="yes"/>
      <point x="158" y="-71"/>
      <point x="176" y="-49"/>
      <point x="176" y="-13" type="curve" smooth="yes"/>
      <point x="176" y="19"/>
      <point x="161" y="39"/>
      <point x="134" y="39" type="curve" smooth="yes"/>
      <point x="111" y="39"/>
      <point x="96" y="21"/>
      <point x="96" y="-9" type="curve" smooth="yes"/>
      <point x="96" y="-24"/>
      <point x="100" y="-37"/>
      <point x="105" y="-46" type="curve"/>
      <point x="123" y="-18" type="line"/>
      <point x="119" y="-20"/>
      <point x="113" y="-20"/>
      <point x="108" y="-20" type="curve" smooth="yes"/>
      <point x="93" y="-20"/>
      <point x="79" y="2"/>
      <point x="79" y="37" type="curve" smooth="yes"/>
      <point x="79" y="71"/>
      <point x="93" y="91"/>
      <point x="122" y="91" type="curve" smooth="yes"/>
      <point x="152" y="91"/>
      <point x="178" y="61"/>
      <point x="187" y="18" type="curve"/>
      <point x="209" y="15" type="line"/>
      <point x="209" y="68"/>
      <point x="224" y="80"/>
      <point x="241" y="80" type="curve" smooth="yes"/>
      <point x="267" y="80"/>
      <point x="288" y="44"/>
      <point x="310" y="-49" type="curve"/>
    </contour>
    <contour>
      <point x="295" y="172" type="line"/>
      <point x="303" y="186" type="line"/>
      <point x="259" y="267"/>
      <point x="165" y="320"/>
      <point x="96" y="332" type="curve"/>
      <point x="110" y="307" type="line"/>
      <point x="159" y="357"/>
      <point x="249" y="407"/>
      <point x="305" y="430" type="curve"/>
      <point x="295" y="448" type="line"/>
    </contour>
  </outline>
</glyph>
<glyph name="b_ra_uMatra-beng" format="2">
  <advance width="610"/>
  <anchor x="386" y="20" name="bottom"/>
  <anchor x="391" y="-5" name="bottom.rvocalic"/>
  <anchor x="376" y="-4" name="bottom.virama"/>
  <anchor x="381" y="570" name="top"/>
  <anchor x="383" y="570" name="topright"/>
  <outline>
    <contour>
      <point x="385" y="-22" type="line"/>
      <point x="391" y="-21" type="line"/>
      <point x="391" y="570" type="line"/>
      <point x="635" y="570" type="line"/>
      <point x="607" y="622" type="line"/>
      <point x="-25" y="622" type="line"/>
      <point x="3" y="570" type="line"/>
      <point x="340" y="570" type="line"/>
      <point x="340" y="499" type="line"/>
      <point x="346" y="519" type="line"/>
      <point x="251" y="481"/>
      <point x="166" y="430"/>
      <point x="77" y="362" type="curve"/>
      <point x="131" y="255" type="line"/>
      <point x="230" y="232"/>
      <point x="305" y="186"/>
      <point x="355" y="113" type="curve"/>
      <point x="355" y="164" type="line"/>
      <point x="322" y="241"/>
      <point x="230" y="303"/>
      <point x="146" y="328" type="curve"/>
      <point x="152" y="313" type="line"/>
      <point x="211" y="365"/>
      <point x="287" y="405"/>
      <point x="348" y="430" type="curve"/>
      <point x="340" y="452" type="line"/>
      <point x="340" y="143" type="line"/>
      <point x="346" y="65" type="line"/>
      <point x="317" y="117"/>
      <point x="282" y="130"/>
      <point x="240" y="130" type="curve" smooth="yes"/>
      <point x="216" y="130"/>
      <point x="170" y="126"/>
      <point x="148" y="126" type="curve" smooth="yes"/>
      <point x="96" y="126"/>
      <point x="65" y="147"/>
      <point x="65" y="214" type="curve" smooth="yes"/>
      <point x="65" y="241"/>
      <point x="70" y="267"/>
      <point x="74" y="287" type="curve"/>
      <point x="33" y="295" type="line"/>
      <point x="28" y="271"/>
      <point x="20" y="230"/>
      <point x="20" y="190" type="curve" smooth="yes"/>
      <point x="20" y="81"/>
      <point x="81" y="46"/>
      <point x="151" y="46" type="curve" smooth="yes"/>
      <point x="186" y="46"/>
      <point x="229" y="55"/>
      <point x="263" y="55" type="curve" smooth="yes"/>
      <point x="299" y="55"/>
      <point x="329" y="45"/>
      <point x="352" y="5" type="curve"/>
    </contour>
    <contour>
      <point x="511" y="201" type="curve" smooth="yes"/>
      <point x="570" y="201"/>
      <point x="607" y="250"/>
      <point x="607" y="340" type="curve" smooth="yes"/>
      <point x="607" y="449"/>
      <point x="543" y="488"/>
      <point x="496" y="488" type="curve" smooth="yes"/>
      <point x="454" y="488"/>
      <point x="428" y="460"/>
      <point x="428" y="419" type="curve" smooth="yes"/>
      <point x="428" y="380"/>
      <point x="449" y="356"/>
      <point x="483" y="356" type="curve" smooth="yes"/>
      <point x="516" y="356"/>
      <point x="533" y="379"/>
      <point x="533" y="414" type="curve" smooth="yes"/>
      <point x="533" y="428"/>
      <point x="530" y="441"/>
      <point x="526" y="450" type="curve"/>
      <point x="512" y="433" type="line"/>
      <point x="543" y="433"/>
      <point x="565" y="407"/>
      <point x="565" y="358" type="curve" smooth="yes"/>
      <point x="565" y="308"/>
      <point x="544" y="279"/>
      <point x="502" y="279" type="curve" smooth="yes"/>
      <point x="444" y="279"/>
      <point x="391" y="347"/>
      <point x="391" y="421" type="curve"/>
      <point x="374" y="368" type="line"/>
      <point x="398" y="274"/>
      <point x="447" y="201"/>
    </contour>
  </outline>
</glyph>
<glyph name="b_ra_uuMatra-beng" format="2">
  <advance width="561"/>
  <anchor x="386" y="20" name="bottom"/>
  <anchor x="391" y="-5" name="bottom.rvocalic"/>
  <anchor x="376" y="-4" name="bottom.virama"/>
  <anchor x="381" y="570" name="top"/>
  <anchor x="383" y="570" name="topright"/>
  <outline>
    <contour>
      <point x="516" y="22" type="line"/>
      <point x="516" y="403" type="line"/>
      <point x="457" y="461" type="line"/>
      <point x="429" y="447"/>
      <point x="392" y="423"/>
      <point x="360" y="401" type="curve"/>
      <point x="379" y="328" type="line"/>
      <point x="408" y="354"/>
      <point x="444" y="379"/>
      <point x="475" y="396" type="curve"/>
      <point x="456" y="420" type="line"/>
      <point x="456" y="67" type="line"/>
    </contour>
    <contour>
      <point x="385" y="-22" type="line"/>
      <point x="391" y="-21" type="line"/>
      <point x="391" y="570" type="line"/>
      <point x="586" y="570" type="line"/>
      <point x="558" y="622" type="line"/>
      <point x="-25" y="622" type="line"/>
      <point x="3" y="570" type="line"/>
      <point x="340" y="570" type="line"/>
      <point x="340" y="499" type="line"/>
      <point x="346" y="519" type="line"/>
      <point x="251" y="481"/>
      <point x="166" y="430"/>
      <point x="77" y="362" type="curve"/>
      <point x="131" y="255" type="line"/>
      <point x="230" y="232"/>
      <point x="305" y="186"/>
      <point x="355" y="113" type="curve"/>
      <point x="355" y="164" type="line"/>
      <point x="322" y="241"/>
      <point x="230" y="303"/>
      <point x="146" y="328" type="curve"/>
      <point x="152" y="313" type="line"/>
      <point x="211" y="365"/>
      <point x="287" y="405"/>
      <point x="348" y="430" type="curve"/>
      <point x="340" y="452" type="line"/>
      <point x="340" y="143" type="line"/>
      <point x="346" y="65" type="line"/>
      <point x="317" y="117"/>
      <point x="282" y="130"/>
      <point x="240" y="130" type="curve" smooth="yes"/>
      <point x="216" y="130"/>
      <point x="170" y="126"/>
      <point x="148" y="126" type="curve" smooth="yes"/>
      <point x="96" y="126"/>
      <point x="65" y="147"/>
      <point x="65" y="214" type="curve" smooth="yes"/>
      <point x="65" y="241"/>
      <point x="70" y="267"/>
      <point x="74" y="287" type="curve"/>
      <point x="33" y="295" type="line"/>
      <point x="28" y="271"/>
      <point x="20" y="230"/>
      <point x="20" y="190" type="curve" smooth="yes"/>
      <point x="20" y="81"/>
      <point x="81" y="46"/>
      <point x="151" y="46" type="curve" smooth="yes"/>
      <point x="186" y="46"/>
      <point x="229" y="55"/>
      <point x="263" y="55" type="curve" smooth="yes"/>
      <point x="299" y="55"/>
      <point x="329" y="45"/>
      <point x="352" y="5" type="curve"/>
    </contour>
  </outline>
</glyph>
<glyph name="ba-beng.blwf" format="2">
  <anchor x="0" y="0" name="_bottom.rakaar"/>
  <anchor x="0" y="-162" name="bottom"/>
  <anchor x="0" y="-150" name="bottom.rvocalic"/>
  <outline>
    <contour>
      <point x="-5" y="-175" type="line"/>
      <point x="0" y="-174" type="line"/>
      <point x="0" y="103" type="line"/>
      <point x="-43" y="138" type="line"/>
      <point x="-98" y="116"/>
      <point x="-160" y="79"/>
      <point x="-214" y="35" type="curve"/>
      <point x="-162" y="-52" type="line"/>
      <point x="-113" y="-65"/>
      <point x="-73" y="-90"/>
      <point x="-39" y="-149" type="curve"/>
    </contour>
    <contour>
      <point x="-47" y="-114" type="line"/>
      <point x="-40" y="-103" type="line"/>
      <point x="-64" y="-33"/>
      <point x="-129" y="3"/>
      <point x="-167" y="12" type="curve"/>
      <point x="-156" y="-15" type="line"/>
      <point x="-126" y="16"/>
      <point x="-72" y="49"/>
      <point x="-38" y="63" type="curve"/>
      <point x="-47" y="79" type="line"/>
    </contour>
  </outline>
</glyph>
<glyph name="bh_ba-beng" format="2">
  <advance width="440"/>
  <anchor x="340" y="-123" name="bottom"/>
  <anchor x="344" y="-83" name="bottom.rakaar"/>
  <anchor x="344" y="-150" name="bottom.rvocalic"/>
  <anchor x="330" y="-147" name="bottom.virama"/>
  <anchor x="252" y="570" name="top"/>
  <anchor x="254" y="570" name="topright"/>
  <outline>
    <contour>
      <point x="263" y="118" type="curve" smooth="yes"/>
      <point x="363" y="118"/>
      <point x="422" y="190"/>
      <point x="422" y="314" type="curve" smooth="yes"/>
      <point x="422" y="413"/>
      <point x="382" y="482"/>
      <point x="347" y="516" type="curve"/>
      <point x="307" y="413"/>
      <point x="276" y="380"/>
      <point x="229" y="374" type="curve"/>
      <point x="247" y="360" type="line"/>
      <point x="259" y="375"/>
      <point x="266" y="392"/>
      <point x="266" y="415" type="curve" smooth="yes"/>
      <point x="266" y="455"/>
      <point x="241" y="484"/>
      <point x="205" y="484" type="curve" smooth="yes"/>
      <point x="162" y="484"/>
      <point x="138" y="448"/>
      <point x="138" y="409" type="curve" smooth="yes"/>
      <point x="138" y="345"/>
      <point x="181" y="306"/>
      <point x="240" y="306" type="curve" smooth="yes"/>
      <point x="296" y="306"/>
      <point x="343" y="344"/>
      <point x="379" y="432" type="curve"/>
      <point x="350" y="424" type="line"/>
      <point x="367" y="397"/>
      <point x="377" y="371"/>
      <point x="377" y="329" type="curve" smooth="yes"/>
      <point x="377" y="252"/>
      <point x="334" y="202"/>
      <point x="260" y="202" type="curve" smooth="yes"/>
      <point x="166" y="202"/>
      <point x="94" y="272"/>
      <point x="50" y="511" type="curve"/>
      <point x="12" y="503" type="line"/>
      <point x="56" y="210"/>
      <point x="140" y="118"/>
    </contour>
    <contour>
      <point x="339" y="-166" type="line"/>
      <point x="344" y="-165" type="line"/>
      <point x="344" y="154" type="line"/>
      <point x="293" y="154" type="line"/>
      <point x="293" y="-92" type="line"/>
      <point x="301" y="-76" type="line"/>
      <point x="263" y="9"/>
      <point x="203" y="40"/>
      <point x="147" y="52" type="curve"/>
      <point x="158" y="26" type="line"/>
      <point x="195" y="62"/>
      <point x="255" y="100"/>
      <point x="305" y="119" type="curve"/>
      <point x="301" y="185" type="line"/>
      <point x="223" y="166"/>
      <point x="159" y="139"/>
      <point x="93" y="84" type="curve"/>
      <point x="132" y="-20" type="line"/>
      <point x="201" y="-30"/>
      <point x="258" y="-57"/>
      <point x="297" y="-129" type="curve"/>
    </contour>
    <contour>
      <point x="3" y="570" type="line"/>
      <point x="465" y="570" type="line"/>
      <point x="437" y="622" type="line"/>
      <point x="-25" y="622" type="line"/>
    </contour>
  </outline>
</glyph>
<glyph name="bh_la-beng" format="2">
  <advance width="427"/>
  <anchor x="361" y="38" name="bottom"/>
  <anchor x="360" y="85" name="bottom.rakaar"/>
  <anchor x="360" y="21" name="bottom.rvocalic"/>
  <anchor x="346" y="21" name="bottom.virama"/>
  <anchor x="267" y="570" name="top"/>
  <anchor x="265" y="570" name="topright"/>
  <outline>
    <contour>
      <point x="355" y="2" type="line"/>
      <point x="360" y="3" type="line"/>
      <point x="360" y="361" type="line" smooth="yes"/>
      <point x="360" y="409"/>
      <point x="331" y="450"/>
      <point x="292" y="483" type="curve"/>
      <point x="256" y="428"/>
      <point x="203" y="372"/>
      <point x="162" y="367" type="curve"/>
      <point x="173" y="352" type="line"/>
      <point x="185" y="367"/>
      <point x="193" y="382"/>
      <point x="193" y="405" type="curve" smooth="yes"/>
      <point x="193" y="447"/>
      <point x="170" y="471"/>
      <point x="135" y="471" type="curve" smooth="yes"/>
      <point x="94" y="471"/>
      <point x="70" y="438"/>
      <point x="70" y="397" type="curve" smooth="yes"/>
      <point x="70" y="336"/>
      <point x="110" y="298"/>
      <point x="168" y="298" type="curve" smooth="yes"/>
      <point x="229" y="298"/>
      <point x="299" y="364"/>
      <point x="318" y="422" type="curve"/>
      <point x="288" y="417" type="line"/>
      <point x="306" y="397"/>
      <point x="309" y="380"/>
      <point x="309" y="350" type="curve" smooth="yes"/>
      <point x="309" y="216" type="line" smooth="yes"/>
      <point x="309" y="173"/>
      <point x="312" y="127"/>
      <point x="314" y="86" type="curve"/>
      <point x="323" y="102" type="line"/>
      <point x="307" y="178"/>
      <point x="276" y="237"/>
      <point x="235" y="237" type="curve" smooth="yes"/>
      <point x="209" y="237"/>
      <point x="188" y="212"/>
      <point x="190" y="156" type="curve"/>
      <point x="197" y="153" type="line"/>
      <point x="189" y="206"/>
      <point x="158" y="251"/>
      <point x="113" y="251" type="curve" smooth="yes"/>
      <point x="70" y="251"/>
      <point x="35" y="215"/>
      <point x="35" y="146" type="curve" smooth="yes"/>
      <point x="35" y="63"/>
      <point x="79" y="13"/>
      <point x="131" y="13" type="curve" smooth="yes"/>
      <point x="166" y="13"/>
      <point x="184" y="35"/>
      <point x="184" y="71" type="curve" smooth="yes"/>
      <point x="184" y="103"/>
      <point x="166" y="123"/>
      <point x="139" y="123" type="curve" smooth="yes"/>
      <point x="113" y="123"/>
      <point x="98" y="105"/>
      <point x="98" y="75" type="curve" smooth="yes"/>
      <point x="98" y="60"/>
      <point x="102" y="47"/>
      <point x="107" y="38" type="curve"/>
      <point x="131" y="66" type="line"/>
      <point x="121" y="64"/>
      <point x="115" y="64"/>
      <point x="110" y="64" type="curve" smooth="yes"/>
      <point x="95" y="64"/>
      <point x="81" y="85"/>
      <point x="81" y="119" type="curve" smooth="yes"/>
      <point x="81" y="154"/>
      <point x="100" y="173"/>
      <point x="128" y="173" type="curve" smooth="yes"/>
      <point x="159" y="173"/>
      <point x="186" y="145"/>
      <point x="195" y="102" type="curve"/>
      <point x="217" y="99" type="line"/>
      <point x="217" y="152"/>
      <point x="233" y="162"/>
      <point x="249" y="162" type="curve" smooth="yes"/>
      <point x="279" y="162"/>
      <point x="302" y="128"/>
      <point x="324" y="35" type="curve"/>
    </contour>
    <contour>
      <point x="3" y="570" type="line"/>
      <point x="452" y="570" type="line"/>
      <point x="424" y="622" type="line"/>
      <point x="-25" y="622" type="line"/>
    </contour>
  </outline>
</glyph>
